<svg width="133" height="133" viewBox="0 0 133 133" fill="none" xmlns="http://www.w3.org/2000/svg">
<path d="M66.5 6.64999L13.5078 34.9125H57.668V20.3656H75.332V34.6771C75.9892 34.7442 76.6413 34.8244 77.2907 34.9125H119.492L66.5 6.64999ZM62.3438 25.0414V39.9467L60.7207 40.4676C57.0217 41.6555 53.9401 43.5692 51.351 46.2661C46.7568 51.0522 44.4062 57.5911 44.4062 66.3636C44.4062 75.0346 46.7155 81.5617 51.2333 86.403C53.8616 89.2051 56.9767 91.1567 60.7088 92.3334L62.3435 92.8488V109.205H70.656V93.6585L72.831 93.506C75.3248 93.332 77.7556 92.9488 80.1283 92.35C83.0393 91.6157 85.8544 90.5431 88.5936 89.1653V65.4895H72.7388V70.6781H80.7798V83.5562L79.3763 84.1682C78.2404 84.6633 76.9979 85.0161 75.656 85.2468L75.6352 85.2504L75.6144 85.2538C74.3148 85.4533 72.931 85.5481 71.4613 85.5481C65.9114 85.5481 61.1855 83.6043 57.9966 79.774C55.1184 76.3171 53.3494 72.7577 53.3494 66.3636C53.3494 59.91 55.1849 56.3141 58.1633 52.8787H58.1639C61.4803 49.0544 66.3421 47.1404 72.0769 47.1404C75.1515 47.1404 78.2152 47.6275 81.2373 48.5884C83.0707 49.1669 84.8948 49.9418 86.7118 50.865V42.4615C84.4623 41.4307 82.1128 40.6338 79.7003 40.0834H79.6987L79.6966 40.0829C77.5068 39.5789 75.2325 39.262 72.8682 39.1347L70.6557 39.0158V25.0414H62.3432H62.3438ZM12.4688 39.0687V43.7445H18.9629V97.2562H12.4688V101.932H37.4062V97.2562H30.9121V43.7445H37.4062V39.0687H12.4688ZM95.5938 39.0687V43.7445H102.088V97.2562H95.5938V101.932H120.531V97.2562H114.037V43.7445H120.531V39.0687H95.5938ZM10.6504 106.088V113.881H57.668V106.088H10.6504ZM75.332 106.088V113.881H122.35V106.088H75.332ZM6.49414 118.557V126.35H126.506V118.557H6.49414Z" fill="url(#paint0_linear_1_36)"/>
<path d="M80.1283 92.3501C77.7556 92.9488 75.3248 93.332 72.831 93.506L70.656 93.6585V108.205L80.1283 92.3501ZM80.1283 92.3501C83.0393 91.6157 85.8544 90.5431 88.5936 89.1653L80.1283 92.3501ZM57.668 19.3656H56.668V20.3656V33.9125H17.5078L66.5 7.78333L115.492 33.9125H77.3579C77.0176 33.8666 76.6757 33.8228 76.332 33.7819V20.3656V19.3656H75.332H57.668ZM63.3438 26.0414H69.6557V39.0158V39.9634L70.602 40.0143L72.8144 40.1333C72.8144 40.1333 72.8144 40.1333 72.8145 40.1333C75.1207 40.2574 77.3348 40.566 79.4634 41.0553L79.5756 41.0834H79.5868C81.6867 41.5695 83.737 42.2478 85.7118 43.1097V49.2677C84.3319 48.629 82.9411 48.0774 81.5392 47.6351C78.4235 46.6445 75.2581 46.1404 72.0769 46.1404C66.2854 46.1404 61.2478 48.0244 57.7158 51.8787H57.7068L57.4078 52.2236C55.8699 53.9974 54.5928 55.8525 53.7076 58.1265C52.8226 60.3999 52.3494 63.0395 52.3494 66.3636C52.3494 69.6554 52.8052 72.2676 53.6583 74.5239C54.5116 76.7809 55.7434 78.6307 57.2281 80.4138C60.6404 84.5125 65.6711 86.5481 71.4613 86.5481C72.9735 86.5481 74.4087 86.4506 75.7661 86.2422L75.7748 86.2408L75.7956 86.2374L75.7956 86.2375L75.8076 86.2354L75.8254 86.2323C75.8258 86.2322 75.8262 86.2322 75.8266 86.2321C77.2337 85.9901 78.555 85.6171 79.7759 85.0849L79.776 85.0849L81.1795 84.4728L81.7798 84.2111V83.5562V70.6781V69.6781H80.7798H73.7388V66.4895H87.5936V88.5442C85.0889 89.7611 82.5245 90.7142 79.8837 91.3804L79.8837 91.3804C77.5703 91.9642 75.1981 92.3384 72.7614 92.5084L72.7611 92.5085L70.5861 92.6609L69.656 92.7261V93.6585V108.205H63.3435V92.8488V92.1156L62.6442 91.8951L61.0095 91.3797C57.4389 90.2539 54.4726 88.3943 51.9639 85.7201C47.66 81.1078 45.4062 74.8478 45.4062 66.3636C45.4062 57.7782 47.7007 51.513 52.0724 46.9586C54.543 44.3851 57.4803 42.5585 61.0263 41.4198C61.0264 41.4197 61.0264 41.4197 61.0265 41.4197L62.6493 40.8989L63.3438 40.6761V39.9468V26.0414ZM19.9629 43.7445V42.7445H18.9629H13.4688V40.0687H36.4062V42.7445H30.9121H29.9121V43.7445V97.2562V98.2562H30.9121H36.4062V100.932H13.4688V98.2562H18.9629H19.9629V97.2562V43.7445ZM103.088 43.7445V42.7445H102.088H96.5938V40.0687H119.531V42.7445H114.037H113.037V43.7445V97.2562V98.2562H114.037H119.531V100.932H96.5938V98.2562H102.088H103.088V97.2562V43.7445ZM56.668 112.881H11.6504V107.088H56.668V112.881ZM121.35 112.881H76.332V107.088H121.35V112.881ZM125.506 125.35H7.49414V119.557H125.506V125.35Z" stroke="#E7E4E6" stroke-opacity="0.5" stroke-width="2"/>
<defs>
<linearGradient id="paint0_linear_1_36" x1="6" y1="84" x2="127" y2="85" gradientUnits="userSpaceOnUse">
<stop stop-color="#404040"/>
<stop offset="1" stop-color="#686868"/>
</linearGradient>
</defs>
</svg>

