<?xml version="1.0" encoding="utf-8"?><!-- Uploaded to: SVG Repo, www.svgrepo.com, Generator: SVG Repo Mixer Tools -->
<svg width="800px" height="800px" viewBox="0 0 24 24" fill="none" xmlns="http://www.w3.org/2000/svg">
<path d="M4.58579 4.58579C4.73329 4.43829 4.90386 4.31386 5.09202 4.21799C5.51984 4 6.0799 4 7.2 4H16.8C17.9201 4 18.4802 4 18.908 4.21799C19.0961 4.31386 19.2667 4.43829 19.4142 4.58579M4.58579 4.58579C4.43829 4.73329 4.31386 4.90386 4.21799 5.09202C4 5.51984 4 6.07989 4 7.2V16.8C4 17.9201 4 18.4802 4.21799 18.908C4.31386 19.0961 4.43829 19.2667 4.58579 19.4142M4.58579 4.58579L19.4142 19.4142M19.4142 4.58579C19.5617 4.73329 19.6861 4.90386 19.782 5.09202C20 5.51984 20 6.0799 20 7.2V16.8C20 17.9201 20 18.4802 19.782 18.908C19.6861 19.0961 19.5617 19.2667 19.4142 19.4142M19.4142 4.58579L4.58579 19.4142M4.58579 19.4142C4.73329 19.5617 4.90386 19.6861 5.09202 19.782C5.51984 20 6.07989 20 7.2 20H16.8C17.9201 20 18.4802 20 18.908 19.782C19.0961 19.6861 19.2667 19.5617 19.4142 19.4142" stroke="#000000" stroke-width="2" stroke-linecap="round" stroke-linejoin="round"/>
</svg>