<svg width="245" height="245" viewBox="0 0 245 245" fill="none" xmlns="http://www.w3.org/2000/svg">
    <g id="Contact-Dark" clip-path="url(#clip0_47_46)">
        <path id="Vector" d="M187.578 0H57.4219C25.7086 0 0 25.7086 0 57.4219V187.578C0 219.291 25.7086 245 57.4219 245H187.578C219.291 245 245 219.291 245 187.578V57.4219C245 25.7086 219.291 0 187.578 0Z" fill="#242938"/>

        <g id="line-md:phone">
            <path id="Vector_2" d="M93 56.75C96.625 56.75 111.125 89.375 111.125 93C111.125 100.25 100.25 107.5 96.625 114.75C93 122 100.25 129.25 107.5 136.5C110.327 139.327 122 151 129.25 147.375C136.5 143.75 143.75 132.875 151 132.875C154.625 132.875 187.25 147.375 187.25 151C187.25 165.5 176.375 176.375 165.5 180C154.625 183.625 147.375 183.625 132.875 180C118.375 176.375 107.5 172.75 89.375 154.625C71.25 136.5 67.625 125.625 64 111.125C60.375 96.625 60.375 89.375 64 78.5C67.625 67.625 78.5 56.75 93 56.75Z" stroke="#EFEFEF" stroke-width="5" stroke-linecap="round" stroke-linejoin="round"/>
        </g>
    </g>

    <defs>
        <clipPath id="clip0_47_46">
            <rect width="245" height="245" fill="white"/>
        </clipPath>
    </defs>
</svg>
