<svg width="94" height="94" viewBox="0 0 94 94" fill="none" xmlns="http://www.w3.org/2000/svg">
<g id="Contact-Dark_plane" clip-path="url(#clip0_65_4)">
<path id="Vector" d="M71.9688 0H22.0312C9.86373 0 0 9.86373 0 22.0312V71.9688C0 84.1363 9.86373 94 22.0312 94H71.9688C84.1363 94 94 84.1363 94 71.9688V22.0312C94 9.86373 84.1363 0 71.9688 0Z" fill="#242938"/>
<g id="material-symbols-light:contact-phone-outline">
<path id="Vector_2" d="M37.7949 56.1132L65.7978 65.2358C66.2683 65.3898 66.7706 65.4461 67.268 65.4005C67.7654 65.355 68.2454 65.2088 68.6728 64.9726C69.1002 64.7365 69.4643 64.4163 69.7384 64.0355C70.0125 63.6547 70.1897 63.223 70.257 62.7718L75.9698 23.4424C76.3175 21.0479 73.5938 19.2617 71.1904 20.3034L16.9019 43.9044C14.2178 45.0711 14.4191 48.599 17.2252 49.5074L24.6674 51.9186L28.724 53.2159M48.5496 59.6133L42.4799 68.8526C40.4973 71.0971 36.5048 69.8276 36.5048 66.9553V59.5578C36.5049 58.1618 37.082 56.817 38.1213 55.791L49.9282 44.1238" stroke="white" stroke-width="2" stroke-linecap="round" stroke-linejoin="round"/>
</g>
</g>
<defs>
<clipPath id="clip0_65_4">
<rect width="94" height="94" fill="white"/>
</clipPath>
</defs>
</svg>
