<svg width="147" height="147" viewBox="0 0 147 147" fill="none" xmlns="http://www.w3.org/2000/svg">
<g id="Contact-Dark" clip-path="url(#clip0_47_46)">
<path id="Vector" d="M112.547 0H34.4531C15.4252 0 0 15.4252 0 34.4531V112.547C0 131.575 15.4252 147 34.4531 147H112.547C131.575 147 147 131.575 147 112.547V34.4531C147 15.4252 131.575 0 112.547 0Z" fill="#242938"/>
<g id="material-symbols-light:contact-phone-outline">
<path id="Vector_2" d="M23.734 112.984C21.3155 112.984 19.2978 112.174 17.6808 110.553C16.0638 108.933 15.2535 106.915 15.25 104.5V41.5C15.25 39.085 16.0603 37.0672 17.6808 35.4467C19.3013 33.8262 21.3173 33.016 23.7288 33.016H122.271C124.686 33.016 126.704 33.8262 128.325 35.4467C129.945 37.0672 130.753 39.085 130.75 41.5V104.5C130.75 106.915 129.942 108.933 128.325 110.553C126.708 112.174 124.69 112.984 122.271 112.984H23.734ZM87.6212 107.734H122.271C123.076 107.734 123.817 107.396 124.492 106.721C125.164 106.049 125.5 105.308 125.5 104.5V41.5C125.5 40.695 125.164 39.9547 124.492 39.2792C123.817 38.6072 123.075 38.2712 122.266 38.2712H23.734C22.9255 38.2712 22.1835 38.6072 21.508 39.2792C20.8325 39.9512 20.4965 40.6915 20.5 41.5V104.5C20.5 105.305 20.836 106.045 21.508 106.721C22.18 107.396 22.9203 107.734 23.7288 107.734H26.8787C30.5537 102.988 35.0233 99.1765 40.2873 96.2995C45.5513 93.4225 51.2055 91.984 57.25 91.984C63.2945 91.984 68.947 93.4225 74.2075 96.2995C79.468 99.1765 83.9392 102.988 87.6212 107.734ZM57.25 84.7075C60.8865 84.7075 63.984 83.4282 66.5425 80.8697C69.101 78.3112 70.3785 75.2137 70.375 71.5772C70.3715 67.9407 69.094 64.8467 66.5425 62.2952C63.991 59.7437 60.8935 58.4645 57.25 58.4575C53.6065 58.4505 50.509 59.728 47.9575 62.29C45.406 64.852 44.1285 67.9495 44.125 71.5825C44.1215 75.2155 45.399 78.3112 47.9575 80.8697C50.516 83.4282 53.6135 84.711 57.25 84.7075ZM106.117 101.466L114.596 92.9867L108.138 84.3032H99.0663C98.4083 82.3257 97.9375 80.4392 97.654 78.6437C97.3705 76.8482 97.2305 74.967 97.234 73C97.2375 71.033 97.3775 69.1937 97.654 67.4822C97.9305 65.7707 98.403 63.8405 99.0715 61.6915H108.133L114.596 53.008L106.117 44.5292C101.861 48.0012 98.5412 52.224 96.1577 57.1975C93.7777 62.1675 92.5877 67.435 92.5877 73C92.5877 78.565 93.7777 83.8325 96.1577 88.8025C98.5377 93.7725 101.858 97.99 106.117 101.466ZM33.8875 107.734H80.6125C77.5675 104.409 74.029 101.828 69.997 99.9903C65.9615 98.1528 61.7125 97.234 57.25 97.234C52.7875 97.234 48.5437 98.1528 44.5187 99.9903C40.4937 101.828 36.95 104.409 33.8875 107.734ZM57.25 79.4575C55.0905 79.4575 53.2372 78.6857 51.6902 77.1422C50.1467 75.5952 49.375 73.7402 49.375 71.5772C49.375 69.4142 50.1467 67.5627 51.6902 66.0227C53.2337 64.4827 55.087 63.7127 57.25 63.7127C59.413 63.7127 61.2663 64.4845 62.8098 66.028C64.3533 67.5715 65.125 69.4247 65.125 71.5877C65.125 73.7507 64.3533 75.604 62.8098 77.1475C61.2628 78.6875 59.4095 79.4575 57.25 79.4575Z" fill="white"/>
</g>
</g>
<defs>
<clipPath id="clip0_47_46">
<rect width="147" height="147" fill="white"/>
</clipPath>
</defs>
</svg>
