<svg width="245" height="245" viewBox="0 0 245 245" fill="none" xmlns="http://www.w3.org/2000/svg">
<g id="Contact-Dark" clip-path="url(#clip0_47_46)">
<path id="Vector" d="M187.578 0H57.4219C25.7086 0 0 25.7086 0 57.4219V187.578C0 219.291 25.7086 245 57.4219 245H187.578C219.291 245 245 219.291 245 187.578V57.4219C245 25.7086 219.291 0 187.578 0Z" fill="#242938"/>
<g id="material-symbols-light:contact-phone-outline">
<path id="Vector_2" d="M41.454 187.371C37.4999 187.371 34.2011 186.046 31.5574 183.397C28.9137 180.747 27.589 177.448 27.5833 173.5V70.5C27.5833 66.5517 28.908 63.2528 31.5574 60.6034C34.2068 57.954 37.5028 56.6293 41.4454 56.6293H202.555C206.503 56.6293 209.802 57.954 212.451 60.6034C215.101 63.2528 216.422 66.5517 216.417 70.5V173.5C216.417 177.448 215.095 180.747 212.451 183.397C209.807 186.046 206.509 187.371 202.555 187.371H41.454ZM145.905 178.787H202.555C203.871 178.787 205.081 178.235 206.185 177.131C207.284 176.032 207.833 174.822 207.833 173.5V70.5C207.833 69.1839 207.284 67.9736 206.185 66.8693C205.081 65.7706 203.868 65.2213 202.546 65.2213H41.454C40.1321 65.2213 38.919 65.7706 37.8146 66.8693C36.7103 67.9679 36.1609 69.1782 36.1666 70.5V173.5C36.1666 174.816 36.716 176.026 37.8146 177.131C38.9133 178.235 40.1236 178.787 41.4454 178.787H46.5954C52.6037 171.028 59.911 164.797 68.5172 160.093C77.1235 155.389 86.3677 153.037 96.25 153.037C106.132 153.037 115.374 155.389 123.974 160.093C132.575 164.797 139.885 171.028 145.905 178.787ZM96.25 141.141C102.195 141.141 107.26 139.049 111.442 134.866C115.625 130.683 117.714 125.619 117.708 119.674C117.703 113.729 115.614 108.67 111.442 104.499C107.271 100.327 102.207 98.2356 96.25 98.2242C90.2931 98.2127 85.229 100.301 81.0575 104.49C76.886 108.679 74.7974 113.743 74.7916 119.683C74.7859 125.622 76.8745 130.683 81.0575 134.866C85.2404 139.049 90.3046 141.147 96.25 141.141ZM176.144 168.539L190.006 154.677L179.448 140.48H164.616C163.54 137.247 162.771 134.163 162.307 131.227C161.844 128.292 161.615 125.216 161.621 122C161.626 118.784 161.855 115.777 162.307 112.979C162.759 110.181 163.532 107.025 164.625 103.512H179.44L190.006 89.3147L176.144 75.4526C169.185 81.129 163.758 88.0329 159.861 96.1642C155.97 104.29 154.024 112.902 154.024 122C154.024 131.098 155.97 139.71 159.861 147.836C163.752 155.961 169.18 162.857 176.144 168.539ZM58.0541 178.787H134.446C129.467 173.351 123.682 169.131 117.09 166.127C110.493 163.123 103.546 161.621 96.25 161.621C88.9541 161.621 82.0159 163.123 75.4354 166.127C68.8548 169.131 63.0611 173.351 58.0541 178.787ZM96.25 132.558C92.7194 132.558 89.6894 131.296 87.1602 128.772C84.6367 126.243 83.375 123.21 83.375 119.674C83.375 116.138 84.6367 113.111 87.1602 110.593C89.6837 108.075 92.7136 106.816 96.25 106.816C99.7863 106.816 102.816 108.078 105.34 110.601C107.863 113.125 109.125 116.155 109.125 119.691C109.125 123.227 107.863 126.257 105.34 128.781C102.811 131.299 99.7806 132.558 96.25 132.558Z" fill="white"/>
</g>
</g>
<defs>
<clipPath id="clip0_47_46">
<rect width="245" height="245" fill="white"/>
</clipPath>
</defs>
</svg>
