<svg width="25" height="28" viewBox="0 0 25 28" fill="none" xmlns="http://www.w3.org/2000/svg">
    <path d="M25 9.716C24.9855 9.58739 24.9576 9.46068 24.9167 9.338V9.212C24.8499 9.06805 24.7608 8.93573 24.6528 8.82L16.3194 0.42C16.2046 0.311103 16.0734 0.221313 15.9306 0.154C15.8891 0.148064 15.847 0.148064 15.8056 0.154C15.6645 0.0724377 15.5086 0.0200819 15.3472 0H9.72222C8.61715 0 7.55735 0.442499 6.77594 1.23015C5.99454 2.0178 5.55556 3.08609 5.55556 4.2V5.6H4.16667C3.0616 5.6 2.00179 6.0425 1.22039 6.83015C0.438987 7.6178 0 8.68609 0 9.8V23.8C0 24.9139 0.438987 25.9822 1.22039 26.7698C2.00179 27.5575 3.0616 28 4.16667 28H15.2778C16.3828 28 17.4427 27.5575 18.2241 26.7698C19.0055 25.9822 19.4444 24.9139 19.4444 23.8V22.4H20.8333C21.9384 22.4 22.9982 21.9575 23.7796 21.1698C24.561 20.3822 25 19.3139 25 18.2V9.8V9.716ZM16.6667 4.774L20.2639 8.4H18.0556C17.6872 8.4 17.3339 8.2525 17.0735 7.98995C16.813 7.7274 16.6667 7.3713 16.6667 7V4.774ZM16.6667 23.8C16.6667 24.1713 16.5203 24.5274 16.2599 24.79C15.9994 25.0525 15.6461 25.2 15.2778 25.2H4.16667C3.79831 25.2 3.44504 25.0525 3.18457 24.79C2.92411 24.5274 2.77778 24.1713 2.77778 23.8V9.8C2.77778 9.4287 2.92411 9.0726 3.18457 8.81005C3.44504 8.5475 3.79831 8.4 4.16667 8.4H5.55556V18.2C5.55556 19.3139 5.99454 20.3822 6.77594 21.1698C7.55735 21.9575 8.61715 22.4 9.72222 22.4H16.6667V23.8ZM22.2222 18.2C22.2222 18.5713 22.0759 18.9274 21.8154 19.1899C21.555 19.4525 21.2017 19.6 20.8333 19.6H9.72222C9.35387 19.6 9.0006 19.4525 8.74013 19.1899C8.47966 18.9274 8.33333 18.5713 8.33333 18.2V4.2C8.33333 3.8287 8.47966 3.4726 8.74013 3.21005C9.0006 2.9475 9.35387 2.8 9.72222 2.8H13.8889V7C13.8889 8.11391 14.3279 9.1822 15.1093 9.96985C15.8907 10.7575 16.9505 11.2 18.0556 11.2H22.2222V18.2Z" fill="white"/>
</svg>

