<svg width="151" height="121" viewBox="0 0 151 121" fill="none" xmlns="http://www.w3.org/2000/svg">
<path id="learnIcon" d="M75.5 60.4L19.177 37.901L22.65 120.8H7.55L11.174 34.6545L0 30.2L75.5 0L151 30.2L75.5 60.4ZM75.5 22.65C71.3475 22.65 67.95 24.311 67.95 26.425C67.95 28.539 71.3475 30.2 75.5 30.2C79.6525 30.2 83.05 28.539 83.05 26.425C83.05 24.311 79.6525 22.65 75.5 22.65ZM75.5 67.95L117.554 51.1135C122.914 58.2105 126.614 66.742 127.822 76.0285C125.557 75.7265 123.216 75.5 120.8 75.5C101.548 75.5 84.711 85.8435 75.5 101.246C70.8224 93.4012 64.1892 86.9051 56.2489 82.3923C48.3086 77.8796 39.3331 75.5048 30.2 75.5C27.784 75.5 25.4435 75.7265 23.1785 76.0285C24.3865 66.742 28.086 58.2105 33.4465 51.1135L75.5 67.95Z" fill="#B3B3B3"/>
</svg>
