<?xml version="1.0" encoding="UTF-8"?>
<svg version="1.1" xmlns="http://www.w3.org/2000/svg" width="2000" height="776">
<path d="M0 0 C1.23034013 -0.00467997 2.46068027 -0.00935994 3.72830343 -0.01418173 C7.12683442 -0.02404898 10.52486518 -0.02053646 13.92336535 -0.01122308 C17.59486754 -0.00441956 21.26632684 -0.01492026 24.93782043 -0.02316284 C32.12372064 -0.03648851 39.30952673 -0.03362765 46.49543059 -0.02492492 C52.33661713 -0.01814418 58.17777733 -0.01723334 64.01896667 -0.02049637 C64.85095671 -0.02095607 65.68294674 -0.02141577 66.54014859 -0.0218894 C68.23042747 -0.02284859 69.92070635 -0.02382123 71.61098522 -0.02480717 C87.45319189 -0.03335765 103.29534645 -0.02353231 119.13754457 -0.00740607 C132.72490119 0.0059968 146.31218091 0.00366861 159.89953613 -0.01016235 C175.68583965 -0.02622422 191.47209752 -0.0325337 207.25840807 -0.02332556 C208.94239838 -0.02236994 210.6263887 -0.02142682 212.31037903 -0.02049637 C213.55314642 -0.01980213 213.55314642 -0.01980213 214.82102022 -0.01909386 C220.65381855 -0.0165058 226.48658787 -0.02087102 232.31938171 -0.02793503 C239.42958289 -0.03635696 246.53968474 -0.03405533 253.64987457 -0.0180928 C257.276204 -0.01021938 260.90236793 -0.00710252 264.52869606 -0.01704025 C268.46233912 -0.02765697 272.39571236 -0.01496277 276.3293457 0 C277.47176145 -0.00669217 278.6141772 -0.01338433 279.79121161 -0.02027929 C289.06112765 0.04816905 295.86415499 1.58043307 302.66467285 8.38095093 C306.60538883 13.87025497 307.78689583 18.98339899 307.79610062 25.64064407 C307.79994176 26.6865843 307.80378291 27.73252453 307.80774045 28.81015992 C307.80687397 29.95285018 307.80600749 31.09554043 307.80511475 32.27285767 C307.80957143 34.10121395 307.80957143 34.10121395 307.81411815 35.96650672 C307.82129127 39.34692062 307.82397691 42.72728369 307.82471561 46.10770154 C307.82656869 49.75472408 307.83411728 53.40173565 307.84085083 57.04875183 C307.85442409 65.02194474 307.86045722 72.99513261 307.86486149 80.96833515 C307.86762546 85.94799468 307.87186309 90.92765227 307.87636566 95.90731049 C307.88855673 109.6980642 307.89885655 123.48881636 307.90224075 137.27957535 C307.90246032 138.16195145 307.90267989 139.04432755 307.9029061 139.95344232 C307.90312438 140.83791213 307.90334266 141.72238195 307.90356755 142.63365388 C307.90401102 144.42588441 307.90445758 146.21811493 307.90490723 148.01034546 C307.90512866 148.89935097 307.90535009 149.78835649 307.90557823 150.70430157 C307.90952605 165.10858119 307.92698031 179.51281022 307.95026675 193.9170703 C307.97398869 208.7102664 307.98644298 223.50343713 307.98760867 238.29665256 C307.98852493 246.60067167 307.99426484 254.90462485 308.01242828 263.20862579 C308.0278406 270.2796988 308.03294305 277.35068548 308.02469018 284.42177209 C308.02078775 288.02796138 308.02169326 291.6339769 308.03574753 295.24014473 C308.05086067 299.15387435 308.04260791 303.06736041 308.03216553 306.98110962 C308.04425013 308.68176067 308.04425013 308.68176067 308.05657887 310.41676831 C308.00832609 318.15182942 307.21180018 325.36105087 302.41467285 331.69345093 C296.2139685 337.75323018 290.12391456 339.61082816 281.64025879 339.51473999 C275.82024184 339.25305889 270.06345268 338.50972886 264.28967285 337.75595093 C263.61715485 337.66825439 262.94463684 337.58055786 262.2517395 337.49020386 C224.00617488 332.43719507 186.63864355 321.52655245 152.49963379 303.34481812 C150.60302259 302.34856731 148.68821828 301.39754342 146.76623535 300.45126343 C129.34521338 291.73970487 112.90177019 280.49005938 97.66467285 268.38095093 C96.76361816 267.67067749 95.86256348 266.96040405 94.9342041 266.22860718 C88.42312677 261.00321508 82.26499906 255.43531158 76.15539551 249.7539978 C73.74824022 247.53686035 71.29443155 245.37177195 68.85217285 243.19345093 C65.14036472 239.820524 61.73752706 236.38070369 58.51623535 232.54110718 C56.27440738 229.92564121 53.90461557 227.44810928 51.53967285 224.94345093 C44.66879608 217.54487359 38.636025 209.5116044 32.66467285 201.38095093 C32.05027344 200.54442993 32.05027344 200.54442993 31.42346191 199.69100952 C-3.69646137 151.39730756 -36.71252068 79.68095714 -31.33532715 18.38095093 C-29.88197579 12.51501471 -27.08163028 8.54242536 -22.50720215 4.67001343 C-15.0773992 0.2602383 -8.45557713 -0.04953198 0 0 Z " fill="#666" transform="translate(66.3353271484375,404.6190490722656)"/>
<path d="M0 0 C20.7447781 10.75719395 40.54161352 24.07700355 58.33618164 39.21142578 C59.3171582 40.00806641 60.29813477 40.80470703 61.30883789 41.62548828 C69.35341266 48.22889646 76.77750898 55.4384553 84.14868164 62.77392578 C84.63655151 63.25661926 85.12442139 63.73931274 85.6270752 64.2366333 C92.32765951 70.88110212 98.46304394 77.82434326 104.33618164 85.21142578 C105.31273417 86.3852678 106.29263439 87.5563427 107.27758789 88.72314453 C120.92427915 105.13854441 132.50109459 123.28667629 142.33618164 142.21142578 C142.68052246 142.86449707 143.02486328 143.51756836 143.37963867 144.19042969 C162.68764192 180.93554136 190.88123534 245.01468959 179.53540039 287.18798828 C176.7234516 293.5849302 172.50241381 297.08212069 166.33618164 300.21142578 C163.3378894 301.21085653 161.35802584 301.33956495 158.22608662 301.34564686 C157.16261141 301.3501047 156.09913621 301.35456255 155.00343448 301.35915548 C153.83089073 301.35897111 152.65834698 301.35878675 151.45027161 301.3585968 C150.20786939 301.36227349 148.96546717 301.36595018 147.6854164 301.36973828 C144.23014604 301.37886837 140.7749232 301.38347552 137.31964529 301.38612759 C133.59557632 301.39002981 129.87152112 301.39960821 126.14746094 301.40834045 C117.15045231 301.4281073 108.15344255 301.4381714 99.15641764 301.44706824 C94.92012635 301.45145083 90.68383631 301.45681772 86.44754601 301.46205711 C72.36606639 301.47906969 58.28458756 301.493564 44.20309925 301.50080585 C40.54848543 301.50271577 36.89387161 301.5046361 33.23925781 301.5065918 C32.3309153 301.50707554 31.42257278 301.50755928 30.48670473 301.50805768 C15.77121358 301.51635848 1.0558037 301.54169611 -13.65965196 301.57417247 C-28.76579297 301.60723941 -43.87189268 301.62525429 -58.97807008 301.6284501 C-67.46040372 301.63061554 -75.94261884 301.63936925 -84.42491722 301.66491127 C-91.64869537 301.68661329 -98.87232621 301.69467118 -106.09613325 301.68494449 C-109.78122026 301.68039829 -113.4660033 301.68230424 -117.15104866 301.70170593 C-121.14857653 301.72257086 -125.1454297 301.71235724 -129.14299011 301.69917297 C-130.30438025 301.71014222 -131.46577039 301.72111147 -132.66235417 301.73241311 C-140.30465885 301.6714963 -145.77460957 300.63513082 -151.68725586 295.43017578 C-152.13327148 294.86298828 -152.57928711 294.29580078 -153.03881836 293.71142578 C-153.50030273 293.14423828 -153.96178711 292.57705078 -154.43725586 291.99267578 C-159.42561338 284.74843683 -158.80915935 276.78231483 -158.79753113 268.306427 C-158.79979668 267.09821348 -158.80206224 265.88999996 -158.80439645 264.64517391 C-158.80962673 261.29929125 -158.81038218 257.95346239 -158.80920208 254.60757947 C-158.80899779 250.99604232 -158.81451947 247.38451315 -158.81925964 243.77297974 C-158.82756043 236.70046729 -158.83031422 229.62796319 -158.83087202 222.55544628 C-158.83134741 216.80622848 -158.83340332 211.05701342 -158.83657265 205.30779648 C-158.84537734 189.00386087 -158.84999226 172.69993184 -158.84924217 156.39599384 C-158.84920222 155.51733736 -158.84916226 154.63868088 -158.84912109 153.73339844 C-158.84908021 152.85366796 -158.84903933 151.97393748 -158.84899721 151.0675485 C-158.8485907 136.80816576 -158.85816197 122.54880943 -158.87225946 108.28943433 C-158.88662404 93.64424315 -158.89352961 78.99906486 -158.89266568 64.35386646 C-158.89233376 56.1331889 -158.89507878 47.91253903 -158.90584373 39.69186783 C-158.91494976 32.69326606 -158.91712311 25.69470454 -158.91033431 18.69609942 C-158.90706974 15.12651877 -158.90701014 11.55701532 -158.91568756 7.98744202 C-158.92500418 4.11505623 -158.91877492 0.24278312 -158.91105652 -3.62960815 C-158.91620008 -4.7539334 -158.92134364 -5.87825865 -158.92664307 -7.03665435 C-158.88599298 -16.25880423 -158.1461696 -24.33642877 -151.24584961 -31.19873047 C-120.06961834 -58.68831228 -30.21643614 -15.27397507 0 0 Z " fill="#666" transform="translate(586.663818359375,51.78857421875)"/>
<path d="M0 0 C0.73033447 -0.02618408 1.46066895 -0.05236816 2.21313477 -0.0793457 C8.60662337 -0.09912618 13.56069276 1.94963843 18.48828125 6.015625 C18.92527344 6.54671875 19.36226563 7.0778125 19.8125 7.625 C20.48732422 8.40617187 20.48732422 8.40617187 21.17578125 9.203125 C25.66099899 16.55941133 25.93214317 23.24604004 25.88768005 31.65890503 C25.89575836 33.4961732 25.89575836 33.4961732 25.90399987 35.3705579 C25.91579764 38.75382074 25.91422408 42.13658861 25.90683305 45.51983142 C25.90209247 49.17501766 25.91461911 52.83015168 25.92485046 56.48532104 C25.94202668 63.63980182 25.94288089 70.79419472 25.93763756 77.94869076 C25.93359226 83.76554781 25.93504369 89.58237895 25.94038582 95.39923477 C25.94113424 96.227872 25.94188266 97.05650922 25.94265376 97.91025666 C25.94418528 99.59376708 25.94572363 101.2772775 25.94726873 102.96078791 C25.96098963 118.74057889 25.95555907 134.52032027 25.94408352 150.30011012 C25.93415261 164.72618227 25.94709006 179.15212614 25.97101771 193.57817851 C25.99541926 208.40199608 26.00501392 223.22575393 25.99836498 238.04959118 C25.99487498 246.3675803 25.99709034 254.68547077 26.01461601 263.00344467 C26.02935125 270.08469662 26.02995628 277.16578048 26.0125451 284.24702917 C26.00404333 287.85745397 26.00186502 291.46757867 26.01719666 295.07798767 C26.03363583 298.99785393 26.01887215 302.91725914 26.00120544 306.83712769 C26.01081045 307.9698268 26.02041546 309.10252592 26.03031152 310.26954925 C25.95624558 318.26906543 24.6678645 325.4450846 19.53515625 331.8125 C18.88417969 332.328125 18.23320312 332.84375 17.5625 333.375 C16.91410156 333.91125 16.26570313 334.4475 15.59765625 335 C11.52663826 337.66852576 7.98925615 338.62485107 3.14380932 338.63226891 C2.07635202 338.6387178 1.00889471 338.64516669 -0.09090978 338.651811 C-1.25762784 338.6487138 -2.42434591 338.6456166 -3.62641907 338.64242554 C-4.87053014 338.64695665 -6.1146412 338.65148776 -7.39645261 338.65615618 C-10.84726002 338.66662988 -14.29785908 338.66812545 -17.7486676 338.66576743 C-21.47134576 338.66535933 -25.19399282 338.6763978 -28.91665649 338.68588257 C-36.20922308 338.70249501 -43.50175732 338.70799223 -50.79434124 338.70910732 C-56.72236222 338.7100577 -62.65037252 338.71416745 -68.57839012 338.72050858 C-85.38627565 338.73812177 -102.19413564 338.74734734 -119.00203047 338.74584763 C-119.90813532 338.74576772 -120.81424016 338.7456878 -121.74780273 338.74560547 C-123.10862001 338.74548283 -123.10862001 338.74548283 -124.49692854 338.74535771 C-139.19936459 338.74454482 -153.90169819 338.76368301 -168.60410462 338.7918822 C-183.70127452 338.82061 -198.79839446 338.83442255 -213.89559239 338.83269465 C-222.37118206 338.8320307 -230.84666433 338.83752494 -239.32222939 338.85905075 C-246.5386477 338.8772612 -253.75490994 338.88161106 -260.97134129 338.8680319 C-264.65238577 338.86150146 -268.3331308 338.86138745 -272.0141468 338.8787384 C-276.00720119 338.89736639 -279.99956218 338.88491673 -283.99263 338.86947632 C-285.1526559 338.87976344 -286.3126818 338.89005057 -287.50786 338.90064943 C-295.72476251 338.83036478 -301.08209985 337.33718013 -307.3125 331.9375 C-313.76057272 324.38404339 -313.87460785 317.99039046 -313.5 308.375 C-313.10073074 303.50018481 -312.51441614 298.66120118 -311.875 293.8125 C-311.78730347 293.14336578 -311.69960693 292.47423157 -311.60925293 291.78482056 C-303.3239045 229.35433297 -277.30674332 169.440974 -236.5 121.375 C-235.68144531 120.37210937 -234.86289063 119.36921875 -234.01953125 118.3359375 C-227.71686117 110.69132771 -220.9216013 103.58730694 -213.9375 96.5625 C-212.64440918 95.25563232 -212.64440918 95.25563232 -211.32519531 93.92236328 C-205.35799162 87.9834027 -199.06975496 82.6317277 -192.5 77.375 C-191.46083798 76.49975298 -190.42572434 75.61962385 -189.3984375 74.73046875 C-163.31451976 52.32091094 -132.24708648 35.24418764 -100.5 22.375 C-99.71125488 22.05192871 -98.92250977 21.72885742 -98.10986328 21.39599609 C-74.83214008 11.97537641 -50.23864199 6.32220653 -25.5 2.375 C-24.29633789 2.17801514 -24.29633789 2.17801514 -23.06835938 1.97705078 C-15.40068535 0.75125446 -7.75569554 0.16261814 0 0 Z " fill="#666" transform="translate(348.5,12.625)"/>
<path d="M0 0 C3.97574202 3.86417783 6.69895733 7.96155807 7.25415033 13.56515473 C7.25610125 14.48435301 7.25805218 15.40355129 7.26006222 16.35060406 C7.2706606 17.94993991 7.2706606 17.94993991 7.2814731 19.58158559 C7.27905802 20.74693941 7.27664293 21.91229324 7.27415466 23.11296082 C7.27939134 24.35566075 7.28462802 25.59836069 7.29002339 26.8787182 C7.30243424 30.32566053 7.30586682 33.77239887 7.30542648 37.2193495 C7.30707534 40.93797965 7.3201432 44.65657271 7.33161926 48.37518311 C7.35446384 56.50546393 7.3623894 64.63571864 7.36744571 72.76602721 C7.37070358 77.84419312 7.37722664 82.92235145 7.3844471 88.00051308 C7.40401289 102.06491317 7.42041703 116.12930623 7.42332363 130.19372082 C7.4235112 131.09365102 7.42369877 131.99358123 7.42389202 132.92078205 C7.42425827 134.74510785 7.42462197 136.56943365 7.42498314 138.39375945 C7.42516595 139.29933885 7.42534876 140.20491825 7.42553711 141.13793945 C7.42580793 142.49796979 7.42580793 142.49796979 7.42608423 143.88547549 C7.42962509 158.57364918 7.45664201 173.26167619 7.494035 187.94979902 C7.53213271 203.03567901 7.55148122 218.12148625 7.55178314 233.2074154 C7.55236741 241.67527337 7.56083944 250.14295638 7.58978081 258.61076927 C7.61431438 265.82202845 7.62156438 273.03304889 7.60653328 280.24433853 C7.59937216 283.92164574 7.60018652 287.59848171 7.62294388 291.27573586 C7.64741457 295.26820919 7.63287593 299.25961402 7.61473083 303.25212097 C7.63453079 304.9834213 7.63453079 304.9834213 7.65473074 306.74969739 C7.57746565 314.20273215 6.1464969 319.7422004 2 326 C-0.31640625 328.25390625 -0.31640625 328.25390625 -2.5625 329.5625 C-3.30628906 330.01753906 -4.05007813 330.47257812 -4.81640625 330.94140625 C-8.62645685 332.78849697 -11.98548949 333.12627118 -16.19632149 333.13701439 C-17.25358755 333.14208893 -18.31085362 333.14716347 -19.40015805 333.15239179 C-21.1408852 333.15313843 -21.1408852 333.15313843 -22.91677856 333.15390015 C-24.15045697 333.1582824 -25.38413538 333.16266465 -26.65519798 333.1671797 C-30.08154274 333.17823909 -33.50784189 333.1847905 -36.9341979 333.18936086 C-40.62897761 333.19532205 -44.32374054 333.20693057 -48.01850891 333.21765137 C-56.94243274 333.2421631 -65.86636212 333.2568005 -74.79030925 333.26971143 C-77.31127589 333.27342419 -79.83224198 333.27739735 -82.35320807 333.2814641 C-98.01189532 333.30670088 -113.67058347 333.32875149 -129.32928658 333.34119225 C-132.95552702 333.34412188 -136.58176744 333.34708356 -140.20800781 333.35009766 C-141.10927898 333.35084371 -142.01055014 333.35158976 -142.93913256 333.35235842 C-157.53683221 333.36501012 -172.13441 333.39823151 -186.7320527 333.43989949 C-201.72297294 333.4823389 -216.71383082 333.50588957 -231.70481098 333.51111281 C-240.12015581 333.51452459 -248.5353102 333.52625229 -256.95059586 333.55921555 C-264.11795214 333.58724479 -271.28507892 333.59820281 -278.45248576 333.58702008 C-282.10751681 333.58184077 -285.76206747 333.584672 -289.41702843 333.60948563 C-293.38531926 333.63620082 -297.35295891 333.62389283 -301.32131958 333.60800171 C-302.46842002 333.6218838 -303.61552046 333.63576588 -304.79738152 333.65006864 C-312.22520623 333.57687859 -317.76924488 332.14601602 -324 328 C-326.25390625 325.61328125 -326.25390625 325.61328125 -327.5625 323.3125 C-328.01753906 322.54550781 -328.47257812 321.77851562 -328.94140625 320.98828125 C-340.88232636 298.5605014 -324.09327346 253.6650782 -317.3125 231.0625 C-299.02697351 172.30784318 -263.93134306 117.15937074 -217 77 C-216.08734375 76.19820313 -215.1746875 75.39640625 -214.234375 74.5703125 C-205.266483 66.7558889 -195.74713027 59.80689821 -186 53 C-185.34741211 52.54206055 -184.69482422 52.08412109 -184.02246094 51.61230469 C-169.20766454 41.27514347 -153.29431032 32.75975724 -137 25 C-135.98897217 24.51732666 -135.98897217 24.51732666 -134.95751953 24.02490234 C-107.29186505 10.95569136 -27.44766044 -23.26813033 0 0 Z " fill="#666" transform="translate(752,405)"/>
<path d="M0 0 C0.99 0 1.98 0 3 0 C9.19560102 13.83769161 15.1911581 27.74641475 21 41.75 C26.70381044 55.49892378 32.45423488 69.22706399 38.25 82.9375 C38.64192535 83.86480927 39.03385071 84.79211853 39.43765259 85.74752808 C41.45030136 90.50929896 43.46353672 95.27082152 45.47705078 100.03222656 C49.45592292 109.4422933 53.42858637 118.85498249 57.40197754 128.2673645 C59.43834414 133.09109369 61.47503901 137.91468427 63.51171875 142.73828125 C64.19360516 144.35327079 64.8754901 145.96826095 65.55737305 147.58325195 C66.27147339 149.27454224 66.27147339 149.27454224 67 151 C73.04798222 135.72637278 78.74010179 120.32107203 84.44335938 104.91650391 C87.31539382 97.15914077 90.19248965 89.4036548 93.0703125 81.6484375 C93.36036415 80.86669914 93.6504158 80.08496078 93.9492569 79.27953339 C98.04828802 68.23372583 102.16536176 57.19483337 106.3046875 46.1640625 C106.67323538 45.18189318 106.67323538 45.18189318 107.04922867 44.17988205 C109.58823035 37.41472365 112.13113719 30.65103792 114.67626953 23.88818359 C115.09151886 22.78364838 115.50676819 21.67911316 115.93460083 20.54110718 C116.70058971 18.50380493 117.46750331 16.46685 118.23556519 14.43032837 C118.74157761 13.08422989 118.74157761 13.08422989 119.2578125 11.7109375 C119.5480127 10.94056152 119.83821289 10.17018555 120.13720703 9.37646484 C121.14417661 6.60288198 122.06690035 3.79929896 123 1 C136.2 1 149.4 1 163 1 C161.12887512 7.23708294 159.26582621 13.20892025 156.875 19.22265625 C156.57605835 19.98456772 156.2771167 20.74647919 155.96911621 21.53147888 C155.32220617 23.17905593 154.67351211 24.82593341 154.02319336 26.47216797 C152.60235468 30.069185 151.19044601 33.66968786 149.7779541 37.26998901 C149.02309278 39.19392424 148.2677951 41.11768831 147.51208496 43.04129028 C143.54371162 53.14682585 139.62150075 63.270118 135.70214844 73.39474487 C129.1704722 90.26663898 122.61537378 107.12916938 116.03076172 123.98046875 C110.49688709 138.14451954 104.99384056 152.32037763 99.5 166.5 C93.69412484 181.48249476 87.88398246 196.46330045 82.04858398 211.43432617 C81.35758225 213.20744146 80.66698011 214.98071254 79.97680664 216.75415039 C79.02738974 219.19333509 78.07642461 221.63191034 77.125 224.0703125 C76.8508728 224.77531891 76.57674561 225.48032532 76.29431152 226.20669556 C74.61270731 230.50968923 72.84025125 234.76232563 71 239 C69.02 239 67.04 239 65 239 C62.20912664 233.5448139 59.68058791 228.05565472 57.33984375 222.39453125 C56.99792496 221.57446091 56.65600616 220.75439056 56.3037262 219.9094696 C55.56570667 218.13871295 54.8289235 216.3674406 54.09326172 214.59570312 C52.08757402 209.76578345 50.0724239 204.93981021 48.05859375 200.11328125 C47.64108856 199.11197174 47.22358337 198.11066223 46.79342651 197.07901001 C42.78424408 187.46904854 38.73517429 177.8761349 34.67852783 168.28613281 C27.7782777 151.97339689 20.90482937 135.64961728 14.0625 119.3125 C13.68109863 118.40258301 13.29969727 117.49266602 12.90673828 116.55517578 C6.34881557 100.90695009 6.34881557 100.90695009 3.49609375 93.91796875 C3.04834595 92.82198364 3.04834595 92.82198364 2.59155273 91.70385742 C2 90 2 90 2 88 C1.34 88 0.68 88 0 88 C-0.09482666 88.65210449 -0.18965332 89.30420898 -0.28735352 89.97607422 C-1.23148068 93.98222667 -2.79261416 97.60281353 -4.40234375 101.3828125 C-4.75124161 102.21259613 -5.10013947 103.04237976 -5.45960999 103.89730835 C-6.61463766 106.641693 -7.77612205 109.38329737 -8.9375 112.125 C-9.75374852 114.06164111 -10.56949558 115.99849365 -11.38476562 117.93554688 C-13.07992233 121.96208685 -14.77724003 125.9877056 -16.47607422 130.01269531 C-19.96658003 138.28711685 -23.43088605 146.57247316 -26.8951416 154.85791016 C-28.74793864 159.28857407 -30.60252878 163.71848721 -32.45703125 168.1484375 C-32.82609589 169.03013611 -33.19516052 169.91183472 -33.57540894 170.82025146 C-35.93476422 176.45649265 -38.29526858 182.09225148 -40.65646362 187.72772217 C-42.27750223 191.59677416 -43.89816366 195.46598409 -45.51879883 199.33520508 C-46.28228356 201.15771187 -47.04594761 202.98014356 -47.80981445 204.80249023 C-52.5809091 216.18497415 -57.31541957 227.58162366 -62 239 C-63.98 239 -65.96 239 -68 239 C-71.83834217 230.62543526 -75.19375564 222.07048358 -78.5625 213.5 C-79.21964116 211.83202967 -79.87678646 210.16406096 -80.53393555 208.49609375 C-86.65943074 192.93046395 -92.70047237 177.3321269 -98.73852539 161.73242188 C-104.49547598 146.86165152 -110.29308059 132.00723937 -116.11291504 117.16098022 C-120.34594293 106.36087153 -124.56612581 95.55602622 -128.75390625 84.73828125 C-129.15090225 83.71283707 -129.54789825 82.68739288 -129.95692444 81.63087463 C-131.55414909 77.50422006 -133.15097676 73.37741362 -134.7460022 69.24990845 C-139.10334023 57.97591339 -143.49467242 46.71732283 -147.9765625 35.4921875 C-148.37622726 34.48949326 -148.77589203 33.48679901 -149.18766785 32.45372009 C-151.09037653 27.68145568 -152.99993805 22.91215988 -154.92211914 18.14770508 C-155.59808568 16.45664954 -156.27380031 14.76549328 -156.94921875 13.07421875 C-157.26069855 12.30999603 -157.57217834 11.54577332 -157.89309692 10.75839233 C-159.29009211 7.24129114 -160 4.83890947 -160 1 C-147.13 1 -134.26 1 -121 1 C-113.10020984 21.52129399 -105.34713038 42.08560284 -97.74487305 62.71850586 C-97.01746089 64.69256235 -96.29000268 66.66660187 -95.5625 68.640625 C-95.19683426 69.63284561 -94.83116852 70.62506622 -94.454422 71.64735413 C-89.17689457 85.95672988 -83.83913895 100.24374562 -78.50732422 114.53295898 C-73.9764485 126.67827168 -69.46978124 138.83206329 -65 151 C-61.05207604 143.50315618 -57.74247344 135.78450967 -54.5291748 127.95217896 C-52.90184856 123.98871572 -51.25982397 120.03135654 -49.6171875 116.07421875 C-49.25749878 115.20760117 -48.89781006 114.34098358 -48.52722168 113.44810486 C-43.67714615 101.78755117 -38.70843577 90.17727197 -33.75 78.5625 C-27.94628249 64.96645413 -22.14521803 51.36962856 -16.40625 37.74609375 C-15.9658136 36.70078995 -15.5253772 35.65548615 -15.07159424 34.57850647 C-12.99490561 29.64808286 -10.92102361 24.71649892 -8.85058594 19.78344727 C-8.11397782 18.03269569 -7.37732672 16.28196219 -6.640625 14.53125 C-6.15003601 13.35851784 -6.15003601 13.35851784 -5.64953613 12.16209412 C-3.90743369 8.0270023 -2.05869191 3.99098677 0 0 Z " fill="#666" transform="translate(1385,443)"/>
<path d="M0 0 C1.65 0 3.3 0 5 0 C11.35817717 12.64496508 17.59979548 25.3455238 23.8125 38.0625 C24.54424438 39.55958496 24.54424438 39.55958496 25.29077148 41.08691406 C31.39467124 53.57703271 37.47120809 66.0781539 43.44140625 78.6328125 C46.57832954 85.22723886 49.75953233 91.8002923 52.9375 98.375 C59.80436401 112.58503154 66.63576105 126.81193536 73.45898438 141.04296875 C79.31007265 153.24510478 85.17510468 165.44034514 91.0625 177.625 C96.19222731 188.2423507 101.30353917 198.86825815 106.37890625 209.51171875 C108.21038817 213.35236883 110.05326983 217.18732092 111.90234375 221.01953125 C112.36995117 221.99212891 112.83755859 222.96472656 113.31933594 223.96679688 C114.21148849 225.82242324 115.1065347 227.67666199 116.00488281 229.52929688 C116.5960791 230.76196289 116.5960791 230.76196289 117.19921875 232.01953125 C117.72261841 233.10391479 117.72261841 233.10391479 118.2565918 234.21020508 C119 236 119 236 119 238 C104.81 238 90.62 238 76 238 C73.28895742 231.93327783 70.58133572 225.865264 67.88232422 219.79321289 C66.96276965 217.72721965 66.04122798 215.66210968 65.11767578 213.59790039 C63.79198544 210.63396436 62.47342914 207.66694514 61.15625 204.69921875 C60.74064819 203.7741301 60.32504639 202.84904144 59.89685059 201.8959198 C59.32625916 200.60492119 59.32625916 200.60492119 58.74414062 199.2878418 C58.40660767 198.53061325 58.06907471 197.7733847 57.72131348 196.99320984 C57 195 57 195 57 192 C21.03 192 -14.94 192 -52 192 C-52.99 194.97 -53.98 197.94 -55 201 C-55.57735017 202.48302496 -56.17384626 203.95915102 -56.80932617 205.41821289 C-57.13380737 206.16832642 -57.45828857 206.91843994 -57.79260254 207.69128418 C-58.12272339 208.44413696 -58.45284424 209.19698975 -58.79296875 209.97265625 C-59.26023376 211.05009094 -59.26023376 211.05009094 -59.73693848 212.14929199 C-60.88297001 214.78883617 -62.0356042 217.4255097 -63.1875 220.0625 C-65.765625 225.981875 -68.34375 231.90125 -71 238 C-84.86 238 -98.72 238 -113 238 C-110.75048233 231.25144698 -110.75048233 231.25144698 -109.3269043 228.36669922 C-109.00810806 227.71561188 -108.68931183 227.06452454 -108.3608551 226.39370728 C-107.84772011 225.35964249 -107.84772011 225.35964249 -107.32421875 224.3046875 C-106.96315536 223.56866302 -106.60209198 222.83263855 -106.23008728 222.0743103 C-105.45550743 220.49546996 -104.67940427 218.91737621 -103.9019165 217.33996582 C-101.8327622 213.1400932 -99.77667422 208.93385462 -97.72265625 204.7265625 C-97.31202942 203.8854895 -96.90140259 203.0444165 -96.47833252 202.17785645 C-93.1011713 195.24319275 -89.83843263 188.26218611 -86.625 181.25 C-80.8488312 168.66597006 -74.77408291 156.23695017 -68.67877197 143.80529785 C-63.50694177 133.25231574 -58.39815575 122.68337907 -53.5 112 C-48.18490912 100.40724273 -42.61401965 88.95022251 -37 77.5 C-30.73321768 64.71758972 -24.56315983 51.90736674 -18.6184082 38.97167969 C-12.5979048 25.8920796 -6.29842552 12.94747622 0 0 Z M2 71 C1.48840332 72.15371094 0.97680664 73.30742188 0.44970703 74.49609375 C-1.53992437 78.98206899 -3.53074996 83.46751336 -5.52209473 87.95272827 C-6.42223109 89.98018737 -7.32221543 92.00771396 -8.2220459 94.03530884 C-13.22798545 105.31283676 -18.25066701 116.58220736 -23.3359375 127.82421875 C-23.75426849 128.7497757 -24.17259949 129.67533264 -24.60360718 130.62893677 C-26.60172672 135.04851002 -28.60409714 139.46608316 -30.61279297 143.88085938 C-31.33053729 145.46608533 -32.04815531 147.05136848 -32.765625 148.63671875 C-33.09589691 149.35856857 -33.42616882 150.0804184 -33.76644897 150.82414246 C-35.4333921 154.27375676 -35.4333921 154.27375676 -36 158 C-10.59 158 14.82 158 41 158 C38.99838676 151.99516028 36.96735969 146.40390964 34.33203125 140.70703125 C33.60323103 139.10812845 32.87455819 137.50916758 32.14599609 135.91015625 C31.76529968 135.07887207 31.38460327 134.24758789 30.99237061 133.39111328 C24.03972289 118.19606592 17.3262175 102.91458557 10.875 87.5 C10.34841293 86.2417894 10.34841293 86.2417894 9.81118774 84.9581604 C7.86713089 80.30833148 5.93026178 75.65557154 4 71 C3.34 71 2.68 71 2 71 Z " fill="#666" transform="translate(937,444)"/>
<path d="M0 0 C34.65 0 69.3 0 105 0 C105 10.89 105 21.78 105 33 C82.56 33 60.12 33 37 33 C37 54.45 37 75.9 37 98 C55.15 98 73.3 98 92 98 C92 108.89 92 119.78 92 131 C73.85 131 55.7 131 37 131 C37 155.75 37 180.5 37 206 C63.07 206 89.14 206 116 206 C116 216.56 116 227.12 116 238 C77.72 238 39.44 238 0 238 C0 159.46 0 80.92 0 0 Z " fill="#666" transform="translate(1569,444)"/>
<path d="M0 0 C20.58337141 -0.02254553 41.16673288 -0.0409783 61.75011349 -0.05181217 C71.30663939 -0.05697551 80.86315709 -0.06401892 90.41967773 -0.07543945 C98.74602007 -0.08538514 107.07235648 -0.09185315 115.39870459 -0.09408849 C119.81024857 -0.0953958 124.22177557 -0.09848288 128.63331413 -0.10573006 C132.78070387 -0.11248846 136.92806953 -0.11461733 141.07546425 -0.11310768 C142.6021373 -0.11338409 144.12881112 -0.11539028 145.65547943 -0.11920547 C147.73083459 -0.12413994 149.80609742 -0.12299923 151.88145447 -0.12025452 C153.62779128 -0.12163721 153.62779128 -0.12163721 155.40940762 -0.12304783 C158 0 158 0 159 1 C159.08838648 3.37541051 159.11537523 5.7223358 159.09765625 8.09765625 C159.09515869 9.39453369 159.09266113 10.69141113 159.09008789 12.02758789 C159.08098389 13.68910889 159.07187988 15.35062988 159.0625 17.0625 C159.041875 22.321875 159.02125 27.58125 159 33 C138.54 33 118.08 33 97 33 C97 100.65 97 168.3 97 238 C84.79 238 72.58 238 60 238 C60 170.35 60 102.7 60 33 C40.2 33 20.4 33 0 33 C0 22.11 0 11.22 0 0 Z " fill="#666" transform="translate(1060,444)"/>
<path d="M0 0 C12.54 0 25.08 0 38 0 C38 67.65 38 135.3 38 205 C60.44 205 82.88 205 106 205 C106 215.89 106 226.78 106 238 C71.02 238 36.04 238 0 238 C0 159.46 0 80.92 0 0 Z " fill="#666" transform="translate(1720,444)"/>
<path d="M0 0 C12.21 0 24.42 0 37 0 C37 67.65 37 135.3 37 205 C59.44 205 81.88 205 105 205 C105 215.89 105 226.78 105 238 C70.02 238 35.04 238 -1 238 C-1.04030303 178.60676191 -1.04030303 178.60676191 -1.04882812 153.80273438 C-1.05078613 148.13435869 -1.05280666 142.46598304 -1.05493164 136.79760742 C-1.05519539 136.08712358 -1.05545914 135.37663974 -1.05573088 134.64462608 C-1.06008566 123.15950511 -1.06797248 111.67438912 -1.0771528 100.1892711 C-1.08648913 88.41114733 -1.09205557 76.63302618 -1.09408849 64.85489887 C-1.09539605 58.23564886 -1.09848473 51.61641017 -1.10573006 44.99716377 C-1.11248612 38.77485487 -1.11461781 32.55256201 -1.11310768 26.33024979 C-1.1133842 24.03922501 -1.11539176 21.74819973 -1.11920547 19.45717812 C-1.12413627 16.34399563 -1.12300057 13.23087477 -1.12025452 10.11769104 C-1.12316736 9.19844914 -1.1260802 8.27920723 -1.12908131 7.33210951 C-1.11412121 1.11412121 -1.11412121 1.11412121 0 0 Z " fill="#FFFFFF" transform="translate(1860,444)"/>
</svg>
