<svg width="239" height="239" viewBox="0 0 239 239" fill="none" xmlns="http://www.w3.org/2000/svg">
<path d="M10.7363 55.5488V183.451H228.264V55.5488H10.7363ZM18.2051 63.0176H220.795V175.982H18.2051V63.0176ZM51.9475 71.4199C51.033 77.8169 48.0691 83.7449 43.5003 88.3147C38.9315 92.8845 33.0042 95.8497 26.6074 96.7656V142.24C33.0044 143.154 38.9324 146.118 43.5022 150.687C48.072 155.256 51.0372 161.183 51.9531 167.58H187.053C187.967 161.183 190.931 155.255 195.5 150.685C200.069 146.116 205.996 143.15 212.393 142.234V96.76C205.996 95.8455 200.068 92.8816 195.498 88.3128C190.928 83.744 187.963 77.8167 187.047 71.4199H51.9475ZM119.5 82.1562C125.443 82.1563 131.142 86.0907 135.344 93.094C139.546 100.097 141.906 109.596 141.906 119.5C141.906 129.404 139.546 138.903 135.344 145.906C131.142 152.909 125.443 156.844 119.5 156.844C113.557 156.844 107.858 152.909 103.656 145.906C99.4544 138.903 97.0938 129.404 97.0938 119.5C97.0938 109.596 99.4544 100.097 103.656 93.094C107.858 86.0907 113.557 82.1562 119.5 82.1562ZM115.299 97.0938V103.656C112.792 104.391 110.65 105.587 108.873 107.243C105.677 110.224 104.079 114.313 104.079 119.51C104.079 124.652 105.648 128.727 108.787 131.736C110.588 133.456 112.76 134.679 115.298 135.411V141.906H123.701V136.155C125.304 136.052 126.896 135.824 128.463 135.472C130.696 134.968 132.863 134.207 134.921 133.205V117.696H121.962V123.268H127.037V129.532C126.447 129.763 125.778 129.936 125.029 130.051C124.234 130.156 123.433 130.206 122.631 130.202C119.449 130.202 116.994 129.273 115.266 127.415C113.538 125.558 112.674 122.923 112.674 119.51C112.674 116.069 113.566 113.426 115.351 111.583C117.151 109.726 119.708 108.797 123.02 108.797C124.805 108.798 126.583 109.05 128.354 109.553C130.14 110.058 131.933 110.821 133.733 111.844V105.168C131.991 104.377 130.133 103.78 128.16 103.376C126.69 103.077 125.199 102.89 123.7 102.817V97.0938H115.298H115.299ZM59.75 112.031C61.7308 112.031 63.6305 112.818 65.0312 114.219C66.4319 115.619 67.2188 117.519 67.2188 119.5C67.2188 121.481 66.4319 123.381 65.0312 124.781C63.6305 126.182 61.7308 126.969 59.75 126.969C57.7692 126.969 55.8695 126.182 54.4688 124.781C53.0681 123.381 52.2812 121.481 52.2812 119.5C52.2812 117.519 53.0681 115.619 54.4688 114.219C55.8695 112.818 57.7692 112.031 59.75 112.031ZM179.25 112.031C181.231 112.031 183.131 112.818 184.531 114.219C185.932 115.619 186.719 117.519 186.719 119.5C186.719 121.481 185.932 123.381 184.531 124.781C183.131 126.182 181.231 126.969 179.25 126.969C177.269 126.969 175.369 126.182 173.969 124.781C172.568 123.381 171.781 121.481 171.781 119.5C171.781 117.519 172.568 115.619 173.969 114.219C175.369 112.818 177.269 112.031 179.25 112.031Z" fill="#086A00" fill-opacity="0.8"/>
</svg>


