<svg width="28" height="35" viewBox="0 0 28 35" fill="none" xmlns="http://www.w3.org/2000/svg">
<path d="M2.96875 3.54897V31.0927L9.65238 21.9423C10.105 21.3229 10.6974 20.8191 11.3814 20.4718C12.0655 20.1245 12.8218 19.9435 13.5889 19.9436H23.9471L2.96875 3.54897ZM0.53125 2.24857C0.53125 0.745847 2.26187 -0.0987468 3.44528 0.827503L26.5906 18.9138C28.0433 20.0484 27.2414 22.3799 25.3974 22.3799H13.5877C13.2044 22.38 12.8264 22.4706 12.4846 22.6443C12.1429 22.8179 11.8468 23.0697 11.6207 23.3793L4.03394 33.7667C2.92731 35.2816 0.53125 34.4991 0.53125 32.6247V2.24857Z" fill="#808080"/>
</svg>
