<!-- <svg width="176" height="176" viewBox="0 0 176 176" fill="none" xmlns="http://www.w3.org/2000/svg">
<path d="M92.3742 133.815L93.6598 143.681H83.0414L84.327 133.815C84.327 132.748 84.7509 131.724 85.5055 130.97C86.2601 130.215 87.2835 129.791 88.3506 129.791C89.4177 129.791 90.4412 130.215 91.1957 130.97C91.9503 131.724 92.3742 132.748 92.3742 133.815ZM104.007 109.123C102.001 109.123 100.041 109.718 98.3729 110.832C96.7053 111.947 95.4055 113.53 94.638 115.383C93.8705 117.236 93.6697 119.275 94.0609 121.242C94.4522 123.21 95.418 125.016 96.8362 126.435C98.2544 127.853 100.061 128.819 102.028 129.21C103.995 129.601 106.034 129.4 107.887 128.633C109.74 127.865 111.324 126.566 112.438 124.898C113.553 123.23 114.147 121.27 114.147 119.264C114.147 117.932 113.885 116.613 113.375 115.383C112.865 114.152 112.118 113.034 111.176 112.092C110.234 111.151 109.116 110.404 107.885 109.894C106.654 109.385 105.335 109.123 104.003 109.123H104.007ZM71.5567 109.123C69.5511 109.123 67.5905 109.718 65.9229 110.832C64.2553 111.947 62.9555 113.53 62.188 115.383C61.4205 117.236 61.2197 119.275 61.6109 121.242C62.0022 123.21 62.968 125.016 64.3862 126.435C65.8044 127.853 67.6113 128.819 69.5784 129.21C71.5455 129.601 73.5844 129.4 75.4374 128.633C77.2903 127.865 78.8741 126.566 79.9883 124.898C81.1026 123.23 81.6973 121.27 81.6973 119.264C81.6973 117.932 81.4349 116.613 80.9251 115.383C80.4153 114.152 79.668 113.034 78.726 112.092C77.784 111.151 76.6657 110.404 75.435 109.894C74.2043 109.385 72.8853 109.123 71.5533 109.123H71.5567ZM156.02 87.811C156.02 121.567 139.444 150.607 115.667 163.518C99.8542 173.233 76.902 173.233 61.9764 164.378C37.3227 151.931 19.9805 122.341 19.9805 87.8144C19.9805 60.9469 30.4786 37.0666 46.7552 21.9278C46.7552 21.9278 32.2902 50.411 49.8833 68.3341C45.8717 8.60064 108.073 46.6778 90.4458 5.08408C142.624 33.7288 93.5877 41.1778 119.355 56.0313C119.355 56.0313 142.115 72.1875 131.868 24.4991C146.632 39.6206 156.016 62.4147 156.016 87.8144L156.02 87.811ZM132.459 98.0788C131.617 75.5666 113.594 56.9697 91.1195 55.4297C90.0677 55.3575 89.0055 55.3231 87.9708 55.3231C76.1748 55.3204 64.8608 60.0032 56.5172 68.3417C48.1736 76.6801 43.4838 87.9912 43.4792 99.7872C43.5264 109.156 46.4692 118.281 51.9045 125.912V134.506C51.9324 137.663 53.2001 140.682 55.4341 142.913C57.6681 145.144 60.6894 146.407 63.8464 146.431H65.9983V152.14C66.0228 155.287 67.2912 158.296 69.5267 160.511C71.7621 162.726 74.783 163.967 77.9298 163.962H99.1667C102.307 163.965 105.319 162.721 107.543 160.505C109.768 158.289 111.021 155.28 111.03 152.14V146.431H112.879C116.035 146.406 119.055 145.138 121.283 142.902C123.511 140.666 124.767 137.642 124.78 134.485V124.86C130.141 116.987 132.832 107.6 132.455 98.0822L132.459 98.0788Z" fill="#CFA007" fill-opacity="0.75"/>
</svg> -->

<svg width="19" height="19" viewBox="0 0 19 19" fill="none" xmlns="http://www.w3.org/2000/svg">
<path d="M9.97222 14.4459L10.111 15.511H8.9647L9.10349 14.4459C9.10349 14.3307 9.14925 14.2203 9.23071 14.1388C9.31217 14.0573 9.42265 14.0116 9.53785 14.0116C9.65305 14.0116 9.76354 14.0573 9.84499 14.1388C9.92645 14.2203 9.97222 14.3307 9.97222 14.4459ZM11.228 11.7804C11.0115 11.7804 10.7998 11.8446 10.6198 11.9649C10.4398 12.0852 10.2995 12.2561 10.2166 12.4562C10.1337 12.6562 10.1121 12.8763 10.1543 13.0887C10.1965 13.301 10.3008 13.4961 10.4539 13.6492C10.607 13.8023 10.8021 13.9066 11.0144 13.9488C11.2268 13.991 11.4469 13.9694 11.6469 13.8865C11.847 13.8036 12.0179 13.6633 12.1382 13.4833C12.2585 13.3033 12.3227 13.0916 12.3227 12.8751C12.3227 12.7313 12.2944 12.5889 12.2394 12.4561C12.1843 12.3232 12.1036 12.2025 12.002 12.1009C11.9003 11.9992 11.7795 11.9186 11.6467 11.8636C11.5138 11.8086 11.3714 11.7803 11.2276 11.7804H11.228ZM7.72487 11.7804C7.50836 11.7804 7.2967 11.8446 7.11668 11.9649C6.93665 12.0852 6.79633 12.2561 6.71348 12.4562C6.63062 12.6562 6.60894 12.8763 6.65118 13.0887C6.69342 13.301 6.79768 13.4961 6.95078 13.6492C7.10388 13.8023 7.29895 13.9066 7.5113 13.9488C7.72366 13.991 7.94377 13.9694 8.14381 13.8865C8.34384 13.8036 8.51482 13.6633 8.63511 13.4833C8.7554 13.3033 8.8196 13.0916 8.8196 12.8751C8.8196 12.7313 8.79127 12.5889 8.73623 12.4561C8.68119 12.3232 8.60052 12.2025 8.49883 12.1009C8.39714 11.9992 8.27641 11.9186 8.14355 11.8636C8.01069 11.8086 7.86829 11.7803 7.7245 11.7804H7.72487ZM16.843 9.4796C16.843 13.1237 15.0536 16.2587 12.4867 17.6526C10.7797 18.7013 8.30192 18.7013 6.69063 17.7453C4.02915 16.4016 2.15698 13.2072 2.15698 9.47997C2.15698 6.5795 3.2903 4.00151 5.04743 2.36722C5.04743 2.36722 3.48587 5.4421 5.38513 7.37698C4.95206 0.928487 11.667 5.03909 9.76403 0.548859C15.3969 3.64118 10.1032 4.44534 12.8849 6.04884C12.8849 6.04884 15.3419 7.79298 14.2357 2.6448C15.8296 4.27724 16.8426 6.73796 16.8426 9.47997L16.843 9.4796ZM14.2995 10.5881C14.2086 8.15776 12.263 6.15015 9.83677 5.9839C9.72321 5.9761 9.60854 5.97239 9.49685 5.97239C8.22342 5.9721 7.00202 6.47763 6.10129 7.3778C5.20056 8.27798 4.69427 9.49906 4.69378 10.7725C4.69887 11.7839 5.01657 12.769 5.60333 13.5928V14.5205C5.60634 14.8613 5.74319 15.1873 5.98436 15.4281C6.22553 15.669 6.5517 15.8053 6.89251 15.8079H7.12481V16.4242C7.12746 16.764 7.26439 17.0888 7.50572 17.3279C7.74705 17.567 8.07316 17.7009 8.41288 17.7004H10.7055C11.0445 17.7007 11.3697 17.5665 11.6098 17.3272C11.8499 17.088 11.9853 16.7632 11.9861 16.4242V15.8079H12.1858C12.5265 15.8052 12.8525 15.6684 13.093 15.427C13.3335 15.1856 13.4692 14.8591 13.4705 14.5183V13.4792C14.0493 12.6293 14.3398 11.6159 14.2992 10.5884L14.2995 10.5881Z" fill="#CFA007" fill-opacity="0.75"/>
</svg>

