<svg width="64" height="74" viewBox="0 0 64 74" fill="none" xmlns="http://www.w3.org/2000/svg">
    <path d="M23.4148 41.9189L23.8306 45.1315H20.3962L20.812 41.9189C20.812 41.5714 20.9491 41.2382 21.1932 40.9925C21.4372 40.7468 21.7683 40.6087 22.1134 40.6087C22.4586 40.6087 22.7896 40.7468 23.0336 40.9925C23.2777 41.2382 23.4148 41.5714 23.4148 41.9189ZM27.1772 33.8786C26.5285 33.8786 25.8943 34.0722 25.355 34.4351C24.8156 34.7979 24.3952 35.3136 24.147 35.917C23.8987 36.5204 23.8338 37.1843 23.9603 37.8249C24.0869 38.4654 24.3993 39.0538 24.858 39.5156C25.3167 39.9774 25.9011 40.2919 26.5373 40.4193C27.1735 40.5468 27.833 40.4814 28.4323 40.2314C29.0316 39.9815 29.5439 39.5583 29.9043 39.0152C30.2646 38.4722 30.457 37.8338 30.457 37.1807C30.457 36.7469 30.3721 36.3175 30.2072 35.9168C30.0423 35.516 29.8006 35.152 29.496 34.8453C29.1913 34.5387 28.8296 34.2955 28.4315 34.1296C28.0335 33.9637 27.6069 33.8784 27.176 33.8786H27.1772ZM16.6816 33.8786C16.0329 33.8786 15.3988 34.0722 14.8595 34.4351C14.3201 34.7979 13.8997 35.3136 13.6515 35.917C13.4032 36.5204 13.3383 37.1843 13.4648 37.8249C13.5914 38.4654 13.9037 39.0538 14.3624 39.5156C14.8211 39.9774 15.4055 40.2919 16.0418 40.4193C16.678 40.5468 17.3375 40.4814 17.9368 40.2314C18.5361 39.9815 19.0483 39.5583 19.4087 39.0152C19.7691 38.4722 19.9615 37.8338 19.9615 37.1807C19.9615 36.7469 19.8766 36.3175 19.7117 35.9168C19.5468 35.516 19.3051 35.152 19.0005 34.8453C18.6958 34.5387 18.3341 34.2955 17.936 34.1296C17.538 33.9637 17.1113 33.8784 16.6805 33.8786H16.6816ZM44 26.9385C44 37.9306 38.6388 47.387 30.9484 51.5913C25.8341 54.7546 18.4105 54.7546 13.583 51.8712C5.6091 47.818 0 38.1825 0 26.9396C0 18.1907 3.39548 10.4145 8.65991 5.48487C8.65991 5.48487 3.9814 14.7599 9.67166 20.5962C8.37418 1.14511 28.4924 13.5443 22.7911 0C39.6673 9.32763 23.8073 11.7533 32.1414 16.59C32.1414 16.59 39.5027 21.851 36.1884 6.32215C40.9636 11.2462 43.9989 18.6687 43.9989 26.9396L44 26.9385ZM36.3796 30.2821C36.1072 22.9514 30.278 16.8956 23.009 16.3942C22.6688 16.3706 22.3252 16.3595 21.9905 16.3595C18.1753 16.3586 14.5159 17.8834 11.8173 20.5987C9.11869 23.314 7.60183 26.9972 7.60035 30.8384C7.61562 33.8892 8.56743 36.8606 10.3254 39.3455V42.1439C10.3344 43.1719 10.7444 44.1552 11.467 44.8816C12.1895 45.608 13.1668 46.0194 14.1878 46.027H14.8838V47.8862C14.8918 48.9109 15.302 49.8908 16.025 50.6121C16.7481 51.3333 17.7251 51.7372 18.7429 51.7357H25.6117C26.6273 51.7366 27.6017 51.3318 28.3211 50.61C29.0404 49.8883 29.4459 48.9087 29.4486 47.8862V46.027H30.0467C31.0677 46.019 32.0443 45.6062 32.7648 44.878C33.4854 44.1499 33.8918 43.1651 33.8958 42.1372V39.003C35.63 36.4392 36.5003 33.3825 36.3785 30.2832L36.3796 30.2821Z" fill="#5D80FD" fill-opacity="0.6"/>
</svg>

