<svg width="122" height="122" viewBox="0 0 122 122" fill="none" xmlns="http://www.w3.org/2000/svg">
<path d="M5.54004 4.73583C14.6471 15.2214 14.8282 26.2078 9.35254 36.2709C27.369 28.3934 47.0582 25.4572 66.2646 25.4513C66.9635 25.4513 67.6595 25.4513 68.3567 25.4584C79.3129 25.5752 90.0832 26.6255 100.272 28.2287C70.4936 6.26918 36.9226 5.09874 5.54004 4.73583ZM65.4678 29.9341C47.4213 30.0265 29.062 32.772 12.3239 39.8378C21.7424 45.8153 23.0337 60.0955 19.6582 70.8515C39.1639 51.2181 70.5987 38.0521 97.5018 32.3167C87.2224 30.7964 76.4027 29.8783 65.4678 29.9341ZM98.6556 36.6284C72.2588 42.274 41.0861 55.5498 22.5033 74.3438C36.6729 72.9998 49.0369 83.8929 45.4379 97.6581C61.1048 72.1611 77.8079 53.5737 98.6556 36.6286V36.6284ZM101.307 40.2169C81.11 56.6464 65.0103 74.4917 49.7934 99.0723C70.339 87.6549 95.1502 95.6494 94.9251 117.212H116.258L86.2807 78.3421L85.4836 77.3151L85.9974 76.1085L101.307 40.2173L101.307 40.2169ZM103.764 45.7943L90.6064 76.6598L117.741 111.843V103.659C103.542 81.5434 101.518 62.9701 103.764 45.7948V45.7943Z" fill="#222425"/>
<path d="M98.3005 27.4211C88.7013 25.9923 78.6142 25.0677 68.362 24.9585L68.3618 24.9585C67.662 24.9513 66.9638 24.9513 66.2657 24.9513H66.2646H66.2644C47.4661 24.9571 28.1846 27.7626 10.4413 35.2587C12.7758 30.5352 13.8813 25.6051 13.4127 20.6151C12.9291 15.467 10.7737 10.293 6.62814 5.2488C37.1092 5.62172 69.4314 6.9784 98.3005 27.4211ZM85.0236 77.1193L84.9085 77.3896L85.0886 77.6217L85.8848 78.6475L85.8857 78.6487L115.241 116.712H95.4258C95.3459 105.973 89.1057 98.5878 80.3233 95.3062C71.8947 92.1569 61.1367 92.7832 51.1976 97.7653C65.6982 74.6744 81.0555 57.583 100.048 41.8955L85.5375 75.9123L85.5373 75.9126L85.0236 77.1193ZM94.701 32.424C68.9825 38.3149 39.6668 50.8195 20.6584 69.1639C21.9425 64.1579 22.2541 58.5743 21.28 53.4592C20.2449 48.0239 17.7474 43.0735 13.3726 39.9421C29.8038 33.1723 47.7772 30.5247 65.4703 30.4341C75.4138 30.3834 85.2645 31.1401 94.701 32.424ZM46.4337 95.1058C47.1546 89.121 44.9335 83.8055 40.9818 79.9759C36.7413 75.8665 30.5172 73.4727 23.805 73.7538C41.909 56.027 71.2769 43.3338 96.7217 37.5664C77.204 53.6784 61.3122 71.3819 46.4337 95.1058ZM117.241 110.376L91.1813 76.5865L102.883 49.1373C101.331 65.4385 103.974 83.0884 117.241 103.806V110.376Z" stroke="#E7E4E6" stroke-opacity="0.5"/>
</svg>
