<svg width="247" height="340" viewBox="0 0 247 340" fill="none" xmlns="http://www.w3.org/2000/svg">
<g id="atwell-a">
<g id="a">
<mask id="path-1-outside-1_1_15" maskUnits="userSpaceOnUse" x="14" y="108" width="227" height="182" fill="black">
<rect fill="white" x="14" y="108" width="227" height="182"/>
<path d="M95.668 138.936C90.6875 138.936 86.3906 139.326 82.7773 140.107C79.2617 140.791 76.2344 141.621 73.6953 142.598C71.1562 143.574 69.0566 144.697 67.3965 145.967C65.7363 147.139 64.2715 148.213 63.002 149.189L64.4668 150.654C66.3223 149.678 68.3242 148.701 70.4727 147.725C72.7188 146.748 75.5508 146.26 78.9688 146.26C84.7305 146.26 89.7109 148.164 93.9102 151.973C98.1094 155.684 100.209 161.641 100.209 169.844C100.209 177.656 96.9863 183.955 90.541 188.74C84.1934 193.428 75.6484 195.771 64.9062 195.771C54.6523 195.771 46.4492 192.842 40.2969 186.982C34.2422 181.025 31.2148 172.627 31.2148 161.787C31.2148 155.83 32.875 149.922 36.1953 144.062C39.5156 138.105 44.6426 132.783 51.5762 128.096C58.6074 123.408 67.4941 119.551 78.2363 116.523C89.0762 113.496 102.113 111.982 117.348 111.982C135.512 111.982 150.355 113.691 161.879 117.109C173.402 120.527 182.338 124.922 188.686 130.293C195.131 135.664 199.525 141.768 201.869 148.604C204.311 155.439 205.531 162.324 205.531 169.258V226.533C205.531 235.42 205.824 241.475 206.41 244.697C206.996 247.822 209.193 249.385 213.002 249.385C216.029 249.385 218.129 247.969 219.301 245.137C220.57 242.207 221.205 237.227 221.205 230.195V211.885H237.904V230.488C237.904 239.277 237.172 247.09 235.707 253.926C234.242 260.664 231.459 266.475 227.357 271.357C223.256 276.143 217.689 279.756 210.658 282.197C203.627 284.736 194.643 286.006 183.705 286.006C173.842 286.006 165.639 284.932 159.096 282.783C152.65 280.732 147.523 278.145 143.715 275.02C139.906 271.895 137.172 268.672 135.512 265.352C133.949 261.934 133.168 258.906 133.168 256.27H130.824C130.238 260.273 128.529 264.082 125.697 267.695C122.963 271.309 119.105 274.531 114.125 277.363C109.242 280.098 103.334 282.295 96.4004 283.955C89.5645 285.713 81.752 286.592 72.9629 286.592C64.5645 286.592 56.8984 285.762 49.9648 284.102C43.1289 282.539 37.2695 280.049 32.3867 276.631C27.6016 273.115 23.8418 268.623 21.1074 263.154C18.4707 257.588 17.1523 250.996 17.1523 243.379C17.1523 234.004 19.7891 226.631 25.0625 221.26C30.3359 215.791 36.9766 211.494 44.9844 208.369C52.9922 205.146 61.6836 202.559 71.0586 200.605C80.5312 198.555 89.2715 196.113 97.2793 193.281C105.287 190.449 111.928 186.787 117.201 182.295C122.475 177.803 125.111 171.455 125.111 163.252C125.111 155.928 122.816 150.068 118.227 145.674C113.637 141.182 106.117 138.936 95.668 138.936ZM125.111 202.363C122.963 205.488 120.277 208.027 117.055 209.98C113.832 211.836 110.707 213.691 107.68 215.547C104.75 217.305 102.162 219.453 99.916 221.992C97.7676 224.434 96.6934 227.754 96.6934 231.953C96.6934 235.176 97.5723 238.105 99.3301 240.742C101.088 243.281 104.506 244.551 109.584 244.551C114.174 244.551 117.885 242.793 120.717 239.277C123.646 235.664 125.111 230.635 125.111 224.189V202.363Z"/>
</mask>
<path d="M82.7773 140.107L83.35 143.052L83.3807 143.046L83.4113 143.04L82.7773 140.107ZM67.3965 145.967L69.1265 148.418L69.1733 148.385L69.2188 148.35L67.3965 145.967ZM63.002 149.189L61.1728 146.812L58.4646 148.895L60.8806 151.311L63.002 149.189ZM64.4668 150.654L62.3455 152.776L63.9083 154.338L65.864 153.309L64.4668 150.654ZM70.4727 147.725L69.2765 144.973L69.2538 144.983L69.2312 144.994L70.4727 147.725ZM93.9102 151.973L91.8947 154.195L91.9091 154.208L91.9236 154.221L93.9102 151.973ZM90.541 188.74L92.3232 191.154L92.3293 191.149L90.541 188.74ZM40.2969 186.982L38.1929 189.121L38.2103 189.138L38.2279 189.155L40.2969 186.982ZM36.1953 144.062L38.8054 145.542L38.8106 145.532L38.8158 145.523L36.1953 144.062ZM51.5762 128.096L49.9121 125.6L49.904 125.605L49.896 125.61L51.5762 128.096ZM78.2363 116.523L77.4294 113.634L77.4226 113.636L78.2363 116.523ZM188.686 130.293L186.748 132.583L186.756 132.59L186.765 132.598L188.686 130.293ZM201.869 148.604L199.031 149.576L199.037 149.595L199.044 149.613L201.869 148.604ZM206.41 244.697L203.459 245.234L203.46 245.242L203.462 245.25L206.41 244.697ZM219.301 245.137L216.548 243.944L216.538 243.967L216.529 243.99L219.301 245.137ZM221.205 211.885V208.885H218.205V211.885H221.205ZM237.904 211.885H240.904V208.885H237.904V211.885ZM235.707 253.926L238.639 254.563L238.64 254.554L235.707 253.926ZM227.357 271.357L229.635 273.31L229.645 273.298L229.655 273.287L227.357 271.357ZM210.658 282.197L209.674 279.363L209.657 279.369L209.639 279.376L210.658 282.197ZM159.096 282.783L160.032 279.933L160.018 279.929L160.005 279.924L159.096 282.783ZM135.512 265.352L132.783 266.599L132.805 266.646L132.828 266.693L135.512 265.352ZM133.168 256.27H136.168V253.27H133.168V256.27ZM130.824 256.27V253.27H128.231L127.856 255.835L130.824 256.27ZM125.697 267.695L123.336 265.845L123.32 265.865L123.305 265.885L125.697 267.695ZM114.125 277.363L115.591 279.981L115.599 279.976L115.608 279.971L114.125 277.363ZM96.4004 283.955L95.7018 281.038L95.6775 281.043L95.6533 281.05L96.4004 283.955ZM49.9648 284.102L50.6634 281.184L50.6484 281.18L50.6333 281.177L49.9648 284.102ZM32.3867 276.631L30.6105 279.049L30.6382 279.069L30.6663 279.089L32.3867 276.631ZM21.1074 263.154L18.3962 264.439L18.4099 264.467L18.4241 264.496L21.1074 263.154ZM25.0625 221.26L27.2032 223.362L27.2127 223.352L27.222 223.342L25.0625 221.26ZM44.9844 208.369L46.075 211.164L46.0897 211.158L46.1044 211.152L44.9844 208.369ZM71.0586 200.605L71.6705 203.542L71.6819 203.54L71.6934 203.538L71.0586 200.605ZM118.227 145.674L116.128 147.818L116.14 147.829L116.152 147.841L118.227 145.674ZM125.111 202.363H128.111V192.704L122.639 200.664L125.111 202.363ZM117.055 209.98L118.552 212.58L118.581 212.564L118.61 212.546L117.055 209.98ZM107.68 215.547L109.223 218.119L109.235 218.112L109.247 218.105L107.68 215.547ZM99.916 221.992L97.669 220.004L97.6639 220.01L99.916 221.992ZM99.3301 240.742L96.8339 242.406L96.8485 242.428L96.8635 242.45L99.3301 240.742ZM120.717 239.277L118.387 237.388L118.381 237.395L120.717 239.277ZM95.668 138.936V135.936C90.5427 135.936 86.0225 136.336 82.1433 137.175L82.7773 140.107L83.4113 143.04C86.7587 142.316 90.8323 141.936 95.668 141.936V138.936ZM82.7773 140.107L82.2047 137.163C78.5676 137.87 75.3629 138.742 72.6184 139.798L73.6953 142.598L74.7722 145.398C77.1059 144.5 79.9558 143.712 83.35 143.052L82.7773 140.107ZM73.6953 142.598L72.6184 139.798C69.888 140.848 67.5181 142.097 65.5741 143.584L67.3965 145.967L69.2188 148.35C70.5951 147.297 72.4245 146.301 74.7722 145.398L73.6953 142.598ZM67.3965 145.967L65.6664 143.516C63.9812 144.705 62.4821 145.804 61.1728 146.812L63.002 149.189L64.8311 151.567C66.0608 150.621 67.4915 149.572 69.1265 148.418L67.3965 145.967ZM63.002 149.189L60.8806 151.311L62.3455 152.776L64.4668 150.654L66.5881 148.533L65.1233 147.068L63.002 149.189ZM64.4668 150.654L65.864 153.309C67.6624 152.363 69.6119 151.411 71.7141 150.456L70.4727 147.725L69.2312 144.994C67.0365 145.991 64.9821 146.993 63.0696 148L64.4668 150.654ZM70.4727 147.725L71.6688 150.476C73.4195 149.715 75.8106 149.26 78.9688 149.26V146.26V143.26C75.291 143.26 72.018 143.781 69.2765 144.973L70.4727 147.725ZM78.9688 146.26V149.26C83.9988 149.26 88.2573 150.896 91.8947 154.195L93.9102 151.973L95.9256 149.75C91.1646 145.432 85.4621 143.26 78.9688 143.26V146.26ZM93.9102 151.973L91.9236 154.221C95.2265 157.14 97.209 162.095 97.209 169.844H100.209H103.209C103.209 161.187 100.992 154.228 95.8967 149.725L93.9102 151.973ZM100.209 169.844H97.209C97.209 176.676 94.4604 182.094 88.7527 186.332L90.541 188.74L92.3293 191.149C99.5122 185.816 103.209 178.636 103.209 169.844H100.209ZM90.541 188.74L88.7589 186.327C83.0847 190.517 75.235 192.771 64.9062 192.771V195.771V198.771C76.0618 198.771 85.302 196.338 92.3231 191.154L90.541 188.74ZM64.9062 195.771V192.771C55.2537 192.771 47.8489 190.032 42.3658 184.81L40.2969 186.982L38.2279 189.155C45.0495 195.652 54.051 198.771 64.9062 198.771V195.771ZM40.2969 186.982L42.4009 184.844C37.0668 179.596 34.2148 172.056 34.2148 161.787H31.2148H28.2148C28.2148 173.197 31.4175 182.455 38.1929 189.121L40.2969 186.982ZM31.2148 161.787H34.2148C34.2148 156.413 35.7067 151.01 38.8054 145.542L36.1953 144.062L33.5852 142.583C30.0433 148.834 28.2148 155.247 28.2148 161.787H31.2148ZM36.1953 144.062L38.8158 145.523C41.8611 140.059 46.6251 135.064 53.2564 130.581L51.5762 128.096L49.896 125.61C42.66 130.502 37.1702 136.152 33.5749 142.602L36.1953 144.062ZM51.5762 128.096L53.2403 130.592C59.9419 126.124 68.5191 122.379 79.0501 119.411L78.2363 116.523L77.4226 113.636C66.4691 116.723 57.273 120.692 49.9121 125.6L51.5762 128.096ZM78.2363 116.523L79.0433 119.413C89.5464 116.48 102.297 114.982 117.348 114.982V111.982V108.982C101.93 108.982 88.6059 110.513 77.4294 113.634L78.2363 116.523ZM117.348 111.982V114.982C135.354 114.982 149.882 116.68 161.026 119.986L161.879 117.109L162.732 114.233C150.829 110.703 135.669 108.982 117.348 108.982V111.982ZM161.879 117.109L161.026 119.986C172.314 123.334 180.826 127.572 186.748 132.583L188.686 130.293L190.623 128.003C183.85 122.272 174.49 117.721 162.732 114.233L161.879 117.109ZM188.686 130.293L186.765 132.598C192.857 137.675 196.893 143.339 199.031 149.576L201.869 148.604L204.707 147.631C202.158 140.196 197.404 133.653 190.606 127.988L188.686 130.293ZM201.869 148.604L199.044 149.613C201.375 156.14 202.531 162.684 202.531 169.258H205.531H208.531C208.531 161.964 207.246 154.739 204.694 147.595L201.869 148.604ZM205.531 169.258H202.531V226.533H205.531H208.531V169.258H205.531ZM205.531 226.533H202.531C202.531 235.394 202.817 241.708 203.459 245.234L206.41 244.697L209.362 244.161C208.831 241.241 208.531 235.445 208.531 226.533H205.531ZM206.41 244.697L203.462 245.25C203.87 247.43 204.915 249.347 206.759 250.658C208.536 251.921 210.723 252.385 213.002 252.385V249.385V246.385C211.472 246.385 210.656 246.067 210.236 245.768C209.882 245.517 209.536 245.09 209.359 244.144L206.41 244.697ZM213.002 249.385V252.385C214.995 252.385 216.889 251.913 218.525 250.81C220.157 249.709 221.309 248.129 222.073 246.284L219.301 245.137L216.529 243.99C216.12 244.977 215.636 245.521 215.17 245.836C214.706 246.149 214.037 246.385 213.002 246.385V249.385ZM219.301 245.137L222.053 246.33C223.589 242.787 224.205 237.26 224.205 230.195H221.205H218.205C218.205 237.193 217.552 241.627 216.548 243.944L219.301 245.137ZM221.205 230.195H224.205V211.885H221.205H218.205V230.195H221.205ZM221.205 211.885V214.885H237.904V211.885V208.885H221.205V211.885ZM237.904 211.885H234.904V230.488H237.904H240.904V211.885H237.904ZM237.904 230.488H234.904C234.904 239.117 234.185 246.713 232.774 253.297L235.707 253.926L238.64 254.554C240.159 247.467 240.904 239.437 240.904 230.488H237.904ZM235.707 253.926L232.776 253.288C231.405 259.591 228.824 264.948 225.06 269.428L227.357 271.357L229.655 273.287C234.094 268.001 237.079 261.738 238.639 254.563L235.707 253.926ZM227.357 271.357L225.08 269.405C221.382 273.719 216.295 277.064 209.674 279.363L210.658 282.197L211.642 285.031C219.084 282.447 225.13 278.566 229.635 273.31L227.357 271.357ZM210.658 282.197L209.639 279.376C203.049 281.756 194.441 283.006 183.705 283.006V286.006V289.006C194.844 289.006 204.205 287.717 211.677 285.019L210.658 282.197ZM183.705 286.006V283.006C174.034 283.006 166.173 281.949 160.032 279.933L159.096 282.783L158.16 285.633C165.104 287.914 173.649 289.006 183.705 289.006V286.006ZM159.096 282.783L160.005 279.924C153.796 277.949 149.045 275.512 145.618 272.7L143.715 275.02L141.812 277.339C146.002 280.777 151.505 283.516 158.186 285.642L159.096 282.783ZM143.715 275.02L145.618 272.7C142.034 269.76 139.616 266.851 138.195 264.01L135.512 265.352L132.828 266.693C134.728 270.492 137.779 274.029 141.812 277.339L143.715 275.02ZM135.512 265.352L138.24 264.104C136.786 260.923 136.168 258.333 136.168 256.27H133.168H130.168C130.168 259.479 131.112 262.944 132.783 266.599L135.512 265.352ZM133.168 256.27V253.27H130.824V256.27V259.27H133.168V256.27ZM130.824 256.27L127.856 255.835C127.355 259.256 125.89 262.586 123.336 265.845L125.697 267.695L128.058 269.546C131.169 265.578 133.121 261.291 133.793 256.704L130.824 256.27ZM125.697 267.695L123.305 265.885C120.872 269.1 117.359 272.073 112.642 274.755L114.125 277.363L115.608 279.971C120.852 276.989 125.054 273.517 128.089 269.506L125.697 267.695ZM114.125 277.363L112.659 274.746C108.072 277.314 102.437 279.425 95.7018 281.038L96.4004 283.955L97.099 286.873C104.231 285.165 110.412 282.881 115.591 279.981L114.125 277.363ZM96.4004 283.955L95.6533 281.05C89.1124 282.732 81.5587 283.592 72.9629 283.592V286.592V289.592C81.9452 289.592 90.0165 288.694 97.1475 286.861L96.4004 283.955ZM72.9629 286.592V283.592C64.7593 283.592 57.3319 282.781 50.6634 281.184L49.9648 284.102L49.2663 287.019C56.4649 288.743 64.3696 289.592 72.9629 289.592V286.592ZM49.9648 284.102L50.6333 281.177C44.1093 279.686 38.6219 277.334 34.1071 274.173L32.3867 276.631L30.6663 279.089C35.9171 282.764 42.1485 285.392 49.2964 287.026L49.9648 284.102ZM32.3867 276.631L34.1629 274.213C29.7728 270.988 26.3189 266.869 23.7907 261.813L21.1074 263.154L18.4241 264.496C21.3647 270.377 25.4303 275.243 30.6105 279.049L32.3867 276.631ZM21.1074 263.154L23.8186 261.87C21.4116 256.789 20.1523 250.655 20.1523 243.379H17.1523H14.1523C14.1523 251.338 15.5298 258.387 18.3962 264.439L21.1074 263.154ZM17.1523 243.379H20.1523C20.1523 234.587 22.6083 228.042 27.2032 223.362L25.0625 221.26L22.9218 219.158C16.9698 225.22 14.1523 233.421 14.1523 243.379H17.1523ZM25.0625 221.26L27.222 223.342C32.1575 218.224 38.4176 214.152 46.075 211.164L44.9844 208.369L43.8937 205.574C35.5355 208.836 28.5143 213.358 22.903 219.177L25.0625 221.26ZM44.9844 208.369L46.1044 211.152C53.931 208.002 62.4505 205.463 71.6705 203.542L71.0586 200.605L70.4467 197.669C60.9167 199.654 52.0534 202.29 43.8644 205.586L44.9844 208.369ZM71.0586 200.605L71.6934 203.538C81.273 201.464 90.137 198.989 98.2796 196.11L97.2793 193.281L96.279 190.453C88.406 193.237 79.7895 195.646 70.4238 197.673L71.0586 200.605ZM97.2793 193.281L98.2796 196.11C106.557 193.182 113.539 189.356 119.147 184.579L117.201 182.295L115.256 180.011C110.317 184.219 104.017 187.716 96.279 190.453L97.2793 193.281ZM117.201 182.295L119.147 184.579C125.214 179.41 128.111 172.155 128.111 163.252H125.111H122.111C122.111 170.755 119.735 176.195 115.256 180.011L117.201 182.295ZM125.111 163.252H128.111C128.111 155.246 125.574 148.555 120.301 143.507L118.227 145.674L116.152 147.841C120.059 151.582 122.111 156.61 122.111 163.252H125.111ZM118.227 145.674L120.325 143.53C114.911 138.231 106.433 135.936 95.668 135.936V138.936V141.936C105.801 141.936 112.363 144.132 116.128 147.818L118.227 145.674ZM125.111 202.363L122.639 200.664C120.73 203.441 118.356 205.684 115.5 207.415L117.055 209.98L118.61 212.546C122.198 210.371 125.196 207.536 127.583 204.063L125.111 202.363ZM117.055 209.98L115.558 207.381C112.312 209.249 109.164 211.119 106.112 212.989L107.68 215.547L109.247 218.105C112.25 216.264 115.352 214.423 118.552 212.58L117.055 209.98ZM107.68 215.547L106.136 212.974C102.946 214.889 100.12 217.234 97.669 220.004L99.916 221.992L102.163 223.98C104.204 221.672 106.554 219.721 109.223 218.119L107.68 215.547ZM99.916 221.992L97.6639 220.01C94.9067 223.143 93.6934 227.242 93.6934 231.953H96.6934H99.6934C99.6934 228.266 100.628 225.724 102.168 223.974L99.916 221.992ZM96.6934 231.953H93.6934C93.6934 235.757 94.7417 239.268 96.8339 242.406L99.3301 240.742L101.826 239.078C100.403 236.943 99.6934 234.594 99.6934 231.953H96.6934ZM99.3301 240.742L96.8635 242.45C99.4677 246.211 104.163 247.551 109.584 247.551V244.551V241.551C104.849 241.551 102.708 240.351 101.797 239.035L99.3301 240.742ZM109.584 244.551V247.551C115.064 247.551 119.641 245.396 123.053 241.159L120.717 239.277L118.381 237.395C116.129 240.19 113.284 241.551 109.584 241.551V244.551ZM120.717 239.277L123.047 241.167C126.551 236.846 128.111 231.06 128.111 224.189H125.111H122.111C122.111 230.209 120.742 234.482 118.387 237.388L120.717 239.277ZM125.111 224.189H128.111V202.363H125.111H122.111V224.189H125.111Z" fill="#D9D9D9" mask="url(#path-1-outside-1_1_15)"/>
</g>
<g id="atwell">
<mask id="path-3-outside-2_1_15" maskUnits="userSpaceOnUse" x="171.428" y="145.736" width="27.3202" height="98.0566" fill="black">
<rect fill="white" x="171.428" y="145.736" width="27.3202" height="98.0566"/>
<path d="M191.251 155.922C191.242 158.738 190.424 160.891 188.798 162.38L191.1 162.865L191.094 164.657L173.687 164.62L173.692 162.828L176.03 162.353C175.222 161.605 174.606 160.686 174.183 159.597C173.781 158.53 173.582 157.292 173.587 155.884C173.592 154.519 173.798 153.303 174.207 152.238C174.616 151.172 175.195 150.266 175.944 149.521C176.714 148.797 177.644 148.234 178.733 147.831C179.823 147.449 181.061 147.26 182.447 147.263C185.242 147.269 187.405 148.031 188.936 149.549C190.488 151.067 191.26 153.191 191.251 155.922ZM182.439 149.663C180.263 149.658 178.608 150.199 177.474 151.284C176.361 152.37 175.801 153.969 175.794 156.081C175.788 158.193 176.337 159.794 177.443 160.884C178.57 161.975 180.221 162.522 182.397 162.527C184.595 162.532 186.25 161.991 187.363 160.905C188.476 159.82 189.036 158.221 189.042 156.109C189.049 153.997 188.5 152.396 187.394 151.305C186.288 150.215 184.637 149.668 182.439 149.663ZM180.197 169.945L194.661 169.976L194.654 172.28L191.07 172.272L191.054 177.168L189.006 177.164L189.022 172.268L178.686 172.246C178.302 172.245 177.939 172.287 177.597 172.372C177.298 172.478 176.999 172.626 176.7 172.818C176.4 173.031 176.165 173.339 175.993 173.744C175.842 174.128 175.766 174.523 175.765 174.928C175.763 175.461 175.858 175.92 176.048 176.304C176.26 176.71 176.451 176.999 176.622 177.17L174.89 178.318C174.635 178.083 174.411 177.794 174.221 177.453C174.051 177.154 173.892 176.769 173.744 176.3C173.596 175.851 173.524 175.296 173.526 174.635C173.53 173.398 173.917 172.364 174.688 171.534C175.459 170.703 176.516 170.204 177.861 170.036C177.989 170.015 178.16 170.005 178.373 170.005C178.544 169.984 178.778 169.964 179.077 169.943C179.397 169.944 179.77 169.944 180.197 169.945ZM191.045 179.952L191.036 182.512L176.971 187.666L191.002 192.88L190.997 194.416L176.932 199.57L190.963 204.784L190.955 207.344L173.569 200.523L173.576 198.571L187.256 193.64L173.608 188.619L173.614 186.667L191.045 179.952ZM182.245 209.316C185.039 209.322 187.202 210.095 188.733 211.634C190.285 213.195 191.057 215.372 191.048 218.167C191.043 219.596 190.825 220.865 190.395 221.974C189.965 223.082 189.333 223.998 188.498 224.722C186.723 226.233 184.31 226.771 181.261 226.338L181.309 211.746L181.181 211.746C179.367 211.742 177.979 212.305 177.015 213.433C176.051 214.562 175.566 216.129 175.56 218.134C175.556 219.35 175.755 220.449 176.157 221.432C176.559 222.435 177.143 223.268 177.909 223.931L176.368 225.432C175.389 224.641 174.646 223.615 174.138 222.355C173.63 221.117 173.379 219.708 173.384 218.13C173.393 215.335 174.168 213.161 175.709 211.607C177.271 210.074 179.45 209.31 182.245 209.316ZM183.165 211.75L183.124 224.294C184.873 224.362 186.218 223.938 187.16 223.023C188.294 221.937 188.865 220.317 188.872 218.162C188.878 216.2 188.392 214.641 187.415 213.487C186.459 212.333 185.074 211.754 183.261 211.751L183.165 211.75ZM173.469 231.214L197.181 231.264L197.173 233.568L173.461 233.518L173.469 231.214ZM173.441 239.722L197.153 239.772L197.146 242.076L173.434 242.026L173.441 239.722Z"/>
</mask>
<path d="M191.251 155.922C191.242 158.738 190.424 160.891 188.798 162.38L191.1 162.865L191.094 164.657L173.687 164.62L173.692 162.828L176.03 162.353C175.222 161.605 174.606 160.686 174.183 159.597C173.781 158.53 173.582 157.292 173.587 155.884C173.592 154.519 173.798 153.303 174.207 152.238C174.616 151.172 175.195 150.266 175.944 149.521C176.714 148.797 177.644 148.234 178.733 147.831C179.823 147.449 181.061 147.26 182.447 147.263C185.242 147.269 187.405 148.031 188.936 149.549C190.488 151.067 191.26 153.191 191.251 155.922ZM182.439 149.663C180.263 149.658 178.608 150.199 177.474 151.284C176.361 152.37 175.801 153.969 175.794 156.081C175.788 158.193 176.337 159.794 177.443 160.884C178.57 161.975 180.221 162.522 182.397 162.527C184.595 162.532 186.25 161.991 187.363 160.905C188.476 159.82 189.036 158.221 189.042 156.109C189.049 153.997 188.5 152.396 187.394 151.305C186.288 150.215 184.637 149.668 182.439 149.663ZM180.197 169.945L194.661 169.976L194.654 172.28L191.07 172.272L191.054 177.168L189.006 177.164L189.022 172.268L178.686 172.246C178.302 172.245 177.939 172.287 177.597 172.372C177.298 172.478 176.999 172.626 176.7 172.818C176.4 173.031 176.165 173.339 175.993 173.744C175.842 174.128 175.766 174.523 175.765 174.928C175.763 175.461 175.858 175.92 176.048 176.304C176.26 176.71 176.451 176.999 176.622 177.17L174.89 178.318C174.635 178.083 174.411 177.794 174.221 177.453C174.051 177.154 173.892 176.769 173.744 176.3C173.596 175.851 173.524 175.296 173.526 174.635C173.53 173.398 173.917 172.364 174.688 171.534C175.459 170.703 176.516 170.204 177.861 170.036C177.989 170.015 178.16 170.005 178.373 170.005C178.544 169.984 178.778 169.964 179.077 169.943C179.397 169.944 179.77 169.944 180.197 169.945ZM191.045 179.952L191.036 182.512L176.971 187.666L191.002 192.88L190.997 194.416L176.932 199.57L190.963 204.784L190.955 207.344L173.569 200.523L173.576 198.571L187.256 193.64L173.608 188.619L173.614 186.667L191.045 179.952ZM182.245 209.316C185.039 209.322 187.202 210.095 188.733 211.634C190.285 213.195 191.057 215.372 191.048 218.167C191.043 219.596 190.825 220.865 190.395 221.974C189.965 223.082 189.333 223.998 188.498 224.722C186.723 226.233 184.31 226.771 181.261 226.338L181.309 211.746L181.181 211.746C179.367 211.742 177.979 212.305 177.015 213.433C176.051 214.562 175.566 216.129 175.56 218.134C175.556 219.35 175.755 220.449 176.157 221.432C176.559 222.435 177.143 223.268 177.909 223.931L176.368 225.432C175.389 224.641 174.646 223.615 174.138 222.355C173.63 221.117 173.379 219.708 173.384 218.13C173.393 215.335 174.168 213.161 175.709 211.607C177.271 210.074 179.45 209.31 182.245 209.316ZM183.165 211.75L183.124 224.294C184.873 224.362 186.218 223.938 187.16 223.023C188.294 221.937 188.865 220.317 188.872 218.162C188.878 216.2 188.392 214.641 187.415 213.487C186.459 212.333 185.074 211.754 183.261 211.751L183.165 211.75ZM173.469 231.214L197.181 231.264L197.173 233.568L173.461 233.518L173.469 231.214ZM173.441 239.722L197.153 239.772L197.146 242.076L173.434 242.026L173.441 239.722Z" fill="#D9D9D9"/>
<path d="M188.798 162.38L188.123 161.643L186.688 162.958L188.591 163.359L188.798 162.38ZM191.1 162.865L192.1 162.867L192.103 162.054L191.308 161.887L191.1 162.865ZM191.094 164.657L191.091 165.657L192.091 165.659L192.094 164.659L191.094 164.657ZM173.687 164.62L172.687 164.618L172.683 165.618L173.683 165.62L173.687 164.62ZM173.692 162.828L173.494 161.849L172.695 162.011L172.692 162.826L173.692 162.828ZM176.03 162.353L176.228 163.333L178.141 162.945L176.71 161.619L176.03 162.353ZM174.183 159.597L173.247 159.951L173.251 159.961L174.183 159.597ZM174.207 152.238L173.273 151.88L173.273 151.88L174.207 152.238ZM175.944 149.521L175.26 148.793L175.249 148.803L175.239 148.813L175.944 149.521ZM178.733 147.831L178.404 146.887L178.396 146.89L178.387 146.893L178.733 147.831ZM188.936 149.549L188.231 150.259L188.236 150.264L188.936 149.549ZM177.474 151.284L176.783 150.562L176.776 150.569L177.474 151.284ZM177.443 160.884L176.74 161.597L176.747 161.603L177.443 160.884ZM187.363 160.905L186.665 160.19L186.665 160.19L187.363 160.905ZM187.394 151.305L186.692 152.018L186.692 152.018L187.394 151.305ZM191.251 155.922L190.251 155.919C190.242 158.538 189.489 160.392 188.123 161.643L188.798 162.38L189.473 163.117C191.359 161.389 192.241 158.937 192.251 155.924L191.251 155.922ZM188.798 162.38L188.591 163.359L190.893 163.844L191.1 162.865L191.308 161.887L189.005 161.402L188.798 162.38ZM191.1 162.865L190.1 162.863L190.094 164.655L191.094 164.657L192.094 164.659L192.1 162.867L191.1 162.865ZM191.094 164.657L191.098 163.657L173.69 163.62L173.687 164.62L173.683 165.62L191.091 165.657L191.094 164.657ZM173.687 164.62L174.687 164.623L174.692 162.831L173.692 162.828L172.692 162.826L172.687 164.618L173.687 164.62ZM173.692 162.828L173.89 163.808L176.228 163.333L176.03 162.353L175.832 161.373L173.494 161.849L173.692 162.828ZM176.03 162.353L176.71 161.619C176.019 160.98 175.487 160.191 175.115 159.234L174.183 159.597L173.251 159.961C173.725 161.182 174.424 162.23 175.35 163.088L176.03 162.353ZM174.183 159.597L175.119 159.244C174.768 158.313 174.583 157.2 174.587 155.886L173.587 155.884L172.587 155.882C172.582 157.384 172.794 158.747 173.247 159.951L174.183 159.597ZM173.587 155.884L174.587 155.886C174.591 154.619 174.783 153.527 175.141 152.595L174.207 152.238L173.273 151.88C172.813 153.079 172.592 154.419 172.587 155.882L173.587 155.884ZM174.207 152.238L175.141 152.595C175.503 151.65 176.008 150.867 176.649 150.23L175.944 149.521L175.239 148.813C174.382 149.665 173.729 150.693 173.273 151.88L174.207 152.238ZM175.944 149.521L176.628 150.25C177.292 149.626 178.103 149.13 179.079 148.769L178.733 147.831L178.387 146.893C177.185 147.338 176.137 147.969 175.26 148.793L175.944 149.521ZM178.733 147.831L179.063 148.775C180.026 148.437 181.149 148.26 182.444 148.263L182.447 147.263L182.451 146.263C180.973 146.26 179.619 146.461 178.404 146.887L178.733 147.831ZM182.447 147.263L182.444 148.263C185.057 148.268 186.937 148.976 188.231 150.259L188.936 149.549L189.64 148.838C187.872 147.085 185.427 146.269 182.451 146.263L182.447 147.263ZM188.936 149.549L188.236 150.264C189.549 151.548 190.259 153.385 190.251 155.919L191.251 155.922L192.251 155.924C192.261 152.996 191.428 150.586 189.635 148.833L188.936 149.549ZM182.439 149.663L182.443 148.663C180.109 148.658 178.166 149.238 176.783 150.562L177.474 151.284L178.165 152.006C179.05 151.159 180.417 150.659 182.436 150.663L182.439 149.663ZM177.474 151.284L176.776 150.569C175.41 151.902 174.802 153.797 174.794 156.079L175.794 156.081L176.794 156.083C176.801 154.14 177.313 152.838 178.172 152L177.474 151.284ZM175.794 156.081L174.794 156.079C174.787 158.36 175.383 160.258 176.74 161.597L177.443 160.884L178.145 160.172C177.291 159.33 176.788 158.026 176.794 156.083L175.794 156.081ZM177.443 160.884L176.747 161.603C178.122 162.933 180.061 163.522 182.394 163.527L182.397 162.527L182.401 161.527C180.382 161.523 179.018 161.016 178.138 160.165L177.443 160.884ZM182.397 162.527L182.394 163.527C184.744 163.532 186.694 162.954 188.061 161.621L187.363 160.905L186.665 160.19C185.805 161.028 184.445 161.531 182.401 161.527L182.397 162.527ZM187.363 160.905L188.061 161.621C189.427 160.288 190.035 158.392 190.042 156.111L189.042 156.109L188.042 156.107C188.036 158.049 187.524 159.352 186.665 160.19L187.363 160.905ZM189.042 156.109L190.042 156.111C190.05 153.83 189.454 151.932 188.097 150.593L187.394 151.305L186.692 152.018C187.546 152.86 188.049 154.164 188.042 156.107L189.042 156.109ZM187.394 151.305L188.097 150.593C186.739 149.254 184.793 148.668 182.443 148.663L182.439 149.663L182.436 150.663C184.481 150.667 185.838 151.176 186.692 152.018L187.394 151.305ZM194.661 169.976L195.661 169.978L195.664 168.978L194.664 168.976L194.661 169.976ZM194.654 172.28L194.65 173.28L195.65 173.282L195.654 172.282L194.654 172.28ZM191.07 172.272L191.073 171.272L190.073 171.27L190.07 172.27L191.07 172.272ZM191.054 177.168L191.05 178.168L192.05 178.17L192.054 177.17L191.054 177.168ZM189.006 177.164L188.006 177.162L188.002 178.162L189.002 178.164L189.006 177.164ZM189.022 172.268L190.022 172.27L190.025 171.27L189.025 171.268L189.022 172.268ZM177.597 172.372L177.358 171.401L177.31 171.413L177.264 171.429L177.597 172.372ZM176.7 172.818L176.162 171.976L176.141 171.989L176.121 172.003L176.7 172.818ZM175.993 173.744L175.072 173.354L175.067 173.367L175.062 173.38L175.993 173.744ZM176.048 176.304L175.152 176.75L175.157 176.759L175.162 176.768L176.048 176.304ZM176.622 177.17L177.174 178.003L178.191 177.328L177.331 176.464L176.622 177.17ZM174.89 178.318L174.212 179.054L174.788 179.585L175.442 179.151L174.89 178.318ZM174.221 177.453L175.094 176.964L175.09 176.958L174.221 177.453ZM173.744 176.3L174.698 175.998L174.694 175.985L173.744 176.3ZM174.688 171.534L173.955 170.854L174.688 171.534ZM177.861 170.036L177.984 171.029L178.003 171.026L178.022 171.023L177.861 170.036ZM178.373 170.005L178.37 171.005L178.432 171.005L178.494 170.998L178.373 170.005ZM179.077 169.943L179.08 168.943L179.045 168.943L179.009 168.945L179.077 169.943ZM180.197 169.945L180.194 170.945L194.658 170.976L194.661 169.976L194.664 168.976L180.2 168.945L180.197 169.945ZM194.661 169.976L193.661 169.974L193.654 172.278L194.654 172.28L195.654 172.282L195.661 169.978L194.661 169.976ZM194.654 172.28L194.657 171.28L191.073 171.272L191.07 172.272L191.066 173.272L194.65 173.28L194.654 172.28ZM191.07 172.272L190.07 172.27L190.054 177.166L191.054 177.168L192.054 177.17L192.07 172.274L191.07 172.272ZM191.054 177.168L191.057 176.168L189.009 176.164L189.006 177.164L189.002 178.164L191.05 178.168L191.054 177.168ZM189.006 177.164L190.006 177.166L190.022 172.27L189.022 172.268L188.022 172.266L188.006 177.162L189.006 177.164ZM189.022 172.268L189.025 171.268L178.689 171.246L178.686 172.246L178.682 173.246L189.018 173.268L189.022 172.268ZM178.686 172.246L178.689 171.246C178.231 171.245 177.786 171.295 177.358 171.401L177.597 172.372L177.837 173.342C178.092 173.279 178.373 173.245 178.682 173.246L178.686 172.246ZM177.597 172.372L177.264 171.429C176.885 171.564 176.518 171.748 176.162 171.976L176.7 172.818L177.238 173.66C177.48 173.505 177.711 173.392 177.93 173.314L177.597 172.372ZM176.7 172.818L176.121 172.003C175.643 172.342 175.302 172.813 175.072 173.354L175.993 173.744L176.913 174.134C177.027 173.866 177.158 173.719 177.278 173.633L176.7 172.818ZM175.993 173.744L175.062 173.38C174.867 173.877 174.767 174.394 174.765 174.926L175.765 174.928L176.765 174.93C176.766 174.651 176.818 174.379 176.924 174.109L175.993 173.744ZM175.765 174.928L174.765 174.926C174.763 175.578 174.878 176.197 175.152 176.75L176.048 176.304L176.944 175.859C176.837 175.643 176.763 175.345 176.765 174.93L175.765 174.928ZM176.048 176.304L175.162 176.768C175.387 177.198 175.633 177.595 175.912 177.875L176.622 177.17L177.331 176.464C177.269 176.402 177.134 176.222 176.935 175.841L176.048 176.304ZM176.622 177.17L176.07 176.336L174.338 177.485L174.89 178.318L175.442 179.151L177.174 178.003L176.622 177.17ZM174.89 178.318L175.568 177.582C175.4 177.427 175.24 177.225 175.094 176.964L174.221 177.453L173.347 177.941C173.583 178.363 173.87 178.738 174.212 179.054L174.89 178.318ZM174.221 177.453L175.09 176.958C174.967 176.74 174.833 176.427 174.698 175.998L173.744 176.3L172.79 176.601C172.951 177.111 173.135 177.567 173.351 177.947L174.221 177.453ZM173.744 176.3L174.694 175.985C174.59 175.671 174.524 175.231 174.526 174.637L173.526 174.635L172.526 174.633C172.523 175.362 172.603 176.032 172.795 176.614L173.744 176.3ZM173.526 174.635L174.526 174.637C174.529 173.626 174.837 172.842 175.421 172.213L174.688 171.534L173.955 170.854C172.997 171.886 172.531 173.17 172.526 174.633L173.526 174.635ZM174.688 171.534L175.421 172.213C176.001 171.588 176.825 171.173 177.984 171.029L177.861 170.036L177.738 169.044C176.208 169.235 174.916 169.818 173.955 170.854L174.688 171.534ZM177.861 170.036L178.022 171.023C178.072 171.015 178.181 171.005 178.37 171.005L178.373 170.005L178.376 169.005C178.138 169.005 177.905 169.016 177.7 169.05L177.861 170.036ZM178.373 170.005L178.494 170.998C178.639 170.98 178.853 170.961 179.145 170.94L179.077 169.943L179.009 168.945C178.704 168.966 178.449 168.989 178.252 169.013L178.373 170.005ZM179.077 169.943L179.074 170.943C179.075 170.943 179.075 170.943 179.076 170.943C179.076 170.943 179.077 170.943 179.078 170.943C179.078 170.943 179.079 170.943 179.08 170.943C179.08 170.943 179.081 170.943 179.081 170.943C179.082 170.943 179.083 170.943 179.083 170.943C179.084 170.943 179.085 170.943 179.085 170.943C179.086 170.943 179.086 170.943 179.087 170.943C179.088 170.943 179.088 170.943 179.089 170.943C179.09 170.943 179.09 170.943 179.091 170.943C179.091 170.943 179.092 170.943 179.093 170.943C179.093 170.943 179.094 170.943 179.095 170.943C179.095 170.943 179.096 170.943 179.096 170.943C179.097 170.943 179.098 170.943 179.098 170.943C179.099 170.943 179.1 170.943 179.1 170.943C179.101 170.943 179.102 170.943 179.102 170.943C179.103 170.943 179.103 170.943 179.104 170.943C179.105 170.943 179.105 170.943 179.106 170.943C179.107 170.943 179.107 170.943 179.108 170.943C179.108 170.943 179.109 170.943 179.11 170.943C179.11 170.943 179.111 170.943 179.112 170.943C179.112 170.943 179.113 170.943 179.114 170.943C179.114 170.943 179.115 170.943 179.115 170.943C179.116 170.943 179.117 170.943 179.117 170.943C179.118 170.943 179.119 170.943 179.119 170.943C179.12 170.943 179.121 170.943 179.121 170.943C179.122 170.943 179.122 170.943 179.123 170.943C179.124 170.943 179.124 170.943 179.125 170.943C179.126 170.943 179.126 170.943 179.127 170.943C179.128 170.943 179.128 170.943 179.129 170.943C179.129 170.943 179.13 170.943 179.131 170.943C179.131 170.943 179.132 170.943 179.133 170.943C179.133 170.943 179.134 170.943 179.135 170.943C179.135 170.943 179.136 170.943 179.136 170.943C179.137 170.943 179.138 170.943 179.138 170.943C179.139 170.943 179.14 170.943 179.14 170.943C179.141 170.943 179.142 170.943 179.142 170.943C179.143 170.943 179.143 170.943 179.144 170.943C179.145 170.943 179.145 170.943 179.146 170.943C179.147 170.943 179.147 170.943 179.148 170.943C179.149 170.943 179.149 170.943 179.15 170.943C179.151 170.943 179.151 170.943 179.152 170.943C179.152 170.943 179.153 170.943 179.154 170.943C179.154 170.943 179.155 170.943 179.156 170.943C179.156 170.943 179.157 170.943 179.158 170.943C179.158 170.943 179.159 170.943 179.16 170.943C179.16 170.943 179.161 170.943 179.161 170.943C179.162 170.943 179.163 170.943 179.163 170.943C179.164 170.943 179.165 170.943 179.165 170.943C179.166 170.943 179.167 170.943 179.167 170.943C179.168 170.943 179.169 170.943 179.169 170.943C179.17 170.943 179.17 170.943 179.171 170.943C179.172 170.943 179.172 170.943 179.173 170.943C179.174 170.943 179.174 170.943 179.175 170.943C179.176 170.943 179.176 170.943 179.177 170.943C179.178 170.943 179.178 170.943 179.179 170.943C179.18 170.943 179.18 170.943 179.181 170.943C179.181 170.943 179.182 170.943 179.183 170.943C179.183 170.943 179.184 170.943 179.185 170.943C179.185 170.943 179.186 170.943 179.187 170.943C179.187 170.943 179.188 170.943 179.189 170.943C179.189 170.943 179.19 170.943 179.191 170.943C179.191 170.943 179.192 170.943 179.192 170.943C179.193 170.943 179.194 170.943 179.194 170.943C179.195 170.943 179.196 170.943 179.196 170.943C179.197 170.943 179.198 170.943 179.198 170.943C179.199 170.943 179.2 170.943 179.2 170.943C179.201 170.943 179.202 170.943 179.202 170.943C179.203 170.943 179.204 170.943 179.204 170.943C179.205 170.943 179.206 170.943 179.206 170.943C179.207 170.943 179.207 170.943 179.208 170.943C179.209 170.943 179.209 170.943 179.21 170.943C179.211 170.943 179.211 170.943 179.212 170.943C179.213 170.943 179.213 170.943 179.214 170.943C179.215 170.943 179.215 170.943 179.216 170.943C179.217 170.943 179.217 170.943 179.218 170.943C179.219 170.943 179.219 170.943 179.22 170.943C179.221 170.943 179.221 170.943 179.222 170.943C179.223 170.943 179.223 170.943 179.224 170.943C179.225 170.943 179.225 170.943 179.226 170.943C179.226 170.943 179.227 170.943 179.228 170.943C179.228 170.943 179.229 170.943 179.23 170.943C179.23 170.943 179.231 170.943 179.232 170.943C179.232 170.943 179.233 170.943 179.234 170.943C179.234 170.943 179.235 170.943 179.236 170.943C179.236 170.943 179.237 170.943 179.238 170.943C179.238 170.943 179.239 170.943 179.24 170.943C179.24 170.943 179.241 170.943 179.242 170.943C179.242 170.943 179.243 170.943 179.244 170.943C179.244 170.943 179.245 170.943 179.246 170.943C179.246 170.943 179.247 170.943 179.248 170.943C179.248 170.943 179.249 170.943 179.25 170.943C179.25 170.943 179.251 170.943 179.252 170.943C179.252 170.943 179.253 170.943 179.254 170.943C179.254 170.943 179.255 170.943 179.256 170.943C179.256 170.943 179.257 170.943 179.258 170.943C179.258 170.943 179.259 170.943 179.26 170.943C179.26 170.943 179.261 170.943 179.262 170.943C179.262 170.943 179.263 170.943 179.264 170.943C179.264 170.943 179.265 170.943 179.266 170.943C179.266 170.943 179.267 170.943 179.267 170.943C179.268 170.943 179.269 170.943 179.269 170.943C179.27 170.943 179.271 170.943 179.271 170.943C179.272 170.943 179.273 170.943 179.273 170.943C179.274 170.943 179.275 170.943 179.275 170.943C179.276 170.943 179.277 170.943 179.277 170.943C179.278 170.943 179.279 170.943 179.28 170.943C179.28 170.943 179.281 170.943 179.282 170.943C179.282 170.943 179.283 170.943 179.284 170.943C179.284 170.943 179.285 170.943 179.286 170.943C179.286 170.943 179.287 170.943 179.288 170.943C179.288 170.943 179.289 170.943 179.29 170.943C179.29 170.943 179.291 170.943 179.292 170.943C179.292 170.943 179.293 170.943 179.294 170.943C179.294 170.943 179.295 170.943 179.296 170.943C179.296 170.943 179.297 170.943 179.298 170.943C179.298 170.943 179.299 170.943 179.3 170.943C179.3 170.943 179.301 170.943 179.302 170.943C179.302 170.943 179.303 170.943 179.304 170.943C179.304 170.943 179.305 170.943 179.306 170.943C179.306 170.943 179.307 170.943 179.308 170.943C179.308 170.943 179.309 170.943 179.31 170.943C179.31 170.943 179.311 170.943 179.312 170.943C179.312 170.943 179.313 170.943 179.314 170.943C179.314 170.943 179.315 170.943 179.316 170.943C179.316 170.943 179.317 170.943 179.318 170.943C179.318 170.943 179.319 170.943 179.32 170.943C179.321 170.943 179.321 170.943 179.322 170.943C179.323 170.943 179.323 170.943 179.324 170.943C179.325 170.943 179.325 170.943 179.326 170.943C179.327 170.943 179.327 170.943 179.328 170.943C179.329 170.943 179.329 170.943 179.33 170.943C179.331 170.943 179.331 170.943 179.332 170.943C179.333 170.943 179.333 170.943 179.334 170.943C179.335 170.943 179.335 170.943 179.336 170.943C179.337 170.943 179.337 170.943 179.338 170.943C179.339 170.943 179.34 170.943 179.34 170.943C179.341 170.943 179.342 170.943 179.342 170.943C179.343 170.943 179.344 170.943 179.344 170.943C179.345 170.943 179.346 170.943 179.346 170.943C179.347 170.943 179.348 170.943 179.348 170.943C179.349 170.943 179.35 170.943 179.35 170.943C179.351 170.943 179.352 170.943 179.352 170.943C179.353 170.943 179.354 170.943 179.355 170.943C179.355 170.943 179.356 170.943 179.357 170.943C179.357 170.943 179.358 170.943 179.359 170.943C179.359 170.943 179.36 170.943 179.361 170.943C179.361 170.943 179.362 170.943 179.363 170.943C179.363 170.943 179.364 170.943 179.365 170.943C179.365 170.943 179.366 170.943 179.367 170.943C179.368 170.943 179.368 170.943 179.369 170.943C179.37 170.943 179.37 170.943 179.371 170.943C179.372 170.943 179.372 170.943 179.373 170.943C179.374 170.943 179.374 170.943 179.375 170.943C179.376 170.943 179.376 170.943 179.377 170.943C179.378 170.943 179.378 170.943 179.379 170.943C179.38 170.943 179.381 170.943 179.381 170.943C179.382 170.944 179.383 170.944 179.383 170.944C179.384 170.944 179.385 170.944 179.385 170.944C179.386 170.944 179.387 170.944 179.387 170.944C179.388 170.944 179.389 170.944 179.39 170.944C179.39 170.944 179.391 170.944 179.392 170.944C179.392 170.944 179.393 170.944 179.394 170.944C179.394 170.944 179.395 170.944 179.396 170.944C179.396 170.944 179.397 170.944 179.398 170.944C179.399 170.944 179.399 170.944 179.4 170.944C179.401 170.944 179.401 170.944 179.402 170.944C179.403 170.944 179.403 170.944 179.404 170.944C179.405 170.944 179.405 170.944 179.406 170.944C179.407 170.944 179.408 170.944 179.408 170.944C179.409 170.944 179.41 170.944 179.41 170.944C179.411 170.944 179.412 170.944 179.412 170.944C179.413 170.944 179.414 170.944 179.414 170.944C179.415 170.944 179.416 170.944 179.417 170.944C179.417 170.944 179.418 170.944 179.419 170.944C179.419 170.944 179.42 170.944 179.421 170.944C179.421 170.944 179.422 170.944 179.423 170.944C179.423 170.944 179.424 170.944 179.425 170.944C179.426 170.944 179.426 170.944 179.427 170.944C179.428 170.944 179.428 170.944 179.429 170.944C179.43 170.944 179.43 170.944 179.431 170.944C179.432 170.944 179.433 170.944 179.433 170.944C179.434 170.944 179.435 170.944 179.435 170.944C179.436 170.944 179.437 170.944 179.437 170.944C179.438 170.944 179.439 170.944 179.44 170.944C179.44 170.944 179.441 170.944 179.442 170.944C179.442 170.944 179.443 170.944 179.444 170.944C179.444 170.944 179.445 170.944 179.446 170.944C179.447 170.944 179.447 170.944 179.448 170.944C179.449 170.944 179.449 170.944 179.45 170.944C179.451 170.944 179.451 170.944 179.452 170.944C179.453 170.944 179.454 170.944 179.454 170.944C179.455 170.944 179.456 170.944 179.456 170.944C179.457 170.944 179.458 170.944 179.459 170.944C179.459 170.944 179.46 170.944 179.461 170.944C179.461 170.944 179.462 170.944 179.463 170.944C179.463 170.944 179.464 170.944 179.465 170.944C179.466 170.944 179.466 170.944 179.467 170.944C179.468 170.944 179.468 170.944 179.469 170.944C179.47 170.944 179.47 170.944 179.471 170.944C179.472 170.944 179.473 170.944 179.473 170.944C179.474 170.944 179.475 170.944 179.475 170.944C179.476 170.944 179.477 170.944 179.478 170.944C179.478 170.944 179.479 170.944 179.48 170.944C179.48 170.944 179.481 170.944 179.482 170.944C179.483 170.944 179.483 170.944 179.484 170.944C179.485 170.944 179.485 170.944 179.486 170.944C179.487 170.944 179.487 170.944 179.488 170.944C179.489 170.944 179.49 170.944 179.49 170.944C179.491 170.944 179.492 170.944 179.492 170.944C179.493 170.944 179.494 170.944 179.495 170.944C179.495 170.944 179.496 170.944 179.497 170.944C179.497 170.944 179.498 170.944 179.499 170.944C179.5 170.944 179.5 170.944 179.501 170.944C179.502 170.944 179.502 170.944 179.503 170.944C179.504 170.944 179.505 170.944 179.505 170.944C179.506 170.944 179.507 170.944 179.507 170.944C179.508 170.944 179.509 170.944 179.51 170.944C179.51 170.944 179.511 170.944 179.512 170.944C179.512 170.944 179.513 170.944 179.514 170.944C179.515 170.944 179.515 170.944 179.516 170.944C179.517 170.944 179.517 170.944 179.518 170.944C179.519 170.944 179.52 170.944 179.52 170.944C179.521 170.944 179.522 170.944 179.522 170.944C179.523 170.944 179.524 170.944 179.525 170.944C179.525 170.944 179.526 170.944 179.527 170.944C179.527 170.944 179.528 170.944 179.529 170.944C179.53 170.944 179.53 170.944 179.531 170.944C179.532 170.944 179.532 170.944 179.533 170.944C179.534 170.944 179.535 170.944 179.535 170.944C179.536 170.944 179.537 170.944 179.537 170.944C179.538 170.944 179.539 170.944 179.54 170.944C179.54 170.944 179.541 170.944 179.542 170.944C179.542 170.944 179.543 170.944 179.544 170.944C179.545 170.944 179.545 170.944 179.546 170.944C179.547 170.944 179.548 170.944 179.548 170.944C179.549 170.944 179.55 170.944 179.55 170.944C179.551 170.944 179.552 170.944 179.553 170.944C179.553 170.944 179.554 170.944 179.555 170.944C179.555 170.944 179.556 170.944 179.557 170.944C179.558 170.944 179.558 170.944 179.559 170.944C179.56 170.944 179.56 170.944 179.561 170.944C179.562 170.944 179.563 170.944 179.563 170.944C179.564 170.944 179.565 170.944 179.566 170.944C179.566 170.944 179.567 170.944 179.568 170.944C179.568 170.944 179.569 170.944 179.57 170.944C179.571 170.944 179.571 170.944 179.572 170.944C179.573 170.944 179.574 170.944 179.574 170.944C179.575 170.944 179.576 170.944 179.576 170.944C179.577 170.944 179.578 170.944 179.579 170.944C179.579 170.944 179.58 170.944 179.581 170.944C179.582 170.944 179.582 170.944 179.583 170.944C179.584 170.944 179.584 170.944 179.585 170.944C179.586 170.944 179.587 170.944 179.587 170.944C179.588 170.944 179.589 170.944 179.59 170.944C179.59 170.944 179.591 170.944 179.592 170.944C179.592 170.944 179.593 170.944 179.594 170.944C179.595 170.944 179.595 170.944 179.596 170.944C179.597 170.944 179.598 170.944 179.598 170.944C179.599 170.944 179.6 170.944 179.6 170.944C179.601 170.944 179.602 170.944 179.603 170.944C179.603 170.944 179.604 170.944 179.605 170.944C179.606 170.944 179.606 170.944 179.607 170.944C179.608 170.944 179.609 170.944 179.609 170.944C179.61 170.944 179.611 170.944 179.611 170.944C179.612 170.944 179.613 170.944 179.614 170.944C179.614 170.944 179.615 170.944 179.616 170.944C179.617 170.944 179.617 170.944 179.618 170.944C179.619 170.944 179.619 170.944 179.62 170.944C179.621 170.944 179.622 170.944 179.622 170.944C179.623 170.944 179.624 170.944 179.625 170.944C179.625 170.944 179.626 170.944 179.627 170.944C179.628 170.944 179.628 170.944 179.629 170.944C179.63 170.944 179.631 170.944 179.631 170.944C179.632 170.944 179.633 170.944 179.633 170.944C179.634 170.944 179.635 170.944 179.636 170.944C179.636 170.944 179.637 170.944 179.638 170.944C179.639 170.944 179.639 170.944 179.64 170.944C179.641 170.944 179.642 170.944 179.642 170.944C179.643 170.944 179.644 170.944 179.645 170.944C179.645 170.944 179.646 170.944 179.647 170.944C179.647 170.944 179.648 170.944 179.649 170.944C179.65 170.944 179.65 170.944 179.651 170.944C179.652 170.944 179.653 170.944 179.653 170.944C179.654 170.944 179.655 170.944 179.656 170.944C179.656 170.944 179.657 170.944 179.658 170.944C179.659 170.944 179.659 170.944 179.66 170.944C179.661 170.944 179.662 170.944 179.662 170.944C179.663 170.944 179.664 170.944 179.665 170.944C179.665 170.944 179.666 170.944 179.667 170.944C179.667 170.944 179.668 170.944 179.669 170.944C179.67 170.944 179.67 170.944 179.671 170.944C179.672 170.944 179.673 170.944 179.673 170.944C179.674 170.944 179.675 170.944 179.676 170.944C179.676 170.944 179.677 170.944 179.678 170.944C179.679 170.944 179.679 170.944 179.68 170.944C179.681 170.944 179.682 170.944 179.682 170.944C179.683 170.944 179.684 170.944 179.685 170.944C179.685 170.944 179.686 170.944 179.687 170.944C179.688 170.944 179.688 170.944 179.689 170.944C179.69 170.944 179.691 170.944 179.691 170.944C179.692 170.944 179.693 170.944 179.694 170.944C179.694 170.944 179.695 170.944 179.696 170.944C179.697 170.944 179.697 170.944 179.698 170.944C179.699 170.944 179.7 170.944 179.7 170.944C179.701 170.944 179.702 170.944 179.703 170.944C179.703 170.944 179.704 170.944 179.705 170.944C179.706 170.944 179.706 170.944 179.707 170.944C179.708 170.944 179.709 170.944 179.709 170.944C179.71 170.944 179.711 170.944 179.712 170.944C179.712 170.944 179.713 170.944 179.714 170.944C179.715 170.944 179.715 170.944 179.716 170.944C179.717 170.944 179.718 170.944 179.718 170.944C179.719 170.944 179.72 170.944 179.721 170.944C179.721 170.944 179.722 170.944 179.723 170.944C179.724 170.944 179.724 170.944 179.725 170.944C179.726 170.944 179.727 170.944 179.727 170.944C179.728 170.944 179.729 170.944 179.73 170.944C179.73 170.944 179.731 170.944 179.732 170.944C179.733 170.944 179.733 170.944 179.734 170.944C179.735 170.944 179.736 170.944 179.736 170.944C179.737 170.944 179.738 170.944 179.739 170.944C179.739 170.944 179.74 170.944 179.741 170.944C179.742 170.944 179.742 170.944 179.743 170.944C179.744 170.944 179.745 170.944 179.745 170.944C179.746 170.944 179.747 170.944 179.748 170.944C179.748 170.944 179.749 170.944 179.75 170.944C179.751 170.944 179.752 170.944 179.752 170.944C179.753 170.944 179.754 170.944 179.755 170.944C179.755 170.944 179.756 170.944 179.757 170.944C179.758 170.944 179.758 170.944 179.759 170.944C179.76 170.944 179.761 170.944 179.761 170.944C179.762 170.944 179.763 170.944 179.764 170.944C179.764 170.944 179.765 170.944 179.766 170.944C179.767 170.944 179.767 170.944 179.768 170.944C179.769 170.944 179.77 170.944 179.771 170.944C179.771 170.944 179.772 170.944 179.773 170.944C179.774 170.944 179.774 170.944 179.775 170.944C179.776 170.944 179.777 170.944 179.777 170.944C179.778 170.944 179.779 170.944 179.78 170.944C179.78 170.944 179.781 170.944 179.782 170.944C179.783 170.944 179.783 170.944 179.784 170.944C179.785 170.944 179.786 170.944 179.787 170.944C179.787 170.944 179.788 170.944 179.789 170.944C179.79 170.944 179.79 170.944 179.791 170.944C179.792 170.944 179.793 170.944 179.793 170.944C179.794 170.944 179.795 170.944 179.796 170.944C179.796 170.944 179.797 170.944 179.798 170.944C179.799 170.944 179.8 170.944 179.8 170.944C179.801 170.944 179.802 170.944 179.803 170.944C179.803 170.944 179.804 170.944 179.805 170.944C179.806 170.944 179.806 170.944 179.807 170.944C179.808 170.944 179.809 170.944 179.81 170.944C179.81 170.944 179.811 170.944 179.812 170.944C179.813 170.944 179.813 170.944 179.814 170.944C179.815 170.944 179.816 170.944 179.816 170.944C179.817 170.944 179.818 170.944 179.819 170.944C179.82 170.944 179.82 170.944 179.821 170.944C179.822 170.944 179.823 170.944 179.823 170.944C179.824 170.944 179.825 170.944 179.826 170.944C179.826 170.944 179.827 170.944 179.828 170.944C179.829 170.944 179.83 170.944 179.83 170.944C179.831 170.944 179.832 170.944 179.833 170.944C179.833 170.944 179.834 170.944 179.835 170.944C179.836 170.944 179.836 170.944 179.837 170.944C179.838 170.944 179.839 170.944 179.84 170.944C179.84 170.944 179.841 170.944 179.842 170.944C179.843 170.944 179.843 170.944 179.844 170.944C179.845 170.944 179.846 170.944 179.847 170.944C179.847 170.944 179.848 170.944 179.849 170.944C179.85 170.944 179.85 170.944 179.851 170.944C179.852 170.944 179.853 170.944 179.854 170.944C179.854 170.944 179.855 170.945 179.856 170.945C179.857 170.945 179.857 170.945 179.858 170.945C179.859 170.945 179.86 170.945 179.861 170.945C179.861 170.945 179.862 170.945 179.863 170.945C179.864 170.945 179.864 170.945 179.865 170.945C179.866 170.945 179.867 170.945 179.868 170.945C179.868 170.945 179.869 170.945 179.87 170.945C179.871 170.945 179.871 170.945 179.872 170.945C179.873 170.945 179.874 170.945 179.875 170.945C179.875 170.945 179.876 170.945 179.877 170.945C179.878 170.945 179.878 170.945 179.879 170.945C179.88 170.945 179.881 170.945 179.882 170.945C179.882 170.945 179.883 170.945 179.884 170.945C179.885 170.945 179.885 170.945 179.886 170.945C179.887 170.945 179.888 170.945 179.889 170.945C179.889 170.945 179.89 170.945 179.891 170.945C179.892 170.945 179.892 170.945 179.893 170.945C179.894 170.945 179.895 170.945 179.896 170.945C179.896 170.945 179.897 170.945 179.898 170.945C179.899 170.945 179.9 170.945 179.9 170.945C179.901 170.945 179.902 170.945 179.903 170.945C179.903 170.945 179.904 170.945 179.905 170.945C179.906 170.945 179.907 170.945 179.907 170.945C179.908 170.945 179.909 170.945 179.91 170.945C179.911 170.945 179.911 170.945 179.912 170.945C179.913 170.945 179.914 170.945 179.914 170.945C179.915 170.945 179.916 170.945 179.917 170.945C179.918 170.945 179.918 170.945 179.919 170.945C179.92 170.945 179.921 170.945 179.922 170.945C179.922 170.945 179.923 170.945 179.924 170.945C179.925 170.945 179.925 170.945 179.926 170.945C179.927 170.945 179.928 170.945 179.929 170.945C179.929 170.945 179.93 170.945 179.931 170.945C179.932 170.945 179.933 170.945 179.933 170.945C179.934 170.945 179.935 170.945 179.936 170.945C179.937 170.945 179.937 170.945 179.938 170.945C179.939 170.945 179.94 170.945 179.94 170.945C179.941 170.945 179.942 170.945 179.943 170.945C179.944 170.945 179.944 170.945 179.945 170.945C179.946 170.945 179.947 170.945 179.948 170.945C179.948 170.945 179.949 170.945 179.95 170.945C179.951 170.945 179.952 170.945 179.952 170.945C179.953 170.945 179.954 170.945 179.955 170.945C179.956 170.945 179.956 170.945 179.957 170.945C179.958 170.945 179.959 170.945 179.96 170.945C179.96 170.945 179.961 170.945 179.962 170.945C179.963 170.945 179.963 170.945 179.964 170.945C179.965 170.945 179.966 170.945 179.967 170.945C179.967 170.945 179.968 170.945 179.969 170.945C179.97 170.945 179.971 170.945 179.971 170.945C179.972 170.945 179.973 170.945 179.974 170.945C179.975 170.945 179.975 170.945 179.976 170.945C179.977 170.945 179.978 170.945 179.979 170.945C179.979 170.945 179.98 170.945 179.981 170.945C179.982 170.945 179.983 170.945 179.983 170.945C179.984 170.945 179.985 170.945 179.986 170.945C179.987 170.945 179.987 170.945 179.988 170.945C179.989 170.945 179.99 170.945 179.991 170.945C179.991 170.945 179.992 170.945 179.993 170.945C179.994 170.945 179.995 170.945 179.995 170.945C179.996 170.945 179.997 170.945 179.998 170.945C179.999 170.945 179.999 170.945 180 170.945C180.001 170.945 180.002 170.945 180.003 170.945C180.003 170.945 180.004 170.945 180.005 170.945C180.006 170.945 180.007 170.945 180.007 170.945C180.008 170.945 180.009 170.945 180.01 170.945C180.011 170.945 180.011 170.945 180.012 170.945C180.013 170.945 180.014 170.945 180.015 170.945C180.015 170.945 180.016 170.945 180.017 170.945C180.018 170.945 180.019 170.945 180.019 170.945C180.02 170.945 180.021 170.945 180.022 170.945C180.023 170.945 180.023 170.945 180.024 170.945C180.025 170.945 180.026 170.945 180.027 170.945C180.028 170.945 180.028 170.945 180.029 170.945C180.03 170.945 180.031 170.945 180.032 170.945C180.032 170.945 180.033 170.945 180.034 170.945C180.035 170.945 180.036 170.945 180.036 170.945C180.037 170.945 180.038 170.945 180.039 170.945C180.04 170.945 180.04 170.945 180.041 170.945C180.042 170.945 180.043 170.945 180.044 170.945C180.044 170.945 180.045 170.945 180.046 170.945C180.047 170.945 180.048 170.945 180.049 170.945C180.049 170.945 180.05 170.945 180.051 170.945C180.052 170.945 180.053 170.945 180.053 170.945C180.054 170.945 180.055 170.945 180.056 170.945C180.057 170.945 180.057 170.945 180.058 170.945C180.059 170.945 180.06 170.945 180.061 170.945C180.061 170.945 180.062 170.945 180.063 170.945C180.064 170.945 180.065 170.945 180.066 170.945C180.066 170.945 180.067 170.945 180.068 170.945C180.069 170.945 180.07 170.945 180.07 170.945C180.071 170.945 180.072 170.945 180.073 170.945C180.074 170.945 180.074 170.945 180.075 170.945C180.076 170.945 180.077 170.945 180.078 170.945C180.079 170.945 180.079 170.945 180.08 170.945C180.081 170.945 180.082 170.945 180.083 170.945C180.083 170.945 180.084 170.945 180.085 170.945C180.086 170.945 180.087 170.945 180.088 170.945C180.088 170.945 180.089 170.945 180.09 170.945C180.091 170.945 180.092 170.945 180.092 170.945C180.093 170.945 180.094 170.945 180.095 170.945C180.096 170.945 180.097 170.945 180.097 170.945C180.098 170.945 180.099 170.945 180.1 170.945C180.101 170.945 180.101 170.945 180.102 170.945C180.103 170.945 180.104 170.945 180.105 170.945C180.106 170.945 180.106 170.945 180.107 170.945C180.108 170.945 180.109 170.945 180.11 170.945C180.11 170.945 180.111 170.945 180.112 170.945C180.113 170.945 180.114 170.945 180.115 170.945C180.115 170.945 180.116 170.945 180.117 170.945C180.118 170.945 180.119 170.945 180.119 170.945C180.12 170.945 180.121 170.945 180.122 170.945C180.123 170.945 180.124 170.945 180.124 170.945C180.125 170.945 180.126 170.945 180.127 170.945C180.128 170.945 180.128 170.945 180.129 170.945C180.13 170.945 180.131 170.945 180.132 170.945C180.133 170.945 180.133 170.945 180.134 170.945C180.135 170.945 180.136 170.945 180.137 170.945C180.138 170.945 180.138 170.945 180.139 170.945C180.14 170.945 180.141 170.945 180.142 170.945C180.142 170.945 180.143 170.945 180.144 170.945C180.145 170.945 180.146 170.945 180.147 170.945C180.147 170.945 180.148 170.945 180.149 170.945C180.15 170.945 180.151 170.945 180.152 170.945C180.152 170.945 180.153 170.945 180.154 170.945C180.155 170.945 180.156 170.945 180.157 170.945C180.157 170.945 180.158 170.945 180.159 170.945C180.16 170.945 180.161 170.945 180.161 170.945C180.162 170.945 180.163 170.945 180.164 170.945C180.165 170.945 180.166 170.945 180.166 170.945C180.167 170.945 180.168 170.945 180.169 170.945C180.17 170.945 180.171 170.945 180.171 170.945C180.172 170.945 180.173 170.945 180.174 170.945C180.175 170.945 180.176 170.945 180.176 170.945C180.177 170.945 180.178 170.945 180.179 170.945C180.18 170.945 180.181 170.945 180.181 170.945C180.182 170.945 180.183 170.945 180.184 170.945C180.185 170.945 180.186 170.945 180.186 170.945C180.187 170.945 180.188 170.945 180.189 170.945C180.19 170.945 180.191 170.945 180.191 170.945C180.192 170.945 180.193 170.945 180.194 170.945L180.197 169.945L180.2 168.945C180.2 168.945 180.199 168.945 180.198 168.945C180.197 168.945 180.196 168.945 180.195 168.945C180.195 168.945 180.194 168.945 180.193 168.945C180.192 168.945 180.191 168.945 180.19 168.945C180.19 168.945 180.189 168.945 180.188 168.945C180.187 168.945 180.186 168.945 180.185 168.945C180.185 168.945 180.184 168.945 180.183 168.945C180.182 168.945 180.181 168.945 180.18 168.945C180.18 168.945 180.179 168.945 180.178 168.945C180.177 168.945 180.176 168.945 180.175 168.945C180.175 168.945 180.174 168.945 180.173 168.945C180.172 168.945 180.171 168.945 180.171 168.945C180.17 168.945 180.169 168.945 180.168 168.945C180.167 168.945 180.166 168.945 180.166 168.945C180.165 168.945 180.164 168.945 180.163 168.945C180.162 168.945 180.161 168.945 180.161 168.945C180.16 168.945 180.159 168.945 180.158 168.945C180.157 168.945 180.156 168.945 180.156 168.945C180.155 168.945 180.154 168.945 180.153 168.945C180.152 168.945 180.151 168.945 180.151 168.945C180.15 168.945 180.149 168.945 180.148 168.945C180.147 168.945 180.147 168.945 180.146 168.945C180.145 168.945 180.144 168.945 180.143 168.945C180.142 168.945 180.142 168.945 180.141 168.945C180.14 168.945 180.139 168.945 180.138 168.945C180.137 168.945 180.137 168.945 180.136 168.945C180.135 168.945 180.134 168.945 180.133 168.945C180.133 168.945 180.132 168.945 180.131 168.945C180.13 168.945 180.129 168.945 180.128 168.945C180.128 168.945 180.127 168.945 180.126 168.945C180.125 168.945 180.124 168.945 180.124 168.945C180.123 168.945 180.122 168.945 180.121 168.945C180.12 168.945 180.119 168.945 180.119 168.945C180.118 168.945 180.117 168.945 180.116 168.945C180.115 168.945 180.114 168.945 180.114 168.945C180.113 168.945 180.112 168.945 180.111 168.945C180.11 168.945 180.11 168.945 180.109 168.945C180.108 168.945 180.107 168.945 180.106 168.945C180.105 168.945 180.105 168.945 180.104 168.945C180.103 168.945 180.102 168.945 180.101 168.945C180.101 168.945 180.1 168.945 180.099 168.945C180.098 168.945 180.097 168.945 180.097 168.945C180.096 168.945 180.095 168.945 180.094 168.945C180.093 168.945 180.092 168.945 180.092 168.945C180.091 168.945 180.09 168.945 180.089 168.945C180.088 168.945 180.088 168.945 180.087 168.945C180.086 168.945 180.085 168.945 180.084 168.945C180.083 168.945 180.083 168.945 180.082 168.945C180.081 168.945 180.08 168.945 180.079 168.945C180.079 168.945 180.078 168.945 180.077 168.945C180.076 168.945 180.075 168.945 180.075 168.945C180.074 168.945 180.073 168.945 180.072 168.945C180.071 168.945 180.07 168.945 180.07 168.945C180.069 168.945 180.068 168.945 180.067 168.945C180.066 168.945 180.066 168.945 180.065 168.945C180.064 168.945 180.063 168.945 180.062 168.945C180.062 168.945 180.061 168.945 180.06 168.945C180.059 168.945 180.058 168.945 180.057 168.945C180.057 168.945 180.056 168.945 180.055 168.945C180.054 168.945 180.053 168.945 180.053 168.945C180.052 168.945 180.051 168.945 180.05 168.945C180.049 168.945 180.049 168.945 180.048 168.945C180.047 168.945 180.046 168.945 180.045 168.945C180.045 168.945 180.044 168.945 180.043 168.945C180.042 168.945 180.041 168.945 180.041 168.945C180.04 168.945 180.039 168.945 180.038 168.945C180.037 168.945 180.036 168.945 180.036 168.945C180.035 168.945 180.034 168.945 180.033 168.945C180.032 168.945 180.032 168.945 180.031 168.945C180.03 168.945 180.029 168.945 180.028 168.945C180.028 168.945 180.027 168.945 180.026 168.945C180.025 168.945 180.024 168.945 180.024 168.945C180.023 168.945 180.022 168.945 180.021 168.945C180.02 168.945 180.02 168.945 180.019 168.945C180.018 168.945 180.017 168.945 180.016 168.945C180.016 168.945 180.015 168.945 180.014 168.945C180.013 168.945 180.012 168.945 180.012 168.945C180.011 168.945 180.01 168.945 180.009 168.945C180.008 168.945 180.008 168.945 180.007 168.945C180.006 168.945 180.005 168.945 180.004 168.945C180.004 168.945 180.003 168.945 180.002 168.945C180.001 168.945 180 168.945 180 168.945C179.999 168.945 179.998 168.945 179.997 168.945C179.996 168.945 179.996 168.945 179.995 168.945C179.994 168.945 179.993 168.945 179.992 168.945C179.992 168.945 179.991 168.945 179.99 168.945C179.989 168.945 179.988 168.945 179.988 168.945C179.987 168.945 179.986 168.945 179.985 168.945C179.984 168.945 179.984 168.945 179.983 168.945C179.982 168.945 179.981 168.945 179.98 168.945C179.98 168.945 179.979 168.945 179.978 168.945C179.977 168.945 179.976 168.945 179.976 168.945C179.975 168.945 179.974 168.945 179.973 168.945C179.972 168.945 179.972 168.945 179.971 168.945C179.97 168.945 179.969 168.945 179.968 168.945C179.968 168.945 179.967 168.945 179.966 168.945C179.965 168.945 179.964 168.945 179.964 168.945C179.963 168.945 179.962 168.945 179.961 168.945C179.96 168.945 179.96 168.945 179.959 168.945C179.958 168.945 179.957 168.945 179.957 168.945C179.956 168.945 179.955 168.945 179.954 168.945C179.953 168.945 179.953 168.945 179.952 168.945C179.951 168.945 179.95 168.945 179.949 168.945C179.949 168.945 179.948 168.945 179.947 168.945C179.946 168.945 179.945 168.945 179.945 168.945C179.944 168.945 179.943 168.945 179.942 168.945C179.941 168.945 179.941 168.945 179.94 168.945C179.939 168.945 179.938 168.945 179.938 168.945C179.937 168.945 179.936 168.945 179.935 168.945C179.934 168.945 179.934 168.945 179.933 168.945C179.932 168.945 179.931 168.945 179.93 168.945C179.93 168.945 179.929 168.945 179.928 168.945C179.927 168.945 179.927 168.945 179.926 168.945C179.925 168.945 179.924 168.945 179.923 168.945C179.923 168.945 179.922 168.945 179.921 168.945C179.92 168.945 179.919 168.945 179.919 168.945C179.918 168.945 179.917 168.945 179.916 168.945C179.915 168.945 179.915 168.945 179.914 168.945C179.913 168.945 179.912 168.945 179.912 168.945C179.911 168.945 179.91 168.945 179.909 168.945C179.908 168.945 179.908 168.945 179.907 168.945C179.906 168.945 179.905 168.945 179.905 168.945C179.904 168.945 179.903 168.945 179.902 168.945C179.901 168.945 179.901 168.945 179.9 168.945C179.899 168.945 179.898 168.945 179.897 168.945C179.897 168.945 179.896 168.945 179.895 168.945C179.894 168.945 179.894 168.945 179.893 168.945C179.892 168.945 179.891 168.945 179.89 168.945C179.89 168.945 179.889 168.945 179.888 168.945C179.887 168.945 179.887 168.945 179.886 168.945C179.885 168.945 179.884 168.945 179.883 168.945C179.883 168.945 179.882 168.945 179.881 168.945C179.88 168.945 179.88 168.945 179.879 168.945C179.878 168.945 179.877 168.945 179.876 168.945C179.876 168.945 179.875 168.945 179.874 168.945C179.873 168.945 179.872 168.945 179.872 168.945C179.871 168.945 179.87 168.945 179.869 168.945C179.869 168.945 179.868 168.945 179.867 168.945C179.866 168.945 179.865 168.945 179.865 168.945C179.864 168.945 179.863 168.945 179.862 168.945C179.862 168.945 179.861 168.945 179.86 168.945C179.859 168.945 179.859 168.945 179.858 168.945C179.857 168.945 179.856 168.945 179.855 168.944C179.855 168.944 179.854 168.944 179.853 168.944C179.852 168.944 179.852 168.944 179.851 168.944C179.85 168.944 179.849 168.944 179.848 168.944C179.848 168.944 179.847 168.944 179.846 168.944C179.845 168.944 179.845 168.944 179.844 168.944C179.843 168.944 179.842 168.944 179.841 168.944C179.841 168.944 179.84 168.944 179.839 168.944C179.838 168.944 179.838 168.944 179.837 168.944C179.836 168.944 179.835 168.944 179.835 168.944C179.834 168.944 179.833 168.944 179.832 168.944C179.831 168.944 179.831 168.944 179.83 168.944C179.829 168.944 179.828 168.944 179.828 168.944C179.827 168.944 179.826 168.944 179.825 168.944C179.825 168.944 179.824 168.944 179.823 168.944C179.822 168.944 179.821 168.944 179.821 168.944C179.82 168.944 179.819 168.944 179.818 168.944C179.818 168.944 179.817 168.944 179.816 168.944C179.815 168.944 179.815 168.944 179.814 168.944C179.813 168.944 179.812 168.944 179.811 168.944C179.811 168.944 179.81 168.944 179.809 168.944C179.808 168.944 179.808 168.944 179.807 168.944C179.806 168.944 179.805 168.944 179.805 168.944C179.804 168.944 179.803 168.944 179.802 168.944C179.801 168.944 179.801 168.944 179.8 168.944C179.799 168.944 179.798 168.944 179.798 168.944C179.797 168.944 179.796 168.944 179.795 168.944C179.795 168.944 179.794 168.944 179.793 168.944C179.792 168.944 179.792 168.944 179.791 168.944C179.79 168.944 179.789 168.944 179.788 168.944C179.788 168.944 179.787 168.944 179.786 168.944C179.785 168.944 179.785 168.944 179.784 168.944C179.783 168.944 179.782 168.944 179.782 168.944C179.781 168.944 179.78 168.944 179.779 168.944C179.779 168.944 179.778 168.944 179.777 168.944C179.776 168.944 179.776 168.944 179.775 168.944C179.774 168.944 179.773 168.944 179.772 168.944C179.772 168.944 179.771 168.944 179.77 168.944C179.769 168.944 179.769 168.944 179.768 168.944C179.767 168.944 179.766 168.944 179.766 168.944C179.765 168.944 179.764 168.944 179.763 168.944C179.763 168.944 179.762 168.944 179.761 168.944C179.76 168.944 179.76 168.944 179.759 168.944C179.758 168.944 179.757 168.944 179.757 168.944C179.756 168.944 179.755 168.944 179.754 168.944C179.754 168.944 179.753 168.944 179.752 168.944C179.751 168.944 179.75 168.944 179.75 168.944C179.749 168.944 179.748 168.944 179.747 168.944C179.747 168.944 179.746 168.944 179.745 168.944C179.744 168.944 179.744 168.944 179.743 168.944C179.742 168.944 179.741 168.944 179.741 168.944C179.74 168.944 179.739 168.944 179.738 168.944C179.738 168.944 179.737 168.944 179.736 168.944C179.735 168.944 179.735 168.944 179.734 168.944C179.733 168.944 179.732 168.944 179.732 168.944C179.731 168.944 179.73 168.944 179.729 168.944C179.729 168.944 179.728 168.944 179.727 168.944C179.726 168.944 179.726 168.944 179.725 168.944C179.724 168.944 179.723 168.944 179.723 168.944C179.722 168.944 179.721 168.944 179.72 168.944C179.72 168.944 179.719 168.944 179.718 168.944C179.717 168.944 179.717 168.944 179.716 168.944C179.715 168.944 179.714 168.944 179.714 168.944C179.713 168.944 179.712 168.944 179.711 168.944C179.711 168.944 179.71 168.944 179.709 168.944C179.708 168.944 179.708 168.944 179.707 168.944C179.706 168.944 179.705 168.944 179.705 168.944C179.704 168.944 179.703 168.944 179.702 168.944C179.702 168.944 179.701 168.944 179.7 168.944C179.699 168.944 179.699 168.944 179.698 168.944C179.697 168.944 179.696 168.944 179.696 168.944C179.695 168.944 179.694 168.944 179.693 168.944C179.693 168.944 179.692 168.944 179.691 168.944C179.69 168.944 179.69 168.944 179.689 168.944C179.688 168.944 179.687 168.944 179.687 168.944C179.686 168.944 179.685 168.944 179.684 168.944C179.684 168.944 179.683 168.944 179.682 168.944C179.681 168.944 179.681 168.944 179.68 168.944C179.679 168.944 179.678 168.944 179.678 168.944C179.677 168.944 179.676 168.944 179.676 168.944C179.675 168.944 179.674 168.944 179.673 168.944C179.673 168.944 179.672 168.944 179.671 168.944C179.67 168.944 179.67 168.944 179.669 168.944C179.668 168.944 179.667 168.944 179.667 168.944C179.666 168.944 179.665 168.944 179.664 168.944C179.664 168.944 179.663 168.944 179.662 168.944C179.661 168.944 179.661 168.944 179.66 168.944C179.659 168.944 179.658 168.944 179.658 168.944C179.657 168.944 179.656 168.944 179.655 168.944C179.655 168.944 179.654 168.944 179.653 168.944C179.653 168.944 179.652 168.944 179.651 168.944C179.65 168.944 179.65 168.944 179.649 168.944C179.648 168.944 179.647 168.944 179.647 168.944C179.646 168.944 179.645 168.944 179.644 168.944C179.644 168.944 179.643 168.944 179.642 168.944C179.641 168.944 179.641 168.944 179.64 168.944C179.639 168.944 179.639 168.944 179.638 168.944C179.637 168.944 179.636 168.944 179.636 168.944C179.635 168.944 179.634 168.944 179.633 168.944C179.633 168.944 179.632 168.944 179.631 168.944C179.63 168.944 179.63 168.944 179.629 168.944C179.628 168.944 179.628 168.944 179.627 168.944C179.626 168.944 179.625 168.944 179.625 168.944C179.624 168.944 179.623 168.944 179.622 168.944C179.622 168.944 179.621 168.944 179.62 168.944C179.619 168.944 179.619 168.944 179.618 168.944C179.617 168.944 179.617 168.944 179.616 168.944C179.615 168.944 179.614 168.944 179.614 168.944C179.613 168.944 179.612 168.944 179.611 168.944C179.611 168.944 179.61 168.944 179.609 168.944C179.608 168.944 179.608 168.944 179.607 168.944C179.606 168.944 179.606 168.944 179.605 168.944C179.604 168.944 179.603 168.944 179.603 168.944C179.602 168.944 179.601 168.944 179.6 168.944C179.6 168.944 179.599 168.944 179.598 168.944C179.598 168.944 179.597 168.944 179.596 168.944C179.595 168.944 179.595 168.944 179.594 168.944C179.593 168.944 179.592 168.944 179.592 168.944C179.591 168.944 179.59 168.944 179.59 168.944C179.589 168.944 179.588 168.944 179.587 168.944C179.587 168.944 179.586 168.944 179.585 168.944C179.584 168.944 179.584 168.944 179.583 168.944C179.582 168.944 179.582 168.944 179.581 168.944C179.58 168.944 179.579 168.944 179.579 168.944C179.578 168.944 179.577 168.944 179.576 168.944C179.576 168.944 179.575 168.944 179.574 168.944C179.574 168.944 179.573 168.944 179.572 168.944C179.571 168.944 179.571 168.944 179.57 168.944C179.569 168.944 179.568 168.944 179.568 168.944C179.567 168.944 179.566 168.944 179.566 168.944C179.565 168.944 179.564 168.944 179.563 168.944C179.563 168.944 179.562 168.944 179.561 168.944C179.561 168.944 179.56 168.944 179.559 168.944C179.558 168.944 179.558 168.944 179.557 168.944C179.556 168.944 179.555 168.944 179.555 168.944C179.554 168.944 179.553 168.944 179.553 168.944C179.552 168.944 179.551 168.944 179.55 168.944C179.55 168.944 179.549 168.944 179.548 168.944C179.548 168.944 179.547 168.944 179.546 168.944C179.545 168.944 179.545 168.944 179.544 168.944C179.543 168.944 179.543 168.944 179.542 168.944C179.541 168.944 179.54 168.944 179.54 168.944C179.539 168.944 179.538 168.944 179.538 168.944C179.537 168.944 179.536 168.944 179.535 168.944C179.535 168.944 179.534 168.944 179.533 168.944C179.532 168.944 179.532 168.944 179.531 168.944C179.53 168.944 179.53 168.944 179.529 168.944C179.528 168.944 179.527 168.944 179.527 168.944C179.526 168.944 179.525 168.944 179.525 168.944C179.524 168.944 179.523 168.944 179.522 168.944C179.522 168.944 179.521 168.944 179.52 168.944C179.52 168.944 179.519 168.944 179.518 168.944C179.517 168.944 179.517 168.944 179.516 168.944C179.515 168.944 179.515 168.944 179.514 168.944C179.513 168.944 179.512 168.944 179.512 168.944C179.511 168.944 179.51 168.944 179.51 168.944C179.509 168.944 179.508 168.944 179.507 168.944C179.507 168.944 179.506 168.944 179.505 168.944C179.505 168.944 179.504 168.944 179.503 168.944C179.503 168.944 179.502 168.944 179.501 168.944C179.5 168.944 179.5 168.944 179.499 168.944C179.498 168.944 179.498 168.944 179.497 168.944C179.496 168.944 179.495 168.944 179.495 168.944C179.494 168.944 179.493 168.944 179.493 168.944C179.492 168.944 179.491 168.944 179.49 168.944C179.49 168.944 179.489 168.944 179.488 168.944C179.488 168.944 179.487 168.944 179.486 168.944C179.485 168.944 179.485 168.944 179.484 168.944C179.483 168.944 179.483 168.944 179.482 168.944C179.481 168.944 179.481 168.944 179.48 168.944C179.479 168.944 179.478 168.944 179.478 168.944C179.477 168.944 179.476 168.944 179.476 168.944C179.475 168.944 179.474 168.944 179.473 168.944C179.473 168.944 179.472 168.944 179.471 168.944C179.471 168.944 179.47 168.944 179.469 168.944C179.469 168.944 179.468 168.944 179.467 168.944C179.466 168.944 179.466 168.944 179.465 168.944C179.464 168.944 179.464 168.944 179.463 168.944C179.462 168.944 179.462 168.944 179.461 168.944C179.46 168.944 179.459 168.944 179.459 168.944C179.458 168.944 179.457 168.944 179.457 168.944C179.456 168.944 179.455 168.944 179.455 168.944C179.454 168.944 179.453 168.944 179.452 168.944C179.452 168.944 179.451 168.944 179.45 168.944C179.45 168.944 179.449 168.944 179.448 168.944C179.447 168.944 179.447 168.944 179.446 168.944C179.445 168.944 179.445 168.944 179.444 168.944C179.443 168.944 179.443 168.944 179.442 168.944C179.441 168.944 179.44 168.944 179.44 168.944C179.439 168.944 179.438 168.944 179.438 168.944C179.437 168.944 179.436 168.944 179.436 168.944C179.435 168.944 179.434 168.944 179.434 168.944C179.433 168.944 179.432 168.944 179.431 168.944C179.431 168.944 179.43 168.944 179.429 168.944C179.429 168.944 179.428 168.944 179.427 168.944C179.427 168.944 179.426 168.944 179.425 168.944C179.424 168.944 179.424 168.944 179.423 168.944C179.422 168.944 179.422 168.944 179.421 168.944C179.42 168.944 179.42 168.944 179.419 168.944C179.418 168.944 179.418 168.944 179.417 168.944C179.416 168.944 179.415 168.944 179.415 168.944C179.414 168.944 179.413 168.944 179.413 168.944C179.412 168.944 179.411 168.944 179.411 168.944C179.41 168.944 179.409 168.944 179.408 168.944C179.408 168.944 179.407 168.944 179.406 168.944C179.406 168.944 179.405 168.944 179.404 168.944C179.404 168.944 179.403 168.944 179.402 168.944C179.402 168.944 179.401 168.944 179.4 168.944C179.4 168.944 179.399 168.944 179.398 168.944C179.397 168.944 179.397 168.944 179.396 168.944C179.395 168.944 179.395 168.944 179.394 168.944C179.393 168.944 179.393 168.944 179.392 168.944C179.391 168.944 179.391 168.944 179.39 168.944C179.389 168.944 179.388 168.944 179.388 168.944C179.387 168.944 179.386 168.944 179.386 168.944C179.385 168.944 179.384 168.944 179.384 168.944C179.383 168.943 179.382 168.943 179.382 168.943C179.381 168.943 179.38 168.943 179.38 168.943C179.379 168.943 179.378 168.943 179.377 168.943C179.377 168.943 179.376 168.943 179.375 168.943C179.375 168.943 179.374 168.943 179.373 168.943C179.373 168.943 179.372 168.943 179.371 168.943C179.371 168.943 179.37 168.943 179.369 168.943C179.369 168.943 179.368 168.943 179.367 168.943C179.367 168.943 179.366 168.943 179.365 168.943C179.364 168.943 179.364 168.943 179.363 168.943C179.362 168.943 179.362 168.943 179.361 168.943C179.36 168.943 179.36 168.943 179.359 168.943C179.358 168.943 179.358 168.943 179.357 168.943C179.356 168.943 179.356 168.943 179.355 168.943C179.354 168.943 179.354 168.943 179.353 168.943C179.352 168.943 179.351 168.943 179.351 168.943C179.35 168.943 179.349 168.943 179.349 168.943C179.348 168.943 179.347 168.943 179.347 168.943C179.346 168.943 179.345 168.943 179.345 168.943C179.344 168.943 179.343 168.943 179.343 168.943C179.342 168.943 179.341 168.943 179.341 168.943C179.34 168.943 179.339 168.943 179.339 168.943C179.338 168.943 179.337 168.943 179.337 168.943C179.336 168.943 179.335 168.943 179.334 168.943C179.334 168.943 179.333 168.943 179.332 168.943C179.332 168.943 179.331 168.943 179.33 168.943C179.33 168.943 179.329 168.943 179.328 168.943C179.328 168.943 179.327 168.943 179.326 168.943C179.326 168.943 179.325 168.943 179.324 168.943C179.324 168.943 179.323 168.943 179.322 168.943C179.322 168.943 179.321 168.943 179.32 168.943C179.32 168.943 179.319 168.943 179.318 168.943C179.318 168.943 179.317 168.943 179.316 168.943C179.316 168.943 179.315 168.943 179.314 168.943C179.314 168.943 179.313 168.943 179.312 168.943C179.312 168.943 179.311 168.943 179.31 168.943C179.31 168.943 179.309 168.943 179.308 168.943C179.307 168.943 179.307 168.943 179.306 168.943C179.305 168.943 179.305 168.943 179.304 168.943C179.303 168.943 179.303 168.943 179.302 168.943C179.301 168.943 179.301 168.943 179.3 168.943C179.299 168.943 179.299 168.943 179.298 168.943C179.297 168.943 179.297 168.943 179.296 168.943C179.295 168.943 179.295 168.943 179.294 168.943C179.293 168.943 179.293 168.943 179.292 168.943C179.291 168.943 179.291 168.943 179.29 168.943C179.289 168.943 179.289 168.943 179.288 168.943C179.287 168.943 179.287 168.943 179.286 168.943C179.285 168.943 179.285 168.943 179.284 168.943C179.283 168.943 179.283 168.943 179.282 168.943C179.281 168.943 179.281 168.943 179.28 168.943C179.279 168.943 179.279 168.943 179.278 168.943C179.277 168.943 179.277 168.943 179.276 168.943C179.275 168.943 179.275 168.943 179.274 168.943C179.273 168.943 179.273 168.943 179.272 168.943C179.271 168.943 179.271 168.943 179.27 168.943C179.269 168.943 179.269 168.943 179.268 168.943C179.267 168.943 179.267 168.943 179.266 168.943C179.265 168.943 179.265 168.943 179.264 168.943C179.263 168.943 179.263 168.943 179.262 168.943C179.261 168.943 179.261 168.943 179.26 168.943C179.259 168.943 179.259 168.943 179.258 168.943C179.257 168.943 179.257 168.943 179.256 168.943C179.255 168.943 179.255 168.943 179.254 168.943C179.253 168.943 179.253 168.943 179.252 168.943C179.251 168.943 179.251 168.943 179.25 168.943C179.249 168.943 179.249 168.943 179.248 168.943C179.248 168.943 179.247 168.943 179.246 168.943C179.246 168.943 179.245 168.943 179.244 168.943C179.244 168.943 179.243 168.943 179.242 168.943C179.242 168.943 179.241 168.943 179.24 168.943C179.24 168.943 179.239 168.943 179.238 168.943C179.238 168.943 179.237 168.943 179.236 168.943C179.236 168.943 179.235 168.943 179.234 168.943C179.234 168.943 179.233 168.943 179.232 168.943C179.232 168.943 179.231 168.943 179.23 168.943C179.23 168.943 179.229 168.943 179.228 168.943C179.228 168.943 179.227 168.943 179.226 168.943C179.226 168.943 179.225 168.943 179.224 168.943C179.224 168.943 179.223 168.943 179.223 168.943C179.222 168.943 179.221 168.943 179.221 168.943C179.22 168.943 179.219 168.943 179.219 168.943C179.218 168.943 179.217 168.943 179.217 168.943C179.216 168.943 179.215 168.943 179.215 168.943C179.214 168.943 179.213 168.943 179.213 168.943C179.212 168.943 179.211 168.943 179.211 168.943C179.21 168.943 179.209 168.943 179.209 168.943C179.208 168.943 179.207 168.943 179.207 168.943C179.206 168.943 179.206 168.943 179.205 168.943C179.204 168.943 179.204 168.943 179.203 168.943C179.202 168.943 179.202 168.943 179.201 168.943C179.2 168.943 179.2 168.943 179.199 168.943C179.198 168.943 179.198 168.943 179.197 168.943C179.196 168.943 179.196 168.943 179.195 168.943C179.194 168.943 179.194 168.943 179.193 168.943C179.193 168.943 179.192 168.943 179.191 168.943C179.191 168.943 179.19 168.943 179.189 168.943C179.189 168.943 179.188 168.943 179.187 168.943C179.187 168.943 179.186 168.943 179.185 168.943C179.185 168.943 179.184 168.943 179.183 168.943C179.183 168.943 179.182 168.943 179.182 168.943C179.181 168.943 179.18 168.943 179.18 168.943C179.179 168.943 179.178 168.943 179.178 168.943C179.177 168.943 179.176 168.943 179.176 168.943C179.175 168.943 179.174 168.943 179.174 168.943C179.173 168.943 179.172 168.943 179.172 168.943C179.171 168.943 179.171 168.943 179.17 168.943C179.169 168.943 179.169 168.943 179.168 168.943C179.167 168.943 179.167 168.943 179.166 168.943C179.165 168.943 179.165 168.943 179.164 168.943C179.163 168.943 179.163 168.943 179.162 168.943C179.162 168.943 179.161 168.943 179.16 168.943C179.16 168.943 179.159 168.943 179.158 168.943C179.158 168.943 179.157 168.943 179.156 168.943C179.156 168.943 179.155 168.943 179.154 168.943C179.154 168.943 179.153 168.943 179.153 168.943C179.152 168.943 179.151 168.943 179.151 168.943C179.15 168.943 179.149 168.943 179.149 168.943C179.148 168.943 179.147 168.943 179.147 168.943C179.146 168.943 179.146 168.943 179.145 168.943C179.144 168.943 179.144 168.943 179.143 168.943C179.142 168.943 179.142 168.943 179.141 168.943C179.14 168.943 179.14 168.943 179.139 168.943C179.139 168.943 179.138 168.943 179.137 168.943C179.137 168.943 179.136 168.943 179.135 168.943C179.135 168.943 179.134 168.943 179.133 168.943C179.133 168.943 179.132 168.943 179.132 168.943C179.131 168.943 179.13 168.943 179.13 168.943C179.129 168.943 179.128 168.943 179.128 168.943C179.127 168.943 179.126 168.943 179.126 168.943C179.125 168.943 179.125 168.943 179.124 168.943C179.123 168.943 179.123 168.943 179.122 168.943C179.121 168.943 179.121 168.943 179.12 168.943C179.119 168.943 179.119 168.943 179.118 168.943C179.118 168.943 179.117 168.943 179.116 168.943C179.116 168.943 179.115 168.943 179.114 168.943C179.114 168.943 179.113 168.943 179.112 168.943C179.112 168.943 179.111 168.943 179.111 168.943C179.11 168.943 179.109 168.943 179.109 168.943C179.108 168.943 179.107 168.943 179.107 168.943C179.106 168.943 179.106 168.943 179.105 168.943C179.104 168.943 179.104 168.943 179.103 168.943C179.102 168.943 179.102 168.943 179.101 168.943C179.101 168.943 179.1 168.943 179.099 168.943C179.099 168.943 179.098 168.943 179.097 168.943C179.097 168.943 179.096 168.943 179.095 168.943C179.095 168.943 179.094 168.943 179.094 168.943C179.093 168.943 179.092 168.943 179.092 168.943C179.091 168.943 179.09 168.943 179.09 168.943C179.089 168.943 179.089 168.943 179.088 168.943C179.087 168.943 179.087 168.943 179.086 168.943C179.085 168.943 179.085 168.943 179.084 168.943C179.084 168.943 179.083 168.943 179.082 168.943C179.082 168.943 179.081 168.943 179.08 168.943L179.077 169.943ZM191.045 179.952L192.045 179.954L192.049 178.494L190.686 179.019L191.045 179.952ZM191.036 182.512L191.379 183.451L192.034 183.211L192.036 182.514L191.036 182.512ZM176.971 187.666L176.628 186.728L174.083 187.66L176.622 188.604L176.971 187.666ZM191.002 192.88L192.002 192.882L192.005 192.185L191.352 191.943L191.002 192.88ZM190.997 194.416L191.34 195.355L191.995 195.115L191.997 194.418L190.997 194.416ZM176.932 199.57L176.589 198.631L174.044 199.564L176.583 200.508L176.932 199.57ZM190.963 204.784L191.963 204.786L191.966 204.089L191.313 203.847L190.963 204.784ZM190.955 207.344L190.589 208.275L191.95 208.809L191.955 207.346L190.955 207.344ZM173.569 200.523L172.569 200.521L172.567 201.205L173.203 201.454L173.569 200.523ZM173.576 198.571L173.237 197.631L172.578 197.868L172.576 198.569L173.576 198.571ZM187.256 193.64L187.594 194.581L190.178 193.649L187.602 192.702L187.256 193.64ZM173.608 188.619L172.608 188.617L172.606 189.317L173.262 189.558L173.608 188.619ZM173.614 186.667L173.256 185.734L172.617 185.98L172.614 186.665L173.614 186.667ZM191.045 179.952L190.045 179.95L190.036 182.51L191.036 182.512L192.036 182.514L192.045 179.954L191.045 179.952ZM191.036 182.512L190.693 181.573L176.628 186.728L176.971 187.666L177.314 188.605L191.379 183.451L191.036 182.512ZM176.971 187.666L176.622 188.604L190.653 193.818L191.002 192.88L191.352 191.943L177.321 186.729L176.971 187.666ZM191.002 192.88L190.002 192.878L189.997 194.414L190.997 194.416L191.997 194.418L192.002 192.882L191.002 192.88ZM190.997 194.416L190.654 193.477L176.589 198.631L176.932 199.57L177.275 200.509L191.34 195.355L190.997 194.416ZM176.932 199.57L176.583 200.508L190.614 205.721L190.963 204.784L191.313 203.847L177.282 198.633L176.932 199.57ZM190.963 204.784L189.963 204.782L189.955 207.342L190.955 207.344L191.955 207.346L191.963 204.786L190.963 204.784ZM190.955 207.344L191.321 206.413L173.935 199.592L173.569 200.523L173.203 201.454L190.589 208.275L190.955 207.344ZM173.569 200.523L174.569 200.525L174.576 198.573L173.576 198.571L172.576 198.569L172.569 200.521L173.569 200.523ZM173.576 198.571L173.914 199.512L187.594 194.581L187.256 193.64L186.918 192.699L173.237 197.631L173.576 198.571ZM187.256 193.64L187.602 192.702L173.954 187.681L173.608 188.619L173.262 189.558L186.91 194.579L187.256 193.64ZM173.608 188.619L174.608 188.621L174.614 186.669L173.614 186.667L172.614 186.665L172.608 188.617L173.608 188.619ZM173.614 186.667L173.973 187.6L191.403 180.885L191.045 179.952L190.686 179.019L173.256 185.734L173.614 186.667ZM188.733 211.634L188.024 212.34L188.024 212.34L188.733 211.634ZM190.395 221.974L189.463 221.613L189.463 221.613L190.395 221.974ZM188.498 224.722L189.146 225.483L189.153 225.477L188.498 224.722ZM181.261 226.338L180.261 226.336L180.258 227.206L181.119 227.328L181.261 226.338ZM181.309 211.746L182.309 211.749L182.312 210.749L181.312 210.746L181.309 211.746ZM177.015 213.433L176.255 212.784L177.015 213.433ZM176.157 221.432L177.085 221.059L177.082 221.052L176.157 221.432ZM177.909 223.931L178.606 224.647L179.387 223.887L178.564 223.175L177.909 223.931ZM176.368 225.432L175.739 226.21L176.429 226.768L177.065 226.148L176.368 225.432ZM174.138 222.355L175.065 221.98L175.063 221.975L174.138 222.355ZM175.709 211.607L175.009 210.893L174.999 210.903L175.709 211.607ZM183.165 211.75L183.168 210.75L182.168 210.748L182.165 211.748L183.165 211.75ZM183.124 224.294L182.124 224.292L182.12 225.256L183.084 225.293L183.124 224.294ZM187.16 223.023L186.469 222.301L186.463 222.306L187.16 223.023ZM187.415 213.487L186.645 214.126L186.652 214.134L187.415 213.487ZM182.245 209.316L182.241 210.316C184.85 210.322 186.729 211.038 188.024 212.34L188.733 211.634L189.442 210.928C187.675 209.152 185.228 208.323 182.248 208.316L182.245 209.316ZM188.733 211.634L188.024 212.34C189.342 213.665 190.056 215.56 190.048 218.165L191.048 218.167L192.048 218.169C192.057 215.184 191.228 212.724 189.442 210.928L188.733 211.634ZM191.048 218.167L190.048 218.165C190.043 219.496 189.841 220.639 189.463 221.613L190.395 221.974L191.327 222.335C191.81 221.091 192.043 219.697 192.048 218.169L191.048 218.167ZM190.395 221.974L189.463 221.613C189.087 222.581 188.545 223.358 187.844 223.966L188.498 224.722L189.153 225.477C190.12 224.638 190.843 223.583 191.327 222.335L190.395 221.974ZM188.498 224.722L187.851 223.96C186.358 225.23 184.265 225.755 181.403 225.348L181.261 226.338L181.119 227.328C184.355 227.788 187.087 227.235 189.146 225.483L188.498 224.722ZM181.261 226.338L182.261 226.34L182.309 211.749L181.309 211.746L180.309 211.744L180.261 226.336L181.261 226.338ZM181.309 211.746L181.312 210.746L181.184 210.746L181.181 211.746L181.177 212.746L181.305 212.746L181.309 211.746ZM181.181 211.746L181.184 210.746C179.148 210.742 177.451 211.383 176.255 212.784L177.015 213.433L177.775 214.082C178.506 213.226 179.586 212.743 181.177 212.746L181.181 211.746ZM177.015 213.433L176.255 212.784C175.09 214.148 174.567 215.973 174.56 218.132L175.56 218.134L176.56 218.136C176.566 216.284 177.012 214.975 177.775 214.082L177.015 213.433ZM175.56 218.134L174.56 218.132C174.555 219.46 174.773 220.692 175.231 221.811L176.157 221.432L177.082 221.052C176.737 220.207 176.556 219.24 176.56 218.136L175.56 218.134ZM176.157 221.432L175.229 221.804C175.686 222.946 176.359 223.913 177.254 224.688L177.909 223.931L178.564 223.175C177.926 222.623 177.432 221.925 177.085 221.059L176.157 221.432ZM177.909 223.931L177.211 223.215L175.671 224.716L176.368 225.432L177.065 226.148L178.606 224.647L177.909 223.931ZM176.368 225.432L176.997 224.654C176.161 223.978 175.515 223.095 175.065 221.98L174.138 222.355L173.21 222.73C173.777 224.135 174.617 225.303 175.739 226.21L176.368 225.432ZM174.138 222.355L175.063 221.975C174.613 220.877 174.379 219.602 174.384 218.132L173.384 218.13L172.384 218.128C172.378 219.814 172.647 221.356 173.213 222.736L174.138 222.355ZM173.384 218.13L174.384 218.132C174.392 215.524 175.11 213.63 176.419 212.31L175.709 211.607L174.999 210.903C173.225 212.692 172.393 215.146 172.384 218.128L173.384 218.13ZM175.709 211.607L176.409 212.32C177.735 211.019 179.633 210.311 182.241 210.316L182.245 209.316L182.248 208.316C179.267 208.31 176.807 209.129 175.009 210.893L175.709 211.607ZM183.165 211.75L182.165 211.748L182.124 224.292L183.124 224.294L184.124 224.296L184.165 211.752L183.165 211.75ZM183.124 224.294L183.084 225.293C185.011 225.368 186.659 224.903 187.856 223.739L187.16 223.023L186.463 222.306C185.777 222.973 184.734 223.356 183.163 223.295L183.124 224.294ZM187.16 223.023L187.851 223.745C189.246 222.409 189.864 220.487 189.872 218.165L188.872 218.162L187.872 218.16C187.865 220.147 187.342 221.465 186.469 222.301L187.16 223.023ZM188.872 218.162L189.872 218.165C189.879 216.036 189.35 214.224 188.178 212.84L187.415 213.487L186.652 214.134C187.435 215.059 187.878 216.363 187.872 218.16L188.872 218.162ZM187.415 213.487L188.185 212.849C187 211.418 185.306 210.755 183.264 210.751L183.261 211.751L183.257 212.751C184.842 212.754 185.917 213.248 186.645 214.126L187.415 213.487ZM183.261 211.751L183.264 210.751L183.168 210.75L183.165 211.75L183.161 212.75L183.257 212.751L183.261 211.751ZM173.469 231.214L173.472 230.214L172.472 230.212L172.469 231.212L173.469 231.214ZM197.181 231.264L198.181 231.266L198.184 230.266L197.184 230.264L197.181 231.264ZM197.173 233.568L197.17 234.568L198.17 234.57L198.173 233.57L197.173 233.568ZM173.461 233.518L172.461 233.516L172.458 234.516L173.458 234.518L173.461 233.518ZM173.469 231.214L173.466 232.214L197.178 232.264L197.181 231.264L197.184 230.264L173.472 230.214L173.469 231.214ZM197.181 231.264L196.181 231.262L196.173 233.566L197.173 233.568L198.173 233.57L198.181 231.266L197.181 231.264ZM197.173 233.568L197.177 232.568L173.465 232.518L173.461 233.518L173.458 234.518L197.17 234.568L197.173 233.568ZM173.461 233.518L174.461 233.52L174.469 231.216L173.469 231.214L172.469 231.212L172.461 233.516L173.461 233.518ZM173.441 239.722L173.444 238.722L172.444 238.719L172.441 239.719L173.441 239.722ZM197.153 239.772L198.153 239.774L198.156 238.774L197.156 238.772L197.153 239.772ZM197.146 242.076L197.142 243.076L198.142 243.078L198.146 242.078L197.146 242.076ZM173.434 242.026L172.434 242.023L172.43 243.023L173.43 243.026L173.434 242.026ZM173.441 239.722L173.438 240.722L197.15 240.772L197.153 239.772L197.156 238.772L173.444 238.722L173.441 239.722ZM197.153 239.772L196.153 239.77L196.146 242.074L197.146 242.076L198.146 242.078L198.153 239.774L197.153 239.772ZM197.146 242.076L197.149 241.076L173.437 241.026L173.434 242.026L173.43 243.026L197.142 243.076L197.146 242.076ZM173.434 242.026L174.434 242.028L174.441 239.724L173.441 239.722L172.441 239.719L172.434 242.023L173.434 242.026Z" fill="#D9D9D9" mask="url(#path-3-outside-2_1_15)"/>
</g>
</g>
</svg>
