<svg width="476" height="97" viewBox="0 0 476 97" fill="none" xmlns="http://www.w3.org/2000/svg">
<path id="for hire" d="M1.368 19.328C2.136 13.6107 4.22667 9.04533 7.64 5.632C11.0533 2.21866 15.4907 0.511993 20.952 0.511993C24.024 0.511993 26.6693 0.895994 28.888 1.66399C31.192 2.43199 33.112 3.328 34.648 4.352C36.2693 5.29066 37.5067 6.22933 38.36 7.168C39.2133 8.10666 39.7253 8.704 39.896 8.96L31.064 19.456C30.3813 18.7733 29.6133 18.176 28.76 17.664C28.0773 17.2373 27.2667 16.8533 26.328 16.512C25.3893 16.1707 24.408 16 23.384 16C22.1893 16 21.0373 16.2987 19.928 16.896C19.16 17.3227 18.5627 17.8773 18.136 18.56C17.7947 19.1573 17.5387 19.7973 17.368 20.48C17.1973 21.248 17.112 22.016 17.112 22.784V26.368H31.32V41.6H17.112V96H0.984V28.16C0.984 25.0027 1.02667 22.784 1.112 21.504C1.19733 20.224 1.28267 19.4987 1.368 19.328ZM49.171 61.184C49.171 55.7227 49.9817 50.816 51.603 46.464C53.2243 42.112 55.571 38.4 58.643 35.328C61.715 32.256 65.427 29.9093 69.779 28.288C74.131 26.6667 79.0377 25.856 84.499 25.856C89.9603 25.856 94.867 26.6667 99.219 28.288C103.571 29.9093 107.283 32.256 110.355 35.328C113.427 38.4 115.774 42.112 117.395 46.464C119.016 50.816 119.827 55.7227 119.827 61.184C119.827 66.6453 119.016 71.552 117.395 75.904C115.774 80.256 113.427 83.968 110.355 87.04C107.283 90.112 103.571 92.4587 99.219 94.08C94.867 95.7013 89.9603 96.512 84.499 96.512C79.0377 96.512 74.131 95.7013 69.779 94.08C65.427 92.4587 61.715 90.112 58.643 87.04C55.571 83.968 53.2243 80.256 51.603 75.904C49.9817 71.552 49.171 66.6453 49.171 61.184ZM84.499 81.152C97.299 81.152 103.699 74.496 103.699 61.184C103.699 47.872 97.299 41.216 84.499 41.216C71.699 41.216 65.299 47.872 65.299 61.184C65.299 74.496 71.699 81.152 84.499 81.152ZM136.919 26.368H150.615L151.767 31.232C153.474 29.5253 155.607 28.2027 158.167 27.264C160.727 26.3253 163.884 25.856 167.639 25.856C170.028 25.856 171.991 26.0693 173.527 26.496C174.466 26.6667 175.276 26.88 175.959 27.136V43.008C175.362 42.8373 174.722 42.7093 174.039 42.624C172.759 42.368 171.138 42.24 169.175 42.24C163.628 42.24 159.575 43.6053 157.015 46.336C154.54 48.9813 153.218 53.0773 153.047 58.624V96H136.919V26.368ZM230.104 96V1.15199H246.232V30.592C248.451 29.3973 251.139 28.3307 254.296 27.392C257.453 26.368 261.165 25.856 265.432 25.856C274.733 25.856 281.901 28.4587 286.936 33.664C291.971 38.784 294.488 46.0373 294.488 55.424V96H278.36V58.496C278.36 55.7653 278.147 53.4187 277.72 51.456C277.293 49.408 276.525 47.7013 275.416 46.336C274.392 44.9707 272.941 43.9467 271.064 43.264C269.272 42.5813 266.925 42.24 264.024 42.24C258.904 42.24 254.68 43.52 251.352 46.08C248.109 48.64 246.403 52.608 246.232 57.984V96H230.104ZM317.423 96V26.368H333.551V96H317.423ZM316.911 9.216C316.911 3.49866 319.77 0.639992 325.487 0.639992C328.218 0.639992 330.351 1.36533 331.887 2.81599C333.423 4.26666 334.148 6.4 334.063 9.216C333.892 14.9333 331.034 17.792 325.487 17.792C322.756 17.792 320.623 17.0667 319.087 15.616C317.636 14.08 316.911 11.9467 316.911 9.216ZM356.414 26.368H370.11L371.262 31.232C372.969 29.5253 375.102 28.2027 377.662 27.264C380.222 26.3253 383.379 25.856 387.134 25.856C389.523 25.856 391.486 26.0693 393.022 26.496C393.961 26.6667 394.771 26.88 395.454 27.136V43.008C394.857 42.8373 394.217 42.7093 393.534 42.624C392.254 42.368 390.633 42.24 388.67 42.24C383.123 42.24 379.07 43.6053 376.51 46.336C374.035 48.9813 372.713 53.0773 372.542 58.624V96H356.414V26.368ZM441.304 25.984C446.936 25.984 451.971 26.88 456.408 28.672C460.845 30.3787 464.557 32.9387 467.544 36.352C470.531 39.936 472.621 44.16 473.816 49.024C475.096 53.8027 475.267 59.1787 474.328 65.152L473.816 68.608H423C423 70.5707 423.512 72.3627 424.536 73.984C425.56 75.6053 426.925 76.9707 428.632 78.08C430.339 79.1893 432.344 80.0427 434.648 80.64C437.037 81.2373 439.512 81.536 442.072 81.536C445.827 81.536 449.197 80.8533 452.184 79.488C455.256 78.0373 457.773 76.2027 459.736 73.984L470.232 84.48C467.075 88.4053 462.979 91.4347 457.944 93.568C452.995 95.616 447.448 96.64 441.304 96.64C435.843 96.64 430.936 95.8293 426.584 94.208C422.232 92.5867 418.52 90.24 415.448 87.168C412.376 84.096 410.029 80.384 408.408 76.032C406.787 71.68 405.976 66.7733 405.976 61.312C405.976 55.8507 406.787 50.944 408.408 46.592C410.029 42.24 412.376 38.528 415.448 35.456C418.52 32.384 422.232 30.0373 426.584 28.416C430.936 26.7947 435.843 25.984 441.304 25.984ZM458.968 55.04C458.541 51.6267 457.432 48.896 455.64 46.848C452.483 43.264 447.32 41.5573 440.152 41.728C438.445 41.728 436.611 41.9413 434.648 42.368C432.771 42.7093 430.979 43.3493 429.272 44.288C427.565 45.2267 426.115 46.592 424.92 48.384C423.725 50.0907 423 52.3093 422.744 55.04H458.968Z" fill="hsla(202, 97%, 55%, 1)"/>
</svg>