<?xml version="1.0" encoding="UTF-8" standalone="no"?><!DOCTYPE svg PUBLIC "-//W3C//DTD SVG 1.1//EN" "http://www.w3.org/Graphics/SVG/1.1/DTD/svg11.dtd"><svg width="100%" height="100%" viewBox="0 0 613 437" version="1.1" xmlns="http://www.w3.org/2000/svg" xmlns:xlink="http://www.w3.org/1999/xlink" xml:space="preserve" xmlns:serif="http://www.serif.com/" style="fill-rule:evenodd;clip-rule:evenodd;stroke-linejoin:round;stroke-miterlimit:2;"><g id="hire-icon.png"><path d="M294.298,248.99c-0.044,-1.125 -0.101,-30.44 0.033,-30.715c0.27,-0.552 -0.19,-0.389 -0.691,-0.384c-2.745,0.029 -2.253,-1.649 -2.253,-6.811c0,-12.204 -0.143,-12.522 0.8,-12.98c0.554,-0.269 0.762,-0.37 7.695,-0.309c0.928,0.008 1.72,0.874 1.752,1.275c0.336,4.265 -5.557,1.844 -6.437,2.693c-0.042,0.041 -0.062,3.564 0.01,3.828c0.268,0.988 6.191,-0.582 6.428,1.639c0.442,4.149 -5.633,1.916 -6.435,2.695c-0.115,0.111 -0.04,3.273 -0.033,3.557c0.038,1.611 2.307,-0.287 2.585,-0.417c1.476,-0.687 4.141,-0.37 4.296,-0.321c5.933,1.855 4.239,7.447 4.773,7.963c0.137,0.132 0.173,0.115 16.82,0.115c9.611,0 9.886,0.221 11.345,-1.277c0.638,-0.654 0.53,-0.775 0.53,-9.182c-0,-13.461 0.086,-13.59 -0.533,-14.219c-0.956,-0.973 -1.092,-0.732 -1.993,-1.111c-0.498,-0.209 -0.512,-0.187 -65.509,-0.187c-12.829,0 -13.493,-0.334 -14.703,2.046c-0.367,0.722 -0.319,0.761 -0.319,15.151c0,5.301 -0.627,7.934 3.03,8.773c0.062,0.014 33.171,0.003 33.592,0.006c3.673,0.033 2.114,2.991 1.494,3.327c-0.441,0.239 -0.467,0.22 -35.095,0.22c-0.344,-0 -2.844,-0 -4.123,-1.239c-1.922,-1.862 -1.822,-1.958 -2.3,-3.429c-0.295,-0.91 -0.118,-23.401 -0.083,-23.507c0.407,-1.237 1.046,-3.6 4.82,-4.809c0.514,-0.165 80.327,-0.063 80.418,-0.054c0.589,0.059 2.491,1.05 2.563,1.11c3.174,2.631 2.56,5.914 2.56,7.603c0,19.442 0.1,19.538 -0.637,20.848c-2.208,3.924 -5.119,3.477 -6.897,3.477c-24.881,-0.003 -24.968,-0.012 -25.081,0.205c-0.076,0.144 -0.032,6.107 -0.015,6.147c0.101,0.241 1.224,-0.185 3.508,-0.031c1.26,0.085 2.383,1.625 3.142,1.088c3.234,-2.286 7.272,-1.023 8.709,1.572c0.922,1.666 0.422,2.613 1.842,2.277c0.276,-0.066 2.147,-0.509 3.544,0.244c2.639,1.422 2.892,1.914 3.651,4.247c0.08,0.247 0.073,0.251 0.073,30.007c-0,2.192 -0.021,2.168 -0.258,4.331c-0.111,1.014 -1.864,4.493 -3.854,5.615c-2.259,1.274 -2.294,1.163 -2.488,1.275c-0.687,0.4 -0.745,0.393 -17.252,0.387c-6.898,-0.003 -11.028,-4.999 -11.57,-5.561c-0.137,-0.142 -13.879,-20.635 -13.897,-20.671c-0.323,-0.648 -2.522,-3.596 -2.645,-3.837c-1.014,-1.986 -0.594,-2.102 -0.869,-3.162c-0.155,-0.597 0.03,-0.585 0.089,-1.186c0.137,-1.399 0.26,-1.354 0.871,-2.601c0.73,-1.491 3.334,-2.716 4.497,-2.755c4.741,-0.16 5.367,1.571 10.09,7.276l0.061,0.172c0.025,0.053 1.059,2.257 0.728,0.084c-0.008,-0.049 -0.028,-0.037 -0.377,-0.497l32.173,-9.292c-1.678,-1.231 -3.4,0.314 -3.462,1.623c-0.169,3.578 0.524,9.074 -0.63,10.006c-0.593,0.479 -2.373,0.548 -2.85,-0.387c-0.446,-0.875 -0.278,-0.937 -0.302,-13.7c-0.001,-0.304 -0.006,-3.027 -2.3,-3.03c-0.397,-0 -2.05,0.874 -2.079,2.072c-0.1,4.138 0.245,12.296 -0.224,13.246c-1.062,2.148 -3.514,0.712 -3.549,-0.276c-0.125,-3.56 0.285,-12.515 -0.271,-13.639c-0.087,-0.176 -0.673,-1.362 -2.044,-1.366c-0.083,-0 -1.995,0.428 -2.077,2.034c-0.2,3.912 0.557,12.653 -0.629,13.852c-0.736,0.744 -3.139,0.757 -3.145,-1.13c-0.051,-15.13 0.048,-15.11 0.002,-30.243c-0.005,-1.635 -2.648,-3.951 -4.525,-1.229c-0.382,0.555 -0.33,0.631 -0.331,35.788c-0,1.836 0.533,2.131 -0.876,3.287c-0.424,0.348 -2.163,0.262 -2.61,-0.627c-0.116,-0.231 -7.334,-8.731 -7.698,-9.09c-0.241,-0.239 -0.661,-0.655 -0.719,-0.711c-2.133,-1.562 -5.375,1.154 -3.631,3.366c1.073,1.361 0.829,1.502 1.92,2.881c1.57,1.983 1.168,2.236 2.767,4.218c0.048,0.059 5.483,8.072 5.634,8.261c1.088,1.367 0.835,1.513 1.92,2.88c0.284,0.358 0.05,0.487 3.142,4.771c5.278,7.313 10.952,5.312 23.336,5.622c0.967,0.024 4.622,-0.789 5.816,-4.194c0.359,-1.024 0.298,-1.052 0.302,-31.223c0,-0.919 0.228,-1.954 -0.407,-2.591c-0.16,-0.157 -0.319,-0.314 -0.479,-0.471l-32.173,9.292Z" style="fill:#ffffff;fill-opacity:0.95;"/><path d="M284.565,209.755c-0.193,-0.132 -0.076,-0.215 -0.286,-0.359c-0.016,-0.011 -0.074,-0.051 -0.243,-0.003c-0.579,0.162 0.282,0.662 0.335,0.693c0.228,0.248 0.406,0.441 2.711,3.221c0.088,0.106 0.948,1.143 1.056,1.362c1.247,2.539 -0.931,3.775 -2.149,3.072c-0.375,-0.216 -1.213,-0.701 -3.58,-4.051c-0.624,-0.883 -1.395,-1.713 -1.526,-1.853c-0.007,-0.08 0.166,-0.101 0.159,-0.18c-0.01,-0.113 -0.152,-0.173 -0.199,-0.276c-0.07,-0.155 -0.079,-0.132 -0.173,-0.289c-0.829,-1.352 -0.371,0.433 -0.371,2.389c0,0.952 0.159,3.431 -0.411,4.008c-1.036,1.048 -2.464,0.052 -2.637,-0.068c-0.581,-0.406 -0.496,-0.571 -0.496,-12.58c0,-5.917 -0.452,-7.048 2.004,-7.05c6.674,-0.006 7.214,-0.275 8.919,1.494c0.418,0.433 1.105,1.146 0.755,7.489c-0.036,0.657 -1.257,2.799 -3.869,2.982l-1.005,-8.151c-0.519,0 -2.827,-0.005 -2.908,0.011c-0.526,0.103 -0.352,0.293 -0.353,0.825c-0.001,1.236 -0.012,2.978 0.028,3.145c0.173,0.718 4.158,0.291 4.22,0.267c0.362,-0.143 0.365,-1.591 0.365,-1.732c0.004,-1.788 0.437,-2.616 -1.353,-2.516l1.005,8.151Z" style="fill:#ffffff;fill-opacity:0.95;"/><path d="M311.873,205.328c-0.784,-3.013 -0.403,0.872 -0.395,0.954c0.023,0.233 0.026,9.712 -0.003,10.09c-0.149,1.95 -3.671,2.11 -3.762,-0.24c-0.02,-0.499 -0.006,-16.022 -0.01,-16.092c-0.075,-1.372 1.606,-4.16 4.121,-0.684c0.193,0.267 2.216,3.062 2.492,3.285c0.572,0.462 0.519,-0.121 1.837,-1.681c1.011,-1.197 0.795,-1.331 1.802,-2.536c0.976,-1.168 3.359,-0.657 3.376,1.134c0.013,1.364 0.153,16.353 -0.071,17.05c-0.645,2.012 -3.627,1.527 -3.705,-0.476c-0.159,-4.061 0.01,-9.278 0.036,-10.084c0.024,-0.036 0.331,-0.15 0.364,-0.739c0.041,-0.74 -0.634,-0.413 -0.792,0.493c-0.897,1.499 -2.038,3.65 -4.369,1.243c-0.151,-0.156 -0.707,-1 -0.792,-1.147c0.005,-0.316 0.012,-0.303 -0.128,-0.57Z" style="fill:#ffffff;fill-opacity:0.94;"/><path d="M255.36,216.12c0.162,-2.508 -0.186,-16.992 0.195,-17.458c1.134,-1.389 2.611,-0.662 2.817,-0.56c1.381,0.679 0.561,6.994 0.828,7.648c0.113,0.276 0.2,0.286 3.719,0.204c0.899,-0.021 0.599,-1.064 0.629,-6.396c0.013,-2.352 3.634,-2.182 3.765,-0.248c0.02,0.296 0.02,16.444 -0.001,16.82c-0.048,0.874 -1.108,2.436 -2.766,1.539c-2.108,-1.14 -0.481,-7.152 -1.134,-7.801c-0.405,-0.402 -3.57,-0.122 -3.879,-0.095c-0.965,0.085 0.163,2.841 -0.598,6.843c-0.374,1.965 -3.426,1.736 -3.576,-0.497Z" style="fill:#ffffff;fill-opacity:0.93;"/><path d="M326.16,211.08c-0,1.772 -0.25,3.014 0.601,3.037c2.688,0.07 6.286,-0.739 6.073,2.254c-0.146,2.038 -4.11,1.521 -4.394,1.521c-2.658,-0 -5.849,0.405 -5.852,-1.527c-0.002,-1.384 -0.025,-16.404 0.01,-17.298c0.015,-0.374 0.821,-1.265 1.759,-1.274c6.944,-0.066 7.143,0.034 7.694,0.31c1.294,0.648 0.943,3.388 -0.96,3.464c-1.974,0.079 -4.888,-0.245 -4.923,0.371c-0.217,3.831 0.014,3.893 0.322,3.975c1.301,0.348 6.786,-1.125 6.345,2.299c-0.365,2.832 -6.575,0.738 -6.666,1.886c-0.026,0.327 0.018,0.657 -0.008,0.983Z" style="fill:#ffffff;fill-opacity:0.95;"/><path d="M245.52,244.44c0.289,-5.785 6.196,-5.979 7.567,-5.539c3.99,1.281 4.168,4.56 4.25,4.841c0.406,1.4 0.005,1.547 -0.077,2.15c-0.682,5 -6.462,4.936 -7.553,4.58c-4.189,-1.368 -4.187,-5.444 -4.187,-6.032l8.159,0.24c-0.029,-0.229 0.03,-0.528 -0.312,-0.989c-2.074,-2.798 -3.99,0.087 -4.034,0.52c-0.322,3.212 3.931,3.798 4.345,0.469l-8.159,-0.24Z" style="fill:#ffffff;fill-opacity:0.93;"/><path d="M272.039,217.921c-2.388,-0.293 -2.016,-1.267 -2.016,-9.241c-0,-9.194 -0.302,-10.704 1.526,-10.874c2.777,-0.258 2.264,2.22 2.264,7.514c0,11.48 0.145,11.796 -0.799,12.261c-0.876,0.432 -0.891,0.318 -0.974,0.34Z" style="fill:#ffffff;fill-opacity:0.93;"/><path d="M265.439,273.96c0.163,-1.286 0.321,-1.247 1.518,-2.443c1.025,-1.025 0.179,-1.156 -0.852,-2.18c-1.64,-1.629 -0.032,-3.069 0.4,-3.133c2.114,-0.315 2.799,0.859 3.176,1.236c0.887,0.888 1.043,0.276 1.943,-0.616c1.027,-1.019 2.669,-0.666 3.046,-0.292c1.699,1.69 -1.047,3.791 -1.262,4.01c-0.742,0.757 3.274,2.601 1.314,4.657c-1.43,1.5 -2.728,0.029 -3.816,-1.064c-1.35,-1.356 -1.909,2.495 -4.396,1.529c-0.977,-0.38 -1.058,-1.544 -1.069,-1.704Z" style="fill:#ffffff;fill-opacity:0.91;"/><path d="M266.346,241.626c2.098,-2.003 4.667,0.995 3.218,2.75c-0.832,1.008 -1.027,0.665 -2.338,0.623c-1.022,-0.032 -2.167,-2.049 -0.881,-3.373Z" style="fill:#ffffff;fill-opacity:0.9;"/><path d="M317.161,205.802c0.159,-0.906 0.834,-1.233 0.792,-0.493c-0.033,0.589 -0.34,0.703 -0.364,0.739c-0.143,-0.082 -0.285,-0.164 -0.428,-0.246Z" style="fill:#fefefe;fill-opacity:0.13;"/><path d="M294.226,249.083l0.072,-0.092c0.349,0.46 0.37,0.448 0.377,0.497c0.331,2.173 -0.703,-0.031 -0.728,-0.084c0.102,-0.064 0.095,0.077 0.187,0.019c0.024,-0.015 0.007,-0.025 0.091,-0.34Z" style="fill:#fdfdfd;fill-opacity:0.15;"/><path d="M286.151,246.178c0.089,0.007 0.112,-0.186 0.201,-0.179c0.107,0.009 0.144,0.168 0.241,0.216c0.411,0.201 0.445,0.264 0.277,0.675c-0.241,-0.239 -0.661,-0.655 -0.719,-0.711Z" style="fill:#ffffff;fill-opacity:0.06;"/><path d="M284.565,209.755l-0.193,0.33c-0.053,-0.031 -0.914,-0.53 -0.335,-0.693c0.169,-0.047 0.227,-0.008 0.243,0.003c0.21,0.144 0.092,0.226 0.286,0.359Z" style="fill:#ffffff;fill-opacity:0.09;"/><path d="M326.471,239.699c0.035,-0.015 0.432,-0.183 0.432,-0.183c0.051,0.047 -0.034,0.16 0.016,0.209c0.051,0.05 0.166,-0.04 0.213,0.014c0.025,0.028 -0.013,0.031 -0.182,0.431c-0.16,-0.157 -0.319,-0.314 -0.479,-0.471Z" style="fill:#fefefe;fill-opacity:0.05;"/><path d="M280.671,211.091c0.094,0.157 0.103,0.133 0.173,0.289c0.047,0.103 0.189,0.163 0.199,0.276c0.007,0.08 -0.166,0.101 -0.159,0.18c-0.213,-0.342 -0.166,-0.339 -0.213,-0.745Z" style="fill:#fdfdfd;fill-opacity:0.17;"/><path d="M294.226,249.083c-0.085,0.315 -0.068,0.325 -0.091,0.34c-0.092,0.058 -0.085,-0.084 -0.187,-0.019l-0.061,-0.172c0.113,-0.05 0.226,-0.099 0.34,-0.149Z" style="fill:#cccccc;fill-opacity:0.04;"/><path d="M311.873,205.328c0.14,0.266 0.133,0.254 0.128,0.57c-0.043,-0.19 -0.085,-0.38 -0.128,-0.57Z" style="fill:#c4c4c4;fill-opacity:0.22;"/></g></svg>