<svg width="228" height="44" viewBox="0 0 228 44" fill="none" xmlns="http://www.w3.org/2000/svg">
<g id="atwell">
<path id="l" d="M223.287 0V28.13C223.287 29.394 223.6 30.2241 224.227 30.6203C224.854 30.9977 225.652 31.1863 226.621 31.1863H227.391V41.6855H203.395V31.1863H204.506C205.513 31.1863 206.254 30.875 206.729 30.2524C207.223 29.611 207.47 28.9223 207.47 28.1866V13.6971C207.47 12.6028 207.119 11.801 206.416 11.2916C205.732 10.7633 204.934 10.4992 204.022 10.4992H203.395V0H223.287Z" fill="white"/>
<path id="l_2" d="M196.384 0V28.13C196.384 29.394 196.698 30.2241 197.325 30.6203C197.952 30.9977 198.749 31.1863 199.718 31.1863H200.488V41.6855H176.492V31.1863H177.604C178.61 31.1863 179.351 30.875 179.826 30.2524C180.32 29.611 180.567 28.9223 180.567 28.1866V13.6971C180.567 12.6028 180.216 11.801 179.513 11.2916C178.829 10.7633 178.031 10.4992 177.119 10.4992H176.492V0H196.384Z" fill="white"/>
<path id="e" d="M150.387 27.8469C150.463 30.6581 150.995 32.6013 151.983 33.6767C152.99 34.7332 154.425 35.2615 156.287 35.2615C156.913 35.2615 157.521 35.1766 158.11 35.0068C158.718 34.8181 159.279 34.5257 159.792 34.1295C160.305 33.7144 160.742 33.1767 161.103 32.5164C161.483 31.8372 161.73 30.9882 161.844 29.9694H172.217C171.837 32.4032 171.134 34.4408 170.108 36.0822C169.101 37.7236 167.8 39.0536 166.204 40.0724C164.608 41.0724 162.746 41.7893 160.618 42.2232C158.509 42.676 156.154 42.9024 153.551 42.9024C150.872 42.9024 148.354 42.5628 145.998 41.8836C143.643 41.2044 141.572 40.1762 139.786 38.7989C138.019 37.4028 136.632 35.6577 135.625 33.5635C134.618 31.4504 134.115 28.9412 134.115 26.0358C134.115 23.2624 134.59 20.8286 135.539 18.7344C136.489 16.6402 137.819 14.8951 139.529 13.499C141.258 12.084 143.291 11.018 145.628 10.3011C147.984 9.58417 150.568 9.22571 153.38 9.22571C156.837 9.22571 159.811 9.6785 162.3 10.5841C164.789 11.4897 166.821 12.7537 168.398 14.3763C169.975 15.9988 171.134 17.9515 171.875 20.2343C172.616 22.5172 172.968 25.0547 172.93 27.8469H150.387ZM154.605 16.8666C153.275 16.8666 152.287 17.3383 151.641 18.2816C151.014 19.2061 150.596 20.7437 150.387 22.8945H158.737C158.623 21.0456 158.224 19.5834 157.54 18.508C156.856 17.4138 155.878 16.8666 154.605 16.8666Z" fill="white"/>
<path id="w" d="M102.738 32.7145L99.3177 41.6855H84.413L77.3738 23.4322C77.0128 22.5455 76.5758 21.9229 76.0629 21.5644C75.5689 21.1871 74.7519 20.9984 73.612 20.9984V10.4992H94.758V20.9984C93.865 20.9984 93.276 21.1682 92.991 21.5078C92.7251 21.8285 92.6871 22.3757 92.877 23.1492L95.3849 31.8372H95.8124L98.4913 23.1492C98.9663 21.7153 98.3393 20.9984 96.6104 20.9984V10.4992H115.989V20.9984C115.096 20.9984 114.517 21.1682 114.251 21.5078C113.985 21.8285 113.947 22.3757 114.137 23.1492L116.645 31.8372H117.044L119.723 23.1492C120.198 21.7153 119.58 20.9984 117.87 20.9984V10.4992H132.348V20.9984C131.531 20.9984 130.818 21.1871 130.21 21.5644C129.602 21.9229 129.127 22.5455 128.785 23.4322L121.718 41.6855H106.243L102.738 32.7145Z" fill="white"/>
<path id="t" d="M63.609 0V10.4992H72.13V20.9984H63.609V29.6864C63.609 30.9316 63.7799 31.9504 64.1219 32.7428C64.4829 33.5352 65.2144 33.9314 66.3163 33.9314C66.9243 33.9314 67.4088 33.8182 67.7698 33.5918C68.1497 33.3465 68.4442 33.0352 68.6532 32.6579C68.8812 32.2617 69.0237 31.8184 69.0807 31.3278C69.1377 30.8184 69.1662 30.2713 69.1662 29.6864V25.4698H72.4435V30.026C72.4435 31.8561 72.244 33.5635 71.8451 35.1483C71.4651 36.7331 70.8001 38.1009 69.8502 39.2518C68.9192 40.4026 67.6463 41.3176 66.0313 41.9968C64.4164 42.676 62.3835 43.0156 59.9326 43.0156C57.2158 43.0156 55.0499 42.6855 53.4349 42.0251C51.82 41.3648 50.5946 40.4592 49.7586 39.3084C48.9227 38.1575 48.3717 36.7897 48.1057 35.2049C47.8587 33.6201 47.7352 31.8938 47.7352 30.026V20.9984H43.2609V11.6595C44.6859 11.6595 46.0063 11.3576 47.2222 10.7539C48.4572 10.1313 49.5116 9.28232 50.3856 8.20693C51.2785 7.11267 51.9625 5.86748 52.4375 4.47136C52.9315 3.07524 53.1785 1.58479 53.1785 0H63.609Z" fill="white"/>
<path id="a" d="M15.2753 14.4329C14.3063 14.4329 13.4704 14.5083 12.7674 14.6593C12.0834 14.7913 11.4945 14.9517 11.0005 15.1404C10.5065 15.329 10.098 15.546 9.77503 15.7913C9.45205 16.0176 9.16706 16.2252 8.92007 16.4138L9.20506 16.6968C9.56604 16.5082 9.95552 16.3195 10.3735 16.1308C10.8105 15.9422 11.3615 15.8478 12.0264 15.8478C13.1474 15.8478 14.1163 16.2157 14.9333 16.9515C15.7502 17.6685 16.1587 18.8193 16.1587 20.4041C16.1587 21.9134 15.5318 23.1303 14.2778 24.0548C13.0429 24.9604 11.3805 25.4132 9.29056 25.4132C7.29565 25.4132 5.69973 24.8472 4.50278 23.7152C3.32484 22.5643 2.73587 20.9418 2.73587 18.8476C2.73587 17.6968 3.05885 16.5553 3.70482 15.4234C4.35079 14.2725 5.34824 13.2443 6.69718 12.3387C8.06511 11.4331 9.79403 10.6879 11.8839 10.103C13.9928 9.51814 16.5292 9.22571 19.4931 9.22571C23.0269 9.22571 25.9148 9.55587 28.1567 10.2162C30.3985 10.8765 32.137 11.7255 33.3719 12.7632C34.6258 13.8008 35.4808 14.98 35.9368 16.3006C36.4118 17.6213 36.6492 18.9514 36.6492 20.2909V31.3561C36.6492 33.073 36.7062 34.2427 36.8202 34.8653C36.9342 35.469 37.3617 35.7709 38.1027 35.7709C38.6916 35.7709 39.1001 35.4973 39.3281 34.9502C39.5751 34.3842 39.6986 33.422 39.6986 32.0636V28.5261H42.9474V32.1202C42.9474 33.8182 42.805 35.3275 42.52 36.6482C42.235 37.95 41.6935 39.0725 40.8955 40.0158C40.0976 40.9403 39.0146 41.6384 37.6467 42.11C36.2788 42.6005 34.5308 42.8458 32.4029 42.8458C30.484 42.8458 28.8881 42.6383 27.6152 42.2232C26.3612 41.827 25.3638 41.3271 24.6228 40.7233C23.8819 40.1196 23.3499 39.497 23.0269 38.8555C22.7229 38.1952 22.5709 37.6104 22.5709 37.101H22.1149C22.0009 37.8745 21.6685 38.6103 21.1175 39.3083C20.5855 40.0064 19.8351 40.629 18.8661 41.1761C17.9161 41.7044 16.7667 42.1289 15.4178 42.4496C14.0878 42.7892 12.5679 42.959 10.858 42.959C9.22406 42.959 7.73263 42.7986 6.38369 42.4779C5.05376 42.1761 3.91381 41.695 2.96386 41.0346C2.0329 40.3554 1.30144 39.4876 0.769463 38.4311C0.256488 37.3557 0 36.0822 0 34.6106C0 32.7994 0.512975 31.375 1.53893 30.3373C2.56488 29.2808 3.85682 28.4507 5.41474 27.8469C6.97267 27.2243 8.66359 26.7244 10.4875 26.3471C12.3304 25.9509 14.0308 25.4792 15.5888 24.9321C17.1467 24.3849 18.4386 23.6774 19.4646 22.8096C20.4905 21.9417 21.0035 20.7154 21.0035 19.1306C21.0035 17.7156 20.557 16.5836 19.6641 15.7347C18.7711 14.8668 17.3082 14.4329 15.2753 14.4329ZM21.0035 26.6867C20.5855 27.2904 20.063 27.7809 19.4361 28.1582C18.8091 28.5167 18.2011 28.8752 17.6122 29.2336C17.0422 29.5732 16.5387 29.9883 16.1017 30.4788C15.6837 30.9505 15.4748 31.5919 15.4748 32.4032C15.4748 33.0258 15.6458 33.5918 15.9877 34.1012C16.3297 34.5917 16.9947 34.837 17.9826 34.837C18.8756 34.837 19.5976 34.4974 20.1485 33.8182C20.7185 33.1201 21.0035 32.1485 21.0035 30.9033V26.6867Z" fill="white"/>
</g>
</svg>
