<svg width="50" height="50" viewBox="0 0 50 50" fill="none" xmlns="http://www.w3.org/2000/svg">
<path d="M45.6133 27.7793C45.4128 27.5784 45.1615 27.436 44.8862 27.3672C44.611 27.2983 44.3221 27.3058 44.0508 27.3887C41.0714 28.2894 37.9035 28.3649 34.8846 27.6072C31.8658 26.8495 29.109 25.2869 26.9081 23.086C24.7072 20.8851 23.1447 18.1284 22.387 15.1095C21.6292 12.0906 21.7048 8.92271 22.6055 5.94336C22.6891 5.67188 22.6971 5.38274 22.6286 5.10705C22.5602 4.83136 22.4179 4.57955 22.217 4.37869C22.0162 4.17783 21.7643 4.03552 21.4886 3.96708C21.213 3.89863 20.9238 3.90664 20.6523 3.99023C16.5333 5.25204 12.9171 7.78084 10.3184 11.2168C8.04573 14.2341 6.65948 17.8253 6.31536 21.5871C5.97124 25.3488 6.68288 29.1319 8.37033 32.5115C10.0578 35.8911 12.6542 38.7331 15.8678 40.7184C19.0815 42.7037 22.7851 43.7536 26.5625 43.75C30.9694 43.7634 35.259 42.3308 38.7734 39.6719C42.2094 37.0732 44.7382 33.457 46 29.3379C46.0826 29.0674 46.0903 28.7796 46.0222 28.5051C45.9541 28.2306 45.8128 27.9798 45.6133 27.7793ZM36.8945 37.1758C33.585 39.6685 29.4865 40.8818 25.3534 40.5924C21.2203 40.303 17.3309 38.5303 14.4011 35.6008C11.4712 32.6712 9.69827 28.7819 9.40854 24.6488C9.1188 20.5157 10.3318 16.4171 12.8242 13.1074C14.4481 10.963 16.5474 9.2247 18.957 8.0293C18.8198 8.99263 18.7506 9.96444 18.75 10.9375C18.7557 16.323 20.8976 21.4862 24.7057 25.2943C28.5138 29.1024 33.677 31.2443 39.0625 31.25C40.0375 31.2497 41.0113 31.1805 41.9766 31.043C40.78 33.453 39.0404 35.5524 36.8945 37.1758Z" fill="white"/>
</svg>
