<svg width="48" height="46" viewBox="0 0 48 46" fill="none" xmlns="http://www.w3.org/2000/svg">
<path d="M22.5 7.1875V2.875C22.5 2.49375 22.658 2.12812 22.9393 1.85853C23.2206 1.58895 23.6022 1.4375 24 1.4375C24.3978 1.4375 24.7794 1.58895 25.0607 1.85853C25.342 2.12812 25.5 2.49375 25.5 2.875V7.1875C25.5 7.56875 25.342 7.93438 25.0607 8.20397C24.7794 8.47355 24.3978 8.625 24 8.625C23.6022 8.625 23.2206 8.47355 22.9393 8.20397C22.658 7.93438 22.5 7.56875 22.5 7.1875ZM36 23C36 25.2745 35.2962 27.4979 33.9776 29.3891C32.6591 31.2802 30.7849 32.7542 28.5922 33.6246C26.3995 34.495 23.9867 34.7228 21.6589 34.279C19.3311 33.8353 17.1929 32.74 15.5147 31.1317C13.8365 29.5234 12.6936 27.4743 12.2306 25.2435C11.7676 23.0128 12.0052 20.7005 12.9134 18.5991C13.8217 16.4978 15.3598 14.7017 17.3332 13.4381C19.3065 12.1745 21.6266 11.5 24 11.5C27.1815 11.5033 30.2318 12.716 32.4814 14.8719C34.7311 17.0279 35.9965 19.951 36 23ZM33 23C33 21.2941 32.4722 19.6266 31.4832 18.2082C30.4943 16.7898 29.0887 15.6843 27.4442 15.0315C25.7996 14.3787 23.99 14.2079 22.2442 14.5407C20.4984 14.8735 18.8947 15.695 17.636 16.9012C16.3774 18.1074 15.5202 19.6443 15.1729 21.3173C14.8257 22.9904 15.0039 24.7246 15.6851 26.3006C16.3663 27.8767 17.5198 29.2237 18.9999 30.1714C20.4799 31.1192 22.22 31.625 24 31.625C26.3862 31.6226 28.6739 30.7132 30.3612 29.0962C32.0485 27.4792 32.9975 25.2868 33 23ZM10.9388 12.517C11.2202 12.7868 11.602 12.9383 12 12.9383C12.398 12.9383 12.7798 12.7868 13.0612 12.517C13.3427 12.2473 13.5008 11.8815 13.5008 11.5C13.5008 11.1185 13.3427 10.7527 13.0613 10.483L10.0612 7.60797C9.77979 7.33824 9.39805 7.1867 9 7.1867C8.60195 7.1867 8.22021 7.33824 7.93875 7.60797C7.65729 7.8777 7.49917 8.24354 7.49917 8.625C7.49917 9.00646 7.65729 9.3723 7.93875 9.64203L10.9388 12.517ZM10.9388 33.483L7.93875 36.358C7.65729 36.6277 7.49917 36.9935 7.49917 37.375C7.49917 37.7565 7.65729 38.1223 7.93875 38.392C8.22021 38.6618 8.60195 38.8133 9 38.8133C9.39805 38.8133 9.77979 38.6618 10.0612 38.392L13.0613 35.517C13.2006 35.3835 13.3112 35.2249 13.3866 35.0504C13.462 34.8759 13.5008 34.6889 13.5008 34.5C13.5008 34.3111 13.462 34.1241 13.3866 33.9496C13.3112 33.7751 13.2006 33.6165 13.0613 33.483C12.9219 33.3494 12.7564 33.2435 12.5743 33.1712C12.3923 33.0989 12.1971 33.0617 12 33.0617C11.8029 33.0617 11.6077 33.0989 11.4257 33.1712C11.2436 33.2435 11.0781 33.3494 10.9388 33.483ZM36 12.9375C36.197 12.9376 36.3922 12.9006 36.5743 12.8284C36.7564 12.7563 36.9218 12.6505 37.0613 12.517L40.0613 9.64203C40.3427 9.3723 40.5008 9.00646 40.5008 8.625C40.5008 8.24354 40.3427 7.8777 40.0613 7.60797C39.7798 7.33824 39.398 7.1867 39 7.1867C38.602 7.1867 38.2202 7.33824 37.9387 7.60797L34.9387 10.483C34.7287 10.684 34.5857 10.9402 34.5277 11.2192C34.4697 11.4982 34.4994 11.7875 34.6131 12.0503C34.7267 12.3131 34.9191 12.5377 35.166 12.6956C35.4129 12.8535 35.7032 12.9377 36 12.9375ZM37.0613 33.483C36.7798 33.2132 36.398 33.0617 36 33.0617C35.602 33.0617 35.2202 33.2132 34.9387 33.483C34.6573 33.7527 34.4992 34.1185 34.4992 34.5C34.4992 34.8815 34.6573 35.2473 34.9387 35.517L37.9387 38.392C38.0781 38.5256 38.2436 38.6315 38.4257 38.7038C38.6077 38.7761 38.8029 38.8133 39 38.8133C39.1971 38.8133 39.3923 38.7761 39.5743 38.7038C39.7564 38.6315 39.9219 38.5256 40.0613 38.392C40.2006 38.2585 40.3112 38.0999 40.3866 37.9254C40.462 37.7509 40.5008 37.5639 40.5008 37.375C40.5008 37.1861 40.462 36.9991 40.3866 36.8246C40.3112 36.6501 40.2006 36.4915 40.0613 36.358L37.0613 33.483ZM9 23C9 22.6188 8.84196 22.2531 8.56066 21.9835C8.27936 21.714 7.89782 21.5625 7.5 21.5625H3C2.60218 21.5625 2.22064 21.714 1.93934 21.9835C1.65804 22.2531 1.5 22.6188 1.5 23C1.5 23.3812 1.65804 23.7469 1.93934 24.0165C2.22064 24.2861 2.60218 24.4375 3 24.4375H7.5C7.89782 24.4375 8.27936 24.2861 8.56066 24.0165C8.84196 23.7469 9 23.3812 9 23ZM24 37.375C23.6022 37.375 23.2206 37.5264 22.9393 37.796C22.658 38.0656 22.5 38.4313 22.5 38.8125V43.125C22.5 43.5062 22.658 43.8719 22.9393 44.1415C23.2206 44.4111 23.6022 44.5625 24 44.5625C24.3978 44.5625 24.7794 44.4111 25.0607 44.1415C25.342 43.8719 25.5 43.5062 25.5 43.125V38.8125C25.5 38.4313 25.342 38.0656 25.0607 37.796C24.7794 37.5264 24.3978 37.375 24 37.375ZM45 21.5625H40.5C40.1022 21.5625 39.7206 21.714 39.4393 21.9835C39.158 22.2531 39 22.6188 39 23C39 23.3812 39.158 23.7469 39.4393 24.0165C39.7206 24.2861 40.1022 24.4375 40.5 24.4375H45C45.3978 24.4375 45.7794 24.2861 46.0607 24.0165C46.342 23.7469 46.5 23.3812 46.5 23C46.5 22.6188 46.342 22.2531 46.0607 21.9835C45.7794 21.714 45.3978 21.5625 45 21.5625Z" fill="white"/>
</svg>
