<svg width="158" height="189" viewBox="0 0 158 189" fill="none" xmlns="http://www.w3.org/2000/svg">
<g clip-path="url(#clip0_19_14)">
<path d="M37.1843 12.728V25.456H61.1505V16.9707H47.1921V8.48535H61.1505V0H37.1843V12.728ZM65.9174 8.28438L65.9569 16.5799L72.9097 16.6134L79.8493 16.6358V18.0872H65.891V25.791H89.8572V8.8203H75.8989V7.36886H89.8572V0H65.891L65.9174 8.28438ZM94.7294 8.31788V16.6358H108.556V18.0872H94.7294V25.791H118.564V8.8203H104.737V7.36886H118.564V0H94.7294V8.31788ZM0.102584 37.5365C0.142089 37.7375 3.38147 68.4745 7.3056 105.844C11.2297 143.213 14.4428 173.793 14.4559 173.805C14.4691 173.816 28.9673 177.243 46.6918 181.408L78.9144 189L111.216 181.408C128.98 177.232 143.531 173.805 143.531 173.793C143.544 173.793 146.757 143.235 150.681 105.899C154.605 68.5639 157.845 37.8268 157.884 37.5923L157.963 37.1792H0.0367432L0.102584 37.5365ZM128.44 65.3372C128.44 65.5828 127.505 74.5036 122.001 126.767C120.631 139.774 119.459 150.459 119.393 150.503C119.249 150.615 79.2699 159.993 78.9539 159.993C78.7037 159.993 38.5275 150.57 38.4353 150.481C38.4089 150.459 37.79 144.742 37.0658 137.775C36.3284 130.808 35.7095 124.891 35.6568 124.623L35.5909 124.154H45.5329C51.0109 124.154 55.4881 124.165 55.5013 124.176C55.5013 124.199 55.8173 127.191 56.2124 130.831C56.5943 134.482 56.9366 137.474 56.963 137.496C56.9893 137.518 61.9274 138.668 67.9584 140.042L78.9012 142.554L89.8703 140.042C95.9146 138.657 100.879 137.507 100.905 137.496C100.958 137.44 103.144 116.763 103.157 116.193V115.78H34.6823V115.501C34.6823 115.345 34.3005 111.582 33.8264 107.15C33.3523 102.717 32.9705 99.0776 32.9705 99.0553C32.9705 99.0441 49.1805 99.033 68.9855 99.033H105.001V98.7538C105.001 98.6087 105.383 94.8126 105.857 90.3466C106.331 85.8695 106.713 82.1181 106.713 82.0176C106.713 81.8501 103.802 81.839 68.9592 81.8166L31.1928 81.7831L30.3895 74.191C29.9418 70.0153 29.5336 66.2639 29.4809 65.8396L29.4019 65.0916H128.44V65.3372Z" fill="#68A3E8"/>
</g>
<defs>
<clipPath id="clip0_19_14">
<rect width="158" height="189" fill="white"/>
</clipPath>
</defs>
</svg>

