<svg width="294" height="110" viewBox="0 0 294 110" fill="none" xmlns="http://www.w3.org/2000/svg">
<g clip-path="url(#clip0_19_95)">
<path d="M56.6732 46.9379H31.9469C31.3091 46.9379 30.7914 47.6523 30.7914 48.5313V65.1922C30.7914 66.0713 31.3091 66.7865 31.9469 66.7865H41.5927V87.4862C41.5927 87.4862 39.4268 88.5037 33.4389 88.5037C26.3744 88.5037 16.5056 84.9462 16.5056 55.0391C16.5056 25.1253 26.7819 21.1895 36.4295 21.1895C44.7806 21.1895 48.3784 23.2161 50.6675 24.1922C51.3868 24.4962 52.0522 23.5091 52.0522 22.6292L54.8106 6.53147C54.8106 6.12024 54.7095 5.62458 54.3688 5.28766C53.4393 4.37401 47.7675 0 33.4389 0C16.932 0 0 9.67856 0 56.2052C0 102.734 19.3859 109.667 35.7218 109.667C49.2478 109.667 57.4532 101.701 57.4532 101.701C57.7914 101.443 57.8281 100.792 57.8281 100.493V48.5313C57.8281 47.6523 57.311 46.9379 56.6732 46.9379ZM184.035 5.82386C184.035 4.93723 183.525 4.22202 182.887 4.22202H168.964C168.328 4.22202 167.811 4.93723 167.811 5.82386C167.811 5.82808 167.815 42.9042 167.815 42.9042H146.114V5.82386C146.114 4.93723 145.602 4.22202 144.965 4.22202H131.043C130.41 4.22202 129.893 4.93723 129.893 5.82386V106.226C129.893 107.112 130.41 107.833 131.043 107.833H144.965C145.602 107.833 146.114 107.112 146.114 106.226V63.2805H167.815C167.815 63.2805 167.777 106.223 167.777 106.226C167.777 107.112 168.294 107.833 168.93 107.833H182.886C183.524 107.833 184.033 107.112 184.035 106.226V5.82386ZM82.9005 19.2474C82.9005 12.3384 78.8812 6.75523 73.9226 6.75523C68.9689 6.75523 64.9465 12.3384 64.9465 19.2474C64.9465 26.1487 68.9689 31.7471 73.9226 31.7471C78.8812 31.7471 82.9005 26.1487 82.9005 19.2474ZM81.7958 85.0991V38.7531C81.7958 37.8732 81.2806 37.1538 80.644 37.1538H66.7656C66.129 37.1538 65.5592 38.059 65.5592 38.9389V105.339C65.5592 107.29 66.4415 107.87 67.5836 107.87H80.0876C81.4595 107.87 81.7958 106.942 81.7958 105.307V85.0991ZM237.245 37.1538H223.429C222.796 37.1538 222.28 37.8732 222.28 38.759V87.9895C222.28 87.9895 218.77 91.5284 213.789 91.5284C208.807 91.5284 207.485 88.4134 207.485 81.6911V38.759C207.485 37.8732 206.97 37.1538 206.336 37.1538H192.315C191.682 37.1538 191.163 37.8732 191.163 38.759V84.942C191.163 104.909 199.238 109.794 210.346 109.794C219.459 109.794 226.807 102.855 226.807 102.855C226.807 102.855 227.157 106.511 227.315 106.946C227.473 107.378 227.886 107.814 228.331 107.814L237.251 107.76C237.884 107.76 238.403 107.039 238.403 106.158L238.398 38.759C238.398 37.8732 237.882 37.1538 237.245 37.1538ZM269.077 91.5664C264.285 91.3654 261.035 88.3686 261.035 88.3686V56.5734C261.035 56.5734 264.242 53.8646 268.176 53.3799C273.151 52.766 277.945 54.8373 277.945 71.1934C277.945 88.4412 275.781 91.845 269.077 91.5664ZM274.526 34.9972C266.68 34.9972 261.342 39.8221 261.342 39.8221V5.82386C261.342 4.93723 260.828 4.22202 260.194 4.22202H246.232C245.597 4.22202 245.081 4.93723 245.081 5.82386V106.226C245.081 107.112 245.597 107.833 246.234 107.833H255.921C256.357 107.833 256.687 107.523 256.931 106.98C257.172 106.441 257.519 102.351 257.519 102.351C257.519 102.351 263.228 109.807 274.036 109.807C286.724 109.807 294 100.938 294 69.9893C294 39.041 282.379 34.9972 274.526 34.9972ZM121.866 36.9815H111.422C111.422 36.9815 111.407 17.9715 111.407 17.9672C111.407 17.2478 111.138 16.8881 110.534 16.8881H96.3022C95.7489 16.8881 95.4518 17.2233 95.4518 17.9563V37.6055C95.4518 37.6055 88.3199 39.9783 87.8377 40.17C87.3573 40.3617 87.0038 40.9722 87.0038 41.7001V54.0478C87.0038 54.9361 87.5185 55.6522 88.1551 55.6522H95.4518V85.3566C95.4518 107.42 106.681 109.588 114.259 109.588C117.722 109.588 121.864 108.055 122.547 107.707C122.961 107.498 123.201 106.908 123.201 106.267L123.213 92.6844C123.213 91.7986 122.67 91.0817 122.058 91.0817C121.45 91.0817 119.893 91.4228 118.29 91.4228C113.161 91.4228 111.422 88.1356 111.422 83.8806C111.422 79.629 111.422 55.6522 111.422 55.6522H121.866C122.503 55.6522 123.018 54.9361 123.018 54.0478V38.5817C123.018 37.6959 122.503 36.9815 121.866 36.9815Z" fill="white"/>
</g>
<defs>
<clipPath id="clip0_19_95">
<rect width="294" height="110" fill="white"/>
</clipPath>
</defs>
</svg>

