<svg width="294" height="110" viewBox="0 0 294 110" fill="none" xmlns="http://www.w3.org/2000/svg">
<path d="M0.5 0.5H293.5V109.5H0.5V0.5Z" fill="#262626" stroke="white"/>
<path d="M93.6059 71.2011C93.6059 70.8451 93.7553 70.6926 94.1047 70.6926H99.6439C99.8436 70.6926 99.9435 70.8451 99.9435 71.2011V71.4552C99.9435 71.8115 99.8438 71.9638 99.6439 71.9638H95.0031V75.6757H99.1451C99.3445 75.6757 99.4445 75.8283 99.4445 76.1843V76.4386C99.4445 76.7946 99.3448 76.9472 99.1451 76.9472H95.0031V80.9135H99.6439C99.8436 80.9135 99.9435 81.0658 99.9435 81.4218V81.6762C99.9435 82.0322 99.8438 82.1847 99.6439 82.1847H94.055C93.7056 82.1847 93.5559 82.0322 93.5559 81.6762V71.2013L93.6059 71.2011ZM102.04 81.7776L102.09 76.0317L102.088 75.843C102.07 74.6466 101.89 74.0463 101.89 73.9979C101.89 73.6928 102.539 73.6419 102.738 73.6419C103.138 73.6419 103.187 74.3029 103.287 74.7096C103.936 73.9469 104.884 73.4893 105.782 73.4893C107.429 73.4893 108.377 74.4552 108.377 76.1336V81.7776C108.377 81.981 108.178 82.1336 107.729 82.1336H107.679C107.23 82.1336 107.03 81.9813 107.03 81.7776V76.2859C107.03 75.3197 106.432 74.7096 105.384 74.7096C104.685 74.7096 103.886 75.1675 103.388 75.8283V81.7776C103.388 81.981 103.188 82.1338 102.739 82.1338H102.689C102.24 82.1338 102.04 81.9813 102.04 81.7776ZM111.92 81.4218C111.322 81.1674 110.922 80.761 110.922 80.0997C110.922 79.2861 111.571 78.9301 112.12 78.7269C111.172 78.2693 110.673 77.3538 110.673 76.2861C110.673 74.7608 111.771 73.4896 113.867 73.4896C114.266 73.4896 114.615 73.5403 114.915 73.5912H117.659C117.859 73.5912 117.959 73.7435 117.959 74.0995V74.3029C117.959 74.6589 117.859 74.8112 117.659 74.8112H116.561C116.911 75.2691 117.11 75.7773 117.11 76.3368C117.11 77.8621 116.013 79.1333 113.917 79.1333H113.767C113.368 79.1333 112.419 79.2352 112.419 79.7944C112.419 81.0656 117.809 79.7944 117.809 82.9978C117.809 84.4216 116.412 85.5405 113.817 85.5405L113.639 85.5393C111.636 85.5133 110.224 85.0349 110.224 83.4047C110.124 82.4389 110.873 81.7778 111.92 81.4218ZM113.916 84.3202C115.363 84.3202 116.312 83.761 116.312 82.9981C116.312 82.032 114.615 81.9303 113.118 81.676C112.469 81.9303 111.521 82.4895 111.521 83.2013C111.521 84.117 112.619 84.3202 113.916 84.3202ZM115.663 76.2859C115.663 75.0382 114.894 74.6722 113.922 74.659L113.866 74.6587C112.869 74.6587 112.07 75.0653 112.07 76.2859C112.07 77.5573 112.869 77.9133 113.866 77.9133L113.976 77.9118C114.923 77.8857 115.663 77.5102 115.663 76.2859ZM124.346 76.7946V76.0317C124.346 75.3197 123.897 74.6589 122.6 74.6589C121.152 74.6589 120.254 75.3197 120.104 75.3197C119.905 75.3197 119.556 74.7096 119.556 74.5061C119.556 74.0992 120.953 73.4893 122.55 73.4893C124.546 73.4893 125.694 74.4552 125.694 76.0317V79.6421C125.694 80.9642 125.893 81.6253 125.893 81.676C125.893 81.9813 125.244 82.032 125.045 82.032C124.646 82.032 124.596 81.3711 124.496 80.9135C123.897 81.5743 122.999 82.1338 121.801 82.1338C120.254 82.1338 119.056 81.3711 119.056 79.6933C119.056 76.9979 121.951 76.7946 124.346 76.7946ZM121.851 80.9642C122.999 80.9642 123.698 80.405 124.346 79.8456V77.9136L124.019 77.914C122.424 77.9206 120.504 78.0225 120.504 79.5917C120.504 80.5066 120.953 80.9642 121.851 80.9642ZM129.337 81.4218C128.738 81.1674 128.339 80.761 128.339 80.0997C128.339 79.2861 128.987 78.9301 129.536 78.7269C128.588 78.2693 128.089 77.3538 128.089 76.2861C128.089 74.7608 129.187 73.4896 131.283 73.4896C131.682 73.4896 132.032 73.5403 132.331 73.5912H135.076C135.275 73.5912 135.375 73.7435 135.375 74.0995V74.3029C135.375 74.6589 135.275 74.8112 135.076 74.8112H133.978C134.327 75.2691 134.527 75.7773 134.527 76.3368C134.527 77.8621 133.429 79.1333 131.333 79.1333H131.183C130.784 79.1333 129.836 79.2352 129.836 79.7944C129.836 81.0656 135.226 79.7944 135.226 82.9978C135.226 84.4216 133.828 85.5405 131.233 85.5405L131.055 85.5393C129.053 85.5133 127.64 85.0349 127.64 83.4047C127.54 82.4389 128.239 81.7778 129.337 81.4218ZM131.283 84.3202C132.73 84.3202 133.678 83.761 133.678 82.9981C133.678 82.032 131.981 81.9303 130.484 81.676C129.836 81.9303 128.887 82.4895 128.887 83.2013C128.887 84.117 129.985 84.3202 131.283 84.3202ZM133.029 76.2859C133.029 75.0382 132.26 74.6722 131.288 74.659L131.233 74.6587C130.235 74.6587 129.436 75.0653 129.436 76.2859C129.436 77.5573 130.235 77.9133 131.233 77.9133L131.343 77.9118C132.289 77.8857 133.029 77.5102 133.029 76.2859ZM137.072 71.2011V70.235C137.072 70.0315 137.271 69.879 137.72 69.879H137.92C138.369 69.879 138.568 70.0312 138.568 70.235V71.2011C138.568 71.4043 138.369 71.5571 137.92 71.5571H137.72C137.271 71.5571 137.072 71.4045 137.072 71.2011ZM137.121 73.896C137.121 73.6928 137.321 73.54 137.77 73.54H137.82C138.269 73.54 138.469 73.6925 138.469 73.896V81.7269C138.469 81.9301 138.269 82.0829 137.82 82.0829H137.77C137.321 82.0829 137.121 81.9304 137.121 81.7269V73.896ZM141.264 76.0317C141.264 74.7096 141.064 74.0488 141.064 73.9979C141.064 73.6928 141.713 73.6419 141.913 73.6419C142.312 73.6419 142.362 74.3029 142.461 74.7096C143.11 73.9469 144.058 73.4893 144.957 73.4893C146.604 73.4893 147.552 74.4552 147.552 76.1336V81.7776C147.552 81.981 147.352 82.1336 146.903 82.1336H146.853C146.404 82.1336 146.204 81.9813 146.204 81.7776V76.2859C146.204 75.3197 145.606 74.7096 144.558 74.7096C143.859 74.7096 143.061 75.1675 142.562 75.8283V81.7776C142.562 81.981 142.362 82.1338 141.913 82.1338H141.863C141.414 82.1338 141.215 81.9813 141.215 81.7776L141.264 76.0317ZM151.094 81.4218C150.496 81.1674 150.097 80.761 150.097 80.0997C150.097 79.2861 150.745 78.9301 151.294 78.7269C150.346 78.2693 149.847 77.3538 149.847 76.2861C149.847 74.7608 150.945 73.4896 153.041 73.4896C153.44 73.4896 153.79 73.5403 154.089 73.5912H156.834C157.033 73.5912 157.133 73.7435 157.133 74.0995V74.3029C157.133 74.6589 157.033 74.8112 156.834 74.8112H155.685C156.035 75.2691 156.235 75.7773 156.235 76.3368C156.235 77.8621 155.137 79.1333 153.041 79.1333H152.891C152.492 79.1333 151.544 79.2352 151.544 79.7944C151.544 81.0656 156.933 79.7944 156.933 82.9978C156.933 84.4216 155.536 85.5405 152.941 85.5405L152.763 85.5393C150.761 85.5133 149.348 85.0349 149.348 83.4047C149.298 82.4389 150.046 81.7778 151.094 81.4218ZM153.091 84.3202C154.538 84.3202 155.486 83.761 155.486 82.9981C155.486 82.032 153.789 81.9303 152.292 81.676C151.643 81.9303 150.695 82.4895 150.695 83.2013C150.695 84.117 151.743 84.3202 153.091 84.3202ZM154.837 76.2859C154.837 75.0382 154.068 74.6722 153.096 74.659L153.041 74.6587C152.043 74.6587 151.244 75.0653 151.244 76.2859C151.244 77.5573 152.043 77.9133 153.041 77.9133L153.151 77.9118C154.097 77.8857 154.837 77.5102 154.837 76.2859ZM162.972 74.7605H162.173C161.973 74.7605 161.873 74.608 161.873 74.252V74.0488C161.873 73.6928 161.973 73.5403 162.173 73.5403H162.972L163.171 71.8115C163.171 71.608 163.321 71.4552 163.67 71.4552H163.819C164.169 71.4552 164.319 71.6078 164.319 71.8115V73.5403H165.666C165.865 73.5403 165.965 73.6928 165.965 74.0488V74.252C165.965 74.608 165.866 74.7605 165.666 74.7605H164.319V79.7946C164.319 80.7608 164.718 81.0151 165.167 81.0151C165.616 81.0151 165.716 80.9135 165.866 80.9135C166.065 80.9135 166.215 81.5234 166.215 81.6762C166.215 82.1061 165.554 82.1771 165.143 82.1841L165.067 82.1847C164.281 82.1847 163.06 81.8398 163.022 80.0345L162.972 74.7605ZM168.211 70.235C168.211 70.0315 168.411 69.879 168.86 69.879H168.91C169.359 69.879 169.558 70.0312 169.558 70.235V74.608C170.107 74.0488 170.956 73.4896 172.004 73.4896C173.052 73.4896 174.549 73.8963 174.549 76.1338V81.7778C174.549 81.9813 174.349 82.1338 173.9 82.1338H173.85C173.401 82.1338 173.201 81.9815 173.201 81.7778V76.2861C173.201 75.32 172.653 74.7099 171.555 74.7099C170.357 74.7099 169.559 75.8285 169.559 75.8285V81.7778C169.559 81.9813 169.359 82.1341 168.91 82.1341H168.86C168.411 82.1341 168.212 81.9815 168.212 81.7778L168.211 70.235ZM180.338 73.4893C182.534 73.4893 183.631 74.9637 183.631 77.7096C183.631 77.9131 183.282 78.3707 183.082 78.3707H178.042C178.192 80.1504 178.941 80.964 180.488 80.964C181.885 80.964 182.633 80.3032 182.833 80.3032C183.032 80.3032 183.382 80.9133 183.382 81.1167C183.382 81.5234 182.134 82.1336 180.537 82.1336C177.893 82.1336 176.645 80.7608 176.645 77.8624C176.595 75.0149 177.892 73.4893 180.338 73.4893ZM182.184 77.2013C182.184 75.5232 181.536 74.6587 180.288 74.6587C178.891 74.6587 178.192 75.5232 178.042 77.2013H182.184ZM189.67 71.0486C189.67 70.8453 189.869 70.6926 190.318 70.6926H190.468C190.917 70.6926 191.117 70.8451 191.117 71.0486V81.7778C191.117 81.9813 190.917 82.1338 190.468 82.1338H190.318C189.869 82.1338 189.67 81.9815 189.67 81.7778V71.0486ZM193.962 81.7776L194.011 76.0317L194.01 75.843C193.992 74.6466 193.812 74.0463 193.812 73.9979C193.812 73.6928 194.46 73.6419 194.66 73.6419C195.059 73.6419 195.109 74.3029 195.209 74.7096C195.857 73.9469 196.806 73.4893 197.704 73.4893C199.351 73.4893 200.299 74.4552 200.299 76.1336V81.7776C200.299 81.981 200.1 82.1336 199.65 82.1336H199.601C199.151 82.1336 198.952 81.9813 198.952 81.7776V76.2859C198.952 75.3197 198.353 74.7096 197.305 74.7096C196.606 74.7096 195.808 75.1675 195.309 75.8283V81.7776C195.309 81.981 195.11 82.1338 194.661 82.1338H194.611C194.161 82.1338 193.962 81.9813 193.962 81.7776ZM203.193 74.7605H202.395C202.196 74.7605 202.096 74.608 202.096 74.252V74.0488C202.096 73.6928 202.195 73.5403 202.395 73.5403H203.193L203.393 71.8115C203.393 71.608 203.593 71.4552 203.892 71.4552H204.042C204.391 71.4552 204.541 71.6078 204.541 71.8115V73.5403H205.888C206.088 73.5403 206.188 73.6928 206.188 74.0488V74.252C206.188 74.608 206.088 74.7605 205.888 74.7605H204.541V79.7946C204.541 80.7608 204.94 81.0151 205.389 81.0151C205.838 81.0151 205.938 80.9135 206.088 80.9135C206.287 80.9135 206.437 81.5234 206.437 81.6762C206.437 82.1061 205.777 82.1771 205.366 82.1841L205.289 82.1847C204.503 82.1847 203.282 81.8398 203.244 80.0345L203.193 74.7605ZM211.527 73.4893C213.723 73.4893 214.821 74.9637 214.821 77.7096C214.821 77.9131 214.472 78.3707 214.272 78.3707H209.232C209.382 80.1504 210.13 80.964 211.677 80.964C213.074 80.964 213.823 80.3032 214.022 80.3032C214.222 80.3032 214.571 80.9133 214.571 81.1167C214.571 81.5234 213.324 82.1336 211.727 82.1336C209.082 82.1336 207.834 80.7608 207.834 77.8624C207.834 75.0149 209.082 73.4893 211.527 73.4893ZM213.374 77.2013C213.374 75.5232 212.725 74.6587 211.478 74.6587C210.08 74.6587 209.381 75.5232 209.232 77.2013H213.374ZM216.967 81.7269V76.0317L216.965 75.843C216.948 74.6466 216.767 74.0463 216.767 73.9979C216.767 73.6928 217.416 73.6419 217.616 73.6419C218.015 73.6419 218.065 74.3029 218.165 74.7096C218.713 73.9469 219.362 73.4893 220.011 73.4893C220.61 73.4893 220.959 73.7435 220.959 74.0992C220.959 74.4045 220.809 74.9637 220.66 74.9637C220.46 74.9637 220.31 74.8115 219.761 74.8115C218.913 74.8115 218.314 75.7776 218.314 75.7776V81.7269C218.314 81.9301 218.115 82.0829 217.666 82.0829H217.616C217.167 82.0829 216.967 81.9304 216.967 81.7269ZM222.706 76.0317C222.706 74.7096 222.506 74.0488 222.506 73.9979C222.506 73.6928 223.155 73.6419 223.355 73.6419C223.754 73.6419 223.804 74.3029 223.904 74.7096C224.552 73.9469 225.5 73.4893 226.399 73.4893C228.046 73.4893 228.994 74.4552 228.994 76.1336V81.7776C228.994 81.981 228.794 82.1336 228.345 82.1336H228.295C227.846 82.1336 227.647 81.9813 227.647 81.7776V76.2859C227.647 75.3197 227.048 74.7096 226 74.7096C225.301 74.7096 224.503 75.1675 224.004 75.8283V81.7776C224.004 81.981 223.804 82.1338 223.355 82.1338H223.305C222.856 82.1338 222.657 81.9813 222.657 81.7776L222.706 76.0317ZM234.832 73.4893C237.028 73.4893 238.126 74.9637 238.126 77.7096C238.126 77.9131 237.776 78.3707 237.577 78.3707H232.537C232.686 80.1504 233.435 80.964 234.982 80.964C236.379 80.964 237.128 80.3032 237.327 80.3032C237.527 80.3032 237.876 80.9133 237.876 81.1167C237.876 81.5234 236.629 82.1336 235.032 82.1336C232.387 82.1336 231.139 80.7608 231.139 77.8624C231.089 75.0149 232.387 73.4893 234.832 73.4893ZM236.679 77.2013C236.679 75.5232 236.03 74.6587 234.782 74.6587C233.385 74.6587 232.686 75.5232 232.537 77.2013H236.679ZM240.521 74.7605H239.722C239.523 74.7605 239.423 74.608 239.423 74.252V74.0488C239.423 73.6928 239.523 73.5403 239.722 73.5403H240.521L240.721 71.8115C240.721 71.608 240.87 71.4552 241.22 71.4552H241.369C241.718 71.4552 241.868 71.6078 241.868 71.8115V73.5403H243.216C243.415 73.5403 243.515 73.6928 243.515 74.0488V74.252C243.515 74.608 243.415 74.7605 243.216 74.7605H241.868V79.7946C241.868 80.7608 242.267 81.0151 242.717 81.0151C243.166 81.0151 243.265 80.9135 243.415 80.9135C243.615 80.9135 243.765 81.5234 243.765 81.6762C243.765 82.1061 243.104 82.1771 242.693 82.1841L242.617 82.1847C241.831 82.1847 240.609 81.8398 240.572 80.0345L240.521 74.7605Z" fill="#848484"/>
<path d="M106.182 29.7587C110.373 29.7587 114.266 31.2841 114.266 32.4536C114.266 33.1656 113.368 34.9451 112.819 34.9451C112.37 34.9451 110.323 33.0638 106.231 33.0638C98.7458 33.0638 96.3007 37.4877 96.3007 45.0133C96.3007 51.6237 98.2467 57.2172 105.782 57.2172L106.068 57.2158C108.163 57.195 110.172 56.9498 111.222 56.658V47.9629H106.281C105.682 47.9629 105.433 47.5559 105.433 46.6914V45.9794C105.433 45.0642 105.682 44.7082 106.281 44.7082H113.717C114.615 44.7082 114.965 45.1149 114.965 45.9794V57.4207C114.965 59.8612 110.374 60.5225 105.533 60.5225C97.0992 60.5225 92.4581 55.6916 92.4581 45.4202C92.4581 34.6403 97.3486 29.7587 106.182 29.7587ZM119.356 59.4041L119.356 44.2509C119.356 40.7368 118.87 39.0567 118.857 38.8184L118.857 38.8099C118.857 37.9963 120.604 37.7931 121.153 37.7931C122.151 37.7931 122.4 39.5219 122.649 40.6405C124.097 38.5555 125.794 37.3861 127.54 37.3861C129.187 37.3861 129.985 38.0981 129.985 39.0643C129.985 39.8779 129.636 41.4034 129.137 41.4034C128.588 41.4034 128.239 40.9456 126.791 40.9456C124.596 40.9456 122.899 43.5898 122.899 43.5898V59.4041C122.899 60.0142 122.4 60.3702 121.202 60.3702H121.053C119.855 60.3702 119.356 60.0142 119.356 59.4041ZM141.563 37.3861C147.352 37.3861 150.296 41.3016 150.296 48.6239C150.296 49.1325 149.398 50.4037 148.899 50.4037H135.525C135.874 55.1834 137.87 57.37 142.062 57.37C145.755 57.37 147.801 55.5394 148.25 55.5394C148.849 55.5394 149.747 57.2175 149.747 57.6753C149.747 58.6921 146.404 60.4212 142.112 60.4212C135.146 60.4212 131.799 56.8327 131.733 49.2615L131.732 49.0309C131.682 41.4541 135.076 37.3861 141.563 37.3861ZM146.503 47.3527C146.503 42.8272 144.807 40.5389 141.413 40.5389C137.72 40.5389 135.774 42.8272 135.475 47.3527H146.503ZM163.52 37.3861C169.309 37.3861 172.253 41.3016 172.253 48.6239C172.253 49.1325 171.355 50.4037 170.856 50.4037H157.482C157.831 55.1834 159.827 57.37 164.02 57.37C167.712 57.37 169.759 55.5394 170.208 55.5394C170.806 55.5394 171.705 57.2175 171.705 57.6753C171.705 58.6921 168.361 60.4212 164.069 60.4212C157.033 60.4212 153.69 56.7599 153.69 49.0309C153.689 41.4541 157.033 37.3861 163.52 37.3861ZM168.511 47.3527C168.511 42.8272 166.814 40.5389 163.421 40.5389C159.728 40.5389 157.782 42.8272 157.482 47.3527H168.511ZM176.095 59.3025L176.096 44.2509L176.095 43.9808C176.071 40.6505 175.609 39.0505 175.597 38.8184L175.597 38.8099C175.597 37.9963 177.344 37.7931 177.893 37.7931C178.89 37.7931 179.14 39.5219 179.39 40.6405C181.186 38.6067 183.631 37.3861 185.977 37.3861C190.318 37.3861 192.863 40.0304 192.863 44.3525V59.3023C192.863 59.9124 192.364 60.2684 191.166 60.2684H191.017C189.819 60.2684 189.32 59.9124 189.32 59.3023V44.6576C189.32 42.0133 187.773 40.488 184.978 40.488C183.082 40.488 181.036 41.6576 179.639 43.4882V59.3025C179.639 59.9126 179.14 60.2686 177.942 60.2686H177.792C176.595 60.2686 176.095 59.9126 176.095 59.3025Z" fill="white"/>
<path d="M200.449 52.946C201.197 52.946 203.293 54.9292 206.687 54.9292L206.81 54.9283C208.582 54.9027 210.679 54.3108 210.679 51.7764C210.679 46.6914 198.453 48.6746 198.453 38.5048C198.453 32.1486 203.543 29.6571 208.483 29.6571C212.975 29.6571 216.118 31.2331 216.118 32.6571C216.118 33.8269 214.821 36.42 213.773 36.42C213.224 36.42 211.927 35.3523 209.082 35.3523C205.789 35.3523 205.14 36.9285 205.14 37.8949C205.14 42.8274 217.366 40.844 217.366 50.9633C217.366 58.1332 212.425 60.523 207.785 60.523C201.347 60.523 197.854 58.1838 197.854 56.7094C197.854 55.4377 199.551 52.946 200.449 52.946ZM230.141 37.3352C236.878 37.3352 240.371 41.4541 240.371 48.929C240.371 56.4548 236.878 60.5734 230.141 60.5734C223.404 60.5734 219.861 56.4548 219.861 48.929C219.861 41.4032 223.404 37.3352 230.141 37.3352ZM234.033 49.058L234.034 48.929C234.034 44.6069 232.836 42.3693 230.141 42.3693C227.446 42.3693 226.199 44.6069 226.199 48.929C226.199 53.2511 227.446 55.5393 230.141 55.5393C232.809 55.5393 234.01 53.2969 234.033 49.058ZM253.995 37.3352L254.176 37.3364C257.149 37.3763 261.032 38.3919 261.032 40.3354C261.032 41.1493 259.485 43.6407 258.786 43.6407C258.636 43.6407 258.387 43.4882 258.037 43.3354L257.871 43.2462C257.121 42.8517 256.013 42.3693 254.345 42.3693C250.985 42.3693 249.582 44.4628 249.554 48.797L249.554 48.929C249.554 53.3527 250.851 55.5393 254.095 55.5393C256.091 55.5393 257.438 54.9295 258.237 54.5225L258.371 54.4643C258.651 54.3447 258.856 54.2682 258.985 54.2682C259.933 54.2682 261.181 56.7089 261.181 57.5225C261.181 59.9631 255.143 60.5228 253.795 60.5228C246.56 60.5228 243.116 56.7599 243.116 49.0308C243.116 41.4032 246.41 37.3352 253.995 37.3352ZM264.225 29.0977C264.225 28.1985 264.948 27.741 266.677 27.7253L267.968 27.7249C269.765 27.7249 270.513 28.1825 270.513 29.0977V46.1831L270.663 46.2338L275.803 38.4032C276.289 37.7099 277.106 37.5951 278.3 37.5896L279.945 37.5893C281.541 37.5893 282.34 37.8437 282.34 38.2504C282.34 38.4417 282.207 38.7234 281.984 39.0526L276.052 47.6575L282.938 58.7935L283.108 59.1349C283.217 59.3593 283.288 59.534 283.288 59.7089C283.288 60.1156 282.539 60.3697 280.893 60.3697H279.096L278.907 60.3685C277.758 60.3528 276.93 60.1833 276.551 59.5561L270.662 49.6405L270.513 49.6912V58.9967C270.513 59.9119 269.764 60.3697 267.968 60.3697H266.77C264.974 60.3697 264.225 59.9119 264.225 58.9967L264.225 29.0977Z" fill="#88CE02"/>
<path d="M14.3097 48.5732C11.7644 49.7932 5.02768 55.2852 3.73016 56.9124C2.38266 58.5396 1.98355 55.9972 3.38079 51.7767C4.47839 48.3698 7.27335 43.7423 11.9641 39.7762C14.7086 37.488 20.7471 34.1829 24.4398 32.2504C25.1885 31.8435 34.8697 27.6739 43.503 25.5891C44.2517 25.3857 42.6048 26.8603 42.3551 27.6739C41.0576 31.5384 15.1577 48.1154 15.1577 48.1154L14.3097 48.5732Z" fill="black"/>
<path d="M50.7888 95.202C51.2379 97.9479 50.8387 98.1513 48.0443 98.5073C45.2496 98.8633 43.2036 97.7953 42.4551 97.0836C41.7064 96.3714 41.5569 94.7954 42.3054 93.3716C42.7547 92.4562 43.2038 92.1511 43.4535 91.0325C43.7029 89.9647 43.9026 89.7103 44.102 89.3037C44.3014 88.9474 44.3516 88.5914 44.4014 86.1C44.4514 83.6085 44.4014 78.9301 44.651 76.9472C44.9007 74.9134 53.534 77.8624 53.534 77.8624C53.534 77.8624 51.4878 83.049 50.939 84.3202C50.3899 85.5917 50.4399 88.0322 50.4399 88.5407C50.4399 89.0493 50.2405 90.0661 50.0905 90.117C49.9408 90.1677 50.5896 91.4898 50.2899 92.2527C50.0903 92.9647 50.739 94.7954 50.7888 95.202Z" fill="black"/>
<path d="M54.0825 17.4532C53.7829 15.521 54.0825 11.7069 54.4817 11.097C55.7294 9.36795 62.3165 9.16474 63.714 11.1986C64.3128 12.1138 64.2628 14.2495 64.1631 15.6226C64.0634 16.9954 63.714 19.9447 63.664 20.9111C63.6143 21.623 56.3782 22.7415 54.7813 20.8092C54.332 20.3009 54.0825 17.4532 54.0825 17.4532Z" fill="black"/>
<path d="M68.7542 90.2695C71.7983 92.5071 74.1437 92.9138 75.6906 93.7274C77.2375 94.5412 76.8384 96.1175 74.2434 96.5751C72.1474 96.9818 68.8539 96.1682 66.6582 96.1682C64.4625 96.1682 59.5718 96.4226 58.2743 95.5074C56.7773 94.4396 57.4258 92.4562 57.4258 92.4562C57.8252 91.3378 58.8231 88.8458 58.5237 86.812C58.2243 84.7781 57.8249 83.6594 57.0765 81.7779C56.328 79.8965 55.7792 75.2694 56.4779 75.015C57.1767 74.7606 56.9768 75.015 57.8752 75.2182C58.7733 75.4214 59.7715 75.7267 61.7178 75.7267C63.664 75.7267 65.8097 75.4214 66.5585 75.2691C67.3069 75.1166 67.9057 74.9638 67.6561 76.5403C67.4067 78.1166 66.6582 81.0659 66.6082 83.3541C66.5585 85.6424 66.5585 88.2866 66.7082 88.7442C66.8576 89.2018 67.9557 89.7103 68.7542 90.2695Z" fill="black"/>
<path d="M58.0748 22.5382C52.5856 27.3691 41.956 28.691 26.1868 34.8947C22.1446 36.471 11.3655 41.2 8.77051 46.1325C17.5035 40.9968 20.7473 48.0647 21.4458 55.3362C22.0943 62.15 25.4381 65.7097 34.0214 65.506C42.8544 65.3027 45.5492 70.5401 47.9943 76.6931C52.735 53.1495 60.3205 48.5733 65.2107 44.5562C75.5908 35.9624 62.8155 20.8092 58.0748 22.5382Z" fill="#88CE02"/>
<path d="M58.0748 22.5383C44.9004 27.2164 31.8755 28.386 16.5554 37.9966C12.9125 40.2848 5.2273 45.4712 3.7301 55.3871C9.31904 49.0816 22.244 41.1493 38.0634 36.1152C46.048 33.5726 51.8868 31.8947 58.9729 29.098C58.4741 25.8433 58.4741 24.5721 58.0748 22.5383Z" fill="#88CE02"/>
<path d="M74.892 50.4037C74.892 50.4037 73.9439 53.709 72.0476 54.777C72.0476 54.777 70.6503 55.2855 67.8559 53.7093C67.0574 53.2517 66.4586 51.6754 66.5084 51.1666C66.5584 49.9461 67.3068 49.3869 67.3068 49.3869C67.3068 49.3869 68.1055 48.0138 69.0534 48.0648C70.0018 48.1154 71.5987 48.268 72.0978 47.8104C72.5466 47.3019 74.992 48.7256 74.892 50.4037Z" fill="black"/>
<path d="M54.5316 18.4194C54.5316 18.4194 54.3322 21.0129 53.9828 22.6399C53.9328 22.9452 52.4359 23.0975 51.3378 23.5553C53.4337 29.6572 66.0593 29.6062 67.7062 26.6062C66.9078 26.047 65.3109 25.1825 64.5624 24.8774C63.8137 24.5721 63.8636 24.6231 63.8137 23.1993C63.7639 21.7754 63.664 19.1314 63.564 18.4194C63.4643 17.7074 55.7291 17.7074 54.5316 18.4194Z" fill="black"/>
<path d="M55.0306 18.4194C55.0306 18.4194 55.0306 19.894 54.8809 21.3177C54.8312 21.9788 54.7812 22.3855 54.6815 22.894C54.6315 23.1993 56.3781 24.4193 56.8772 27.1145C59.2725 32.5553 64.812 29.8604 67.1074 27.267C66.3089 26.7076 65.0114 25.9449 63.5145 25.3348C62.7657 25.0295 63.1151 24.3687 63.0654 22.9449C63.0154 21.5212 62.8157 19.4362 62.716 18.6735C62.6158 17.9108 56.2284 17.7074 55.0306 18.4194Z" fill="#EFEFEF"/>
<path d="M54.5316 18.4194C54.5316 18.4194 54.4816 19.3348 54.3322 20.4026C54.9807 21.0634 55.8291 21.9788 56.4781 22.5383C56.9272 22.9452 58.0248 22.8943 59.0232 22.8943C59.9213 22.8943 60.7198 22.9959 61.0692 22.7927C61.8679 22.3857 63.0154 21.3689 63.6642 20.606C63.6145 19.6908 63.5645 18.8263 63.5148 18.4194C63.4643 17.7074 55.7291 17.7074 54.5316 18.4194Z" fill="black"/>
<path d="M59.0729 22.2839C58.4739 22.2839 57.7752 22.2332 57.2264 22.1314C56.9767 22.0807 56.7273 21.9281 56.5276 21.8263C56.1783 21.5719 55.8289 21.2671 55.43 20.9618C54.6313 20.3516 54.5816 19.9956 54.5816 19.8434C54.931 16.6397 54.4816 13.9447 54.4816 13.9447C54.4816 13.9447 54.1323 12.5717 56.0286 12.2157C57.9249 11.8597 59.0727 11.809 59.0727 11.809C59.0727 11.809 60.2705 11.809 62.1168 12.2157C64.0131 12.5717 63.6637 13.9447 63.6637 13.9447C63.6637 13.9447 63.2147 16.6397 63.564 19.8434C63.564 19.9956 63.5143 20.3516 62.7156 20.9618C62.0168 21.4703 61.468 22.0295 60.9192 22.1314C60.3702 22.2332 59.6715 22.2839 59.0729 22.2839Z" fill="black"/>
<path d="M59.0729 10.4869C55.7794 10.4869 55.1304 11.4021 54.1822 12.4191C53.9828 12.6733 54.1322 14.1989 54.4819 17.4532H54.9309C54.9309 17.4532 54.6313 16.5378 54.6813 15.47C54.7313 14.4023 54.9309 14.4532 54.781 14.1989C54.5816 13.8935 54.1822 13.385 55.0806 12.8767C55.9788 12.3682 57.376 13.2834 59.0729 13.3343C60.7695 13.2834 62.2168 12.3682 63.1149 12.8767C64.0131 13.385 63.614 13.8935 63.4146 14.1989C63.2149 14.5039 63.4643 14.4021 63.5143 15.47C63.564 16.5378 63.2646 17.4532 63.2646 17.4532H63.7137C64.0131 14.1989 64.2128 12.7751 64.0631 12.5207C63.2146 11.4021 62.3665 10.5376 59.0729 10.4869Z" fill="black"/>
<path d="M74.892 50.5562C74.892 50.5562 73.9439 53.6581 72.0976 54.7258C71.6982 54.5226 71.7482 54.2175 71.3988 53.7597C71.2989 53.6074 70.9495 53.5053 70.8 53.353C70.6503 53.2005 70.7003 52.9461 70.4507 52.7429C70.251 52.5394 70.1013 52.6919 69.9016 52.5394C69.7022 52.3362 69.652 52.0818 69.5025 51.9295C69.4026 51.8277 69.0034 51.777 68.9037 51.6751C68.6541 51.4207 66.4586 50.9631 66.5583 50.4546C66.7578 49.6917 67.1571 49.1325 67.1571 49.1325C67.1571 49.1325 68.1053 47.7088 69.0532 47.7594C70.0013 47.8104 70.8997 48.0138 71.3988 47.5562C71.9479 47.0474 75.042 48.929 74.892 50.5562Z" fill="black"/>
<path d="M68.4048 28.0809C68.4048 28.0809 71.5486 27.318 73.6945 29.403C75.8405 31.5387 75.6906 34.1827 75.042 35.8099C75.5908 36.471 76.589 38.3014 75.8405 40.488C79.134 43.3355 77.6868 47.7087 74.7427 50.6071C74.7427 50.6071 74.0439 47.9629 71.2494 47.8103C71.3492 46.7935 68.6544 45.9797 69.9019 43.3355C68.0056 42.8779 68.0556 41.5557 67.7562 39.9288C67.5066 38.3014 68.4048 28.0809 68.4048 28.0809Z" fill="black"/>
<path d="M67.2569 29.5046C67.2569 29.5046 70.8998 27.6233 73.0458 29.759C75.1915 31.8947 74.5925 34.2336 73.944 35.8608C74.4928 36.5216 75.7903 38.4034 74.9918 40.6405C74.8421 41.149 73.7443 41.1491 72.9456 42.4712C74.9416 41.3013 76.1894 41.6066 76.6385 43.0811C77.3372 45.3693 75.79 48.1152 74.4428 49.6407C74.4428 49.5898 74.3928 49.5389 74.3928 49.4882C74.1934 50.2511 73.9437 51.7255 72.4468 53.3527C71.6981 54.1663 71.0993 54.0647 70.2508 53.8612C69.253 53.6069 68.9036 53.149 67.5064 52.3866C66.7079 51.929 67.157 51.3695 67.157 50.9119C67.157 50.8103 67.2567 50.6575 67.4066 50.4543C67.5064 50.1999 67.8057 49.7935 68.2548 49.3357C68.2548 49.3357 68.9036 48.4205 69.852 48.4711C70.8001 48.5221 71.798 48.3189 72.0477 48.0645C72.0477 46.2848 70.0517 46.2338 70.7502 43.1829C70.8001 43.0304 71.0498 42.776 71.848 42.6744C70.6502 42.42 70.1014 42.3691 69.253 41.5557C68.6542 40.9965 68.2051 40.2845 68.0552 39.3693C67.756 37.7931 67.2569 29.5046 67.2569 29.5046Z" fill="#EFEFEF"/>
<path d="M56.7273 26.3012C56.4279 25.8943 54.881 23.8604 51.9366 23.0468C51.0881 22.7924 50.5393 23.5044 49.6911 24.0129C49.4415 23.8604 48.3436 23.3519 47.7449 23.7076C47.1461 24.0634 46.747 24.4196 46.148 24.6737C45.8483 24.5212 45.0501 24.5212 44.4013 24.7753C43.7526 24.9788 42.7545 25.4364 41.8063 26.7585C41.2075 28.9452 52.3856 27.3177 52.3856 27.3177L56.7273 26.3012Z" fill="black"/>
<path d="M56.8272 26.3012C55.2301 25.7417 55.4797 23.8604 51.9365 23.5553C51.2378 23.5044 50.7887 24.0636 50.2897 24.4196C50.5393 24.674 50.7887 25.0806 50.9384 25.4873C50.4893 24.979 49.6909 24.3177 48.8922 24.1652C48.1437 24.0129 47.6446 24.5721 46.8462 24.979C46.9956 25.1313 47.1456 25.3857 47.345 25.691C46.6463 25.2334 46.1474 25.0809 45.1993 25.4366C44.5505 25.6399 43.303 26.1993 42.3548 27.5724C41.7561 29.759 52.4354 27.318 52.4354 27.318L56.8272 26.3012Z" fill="#88CE02"/>
<path d="M66.2091 27.1148C66.2091 27.1148 66.2091 26.5553 66.1591 26.047C66.1591 25.9454 65.76 25.691 65.76 25.5894L65.6603 25.4876C65.6603 25.4876 66.4587 25.03 67.0575 25.2844C67.706 25.4876 68.0554 26.3521 68.0554 26.3521C69.2032 25.9454 69.3029 26.403 69.852 27.0132C71.0498 26.7588 71.1992 27.2164 71.948 28.3353C71.948 28.3353 71.0498 28.1828 69.3032 28.4876C67.6063 28.7417 66.2091 27.0638 66.2091 27.1148Z" fill="black"/>
<path d="M66.0094 26.8604C66.0094 26.8604 66.3088 26.606 66.2088 26.5551C66.7576 26.25 67.5064 25.8942 67.8557 26.8604C69.0036 26.4535 69.1533 27.0129 69.7021 27.6233C71.0993 26.9622 71.199 27.7756 71.299 28.1316C70.8499 28.1316 70.2014 28.1825 69.3029 28.2841C67.6063 28.5385 65.9594 26.8094 66.0094 26.8604Z" fill="#88CE02"/>
<path d="M49.0424 25.5892C49.0424 25.5892 51.8868 26.606 54.2822 26.4534C56.6775 26.2502 60.7695 26.0468 62.9652 27.3689C62.9652 27.3689 65.2109 26.5551 67.3069 27.1145C69.4031 27.6737 73.2454 31.335 72.0978 35.1995C71.9979 35.4539 71.3491 35.8606 70.6006 36.115C70.6006 36.115 71 37.8438 70.3012 39.2675C69.6025 40.6405 68.0556 43.2848 68.0056 46.9458C67.9559 47.556 67.8561 48.8272 67.7562 49.4373C63.8636 49.285 57.8753 47.8101 51.9868 47.912C52.0365 47.2512 52.0865 46.8442 52.1365 46.1832H52.2859C51.9865 44.5051 51.8868 43.6405 51.5872 42.3693C49.6909 41.1491 47.6946 39.7253 45.9982 37.0302C44.3513 34.335 49.0424 25.5892 49.0424 25.5892Z" fill="black"/>
<path d="M68.305 53.0479C68.305 53.0479 71.3991 64.3366 67.7562 69.0657C67.7562 69.0657 68.305 71.2521 67.0574 73.5912C66.8578 74.608 66.6081 75.5235 66.4586 76.5403C65.8099 80.7608 64.7118 82.5405 64.4124 89.3034L61.418 89.2527C61.418 89.2527 61.0687 84.3712 60.0208 81.7779C59.4223 80.3034 57.0764 78.32 57.1766 76.3371C57.2763 74.8115 57.5757 73.5403 60.121 71.5062C60.3204 68.5571 57.426 65.7601 57.8753 54.7767L68.305 53.0479Z" fill="black"/>
<path d="M67.4068 52.5901C68.2052 57.7767 70.0516 65.4551 66.708 69.2177C66.8575 69.9297 66.9574 70.9468 66.7578 72.1161C66.6581 72.7262 66.4584 73.3873 66.209 74.099C65.7099 75.3196 65.5102 77.0993 65.3605 78.167C64.7118 82.3875 64.7118 82.5912 64.4124 89.3541L61.418 89.3032C61.418 89.3032 61.0686 84.4216 60.0208 81.8286C59.4222 80.3539 58.1744 79.0827 58.0747 77.0995C57.975 75.5742 59.0229 72.5233 61.5182 72.6249C61.3685 66.4721 58.5738 67.6924 57.8253 54.8783L67.4068 52.5901Z" fill="#EFEFEF"/>
<path d="M49.0423 25.5892C49.0423 25.5892 50.1402 25.9452 51.3377 26.0468C52.5355 26.1484 53.8331 26.0468 54.9806 25.9958C57.376 25.7926 60.7695 25.5382 63.0152 26.8604C63.0152 26.8604 64.2627 26.4534 65.6102 26.5551C66.209 26.606 66.808 27.1145 67.5065 27.318C69.7022 27.8772 71.7982 31.5892 70.8498 34.9454C70.7501 35.1998 70.0513 34.9454 69.2529 35.1998C69.4023 35.9118 69.5025 37.5389 68.7038 39.2677C67.8556 40.9968 66.7578 43.2341 66.9572 47.5055C61.7174 47.2512 59.372 46.8954 54.1819 46.641C53.7329 44.7594 53.4332 42.8781 53.3835 41.912C54.0822 41.556 54.4811 41.2512 55.0304 40.6408C53.5334 40.8952 52.9344 40.7933 52.036 40.2848C51.1378 39.7763 49.5409 38.1491 48.7424 37.0813C48.6427 36.9795 48.0939 38.6574 46.8464 38.7085C46.3971 38.0475 48.2934 36.1659 47.944 35.4542C46.6967 32.8606 49.0423 25.5892 49.0423 25.5892Z" fill="#EFEFEF"/>
<path d="M67.8057 48.3696C67.8057 48.3696 67.9054 50.2002 67.9054 50.6578C67.9054 51.1664 68.3048 52.6917 68.3545 53.4037C67.8057 54.3698 65.4103 56.5565 61.0687 57.3701C56.777 58.2853 51.0881 51.4208 51.0881 51.4208C51.2378 50.7597 51.7369 48.8272 52.0863 47.8104C52.1362 47.7088 52.236 47.4544 52.236 47.3528C52.6853 46.6917 67.8057 48.3696 67.8057 48.3696Z" fill="black"/>
<path d="M66.7081 48.5223C66.7081 49.7935 66.9076 50.709 67.0575 51.5226C67.3069 52.9972 67.706 53.9634 67.706 54.9295C67.706 57.8785 63.9134 57.37 60.7194 57.4719C56.4277 58.3873 52.7848 51.5226 52.7848 51.5226C53.0842 50.353 53.2839 49.0311 53.7329 47.9122C53.7827 47.3021 53.8826 46.5394 53.9324 46.1834C60.0206 46.1834 64.3123 46.5394 66.8076 46.7933C66.9076 47.3527 66.8079 48.3189 66.7081 48.5223Z" fill="#EFEFEF"/>
<path d="M61.9171 55.0818C61.9171 55.0818 59.2724 49.0815 51.3375 50.8615C49.4415 56.3023 46.8962 62.5569 48.5431 69.3198C46.8962 71.608 44.9999 72.8795 44.9999 77.0997C44.9999 81.3203 45.1996 82.0322 45.1996 82.0322L51.0381 82.3376C51.0381 82.3376 52.9344 79.8461 53.6829 77.1509C53.8826 76.388 54.0823 75.0152 53.9326 73.4389C54.132 73.1339 54.9804 72.4221 55.0804 71.0491C55.0804 71.0491 57.9249 69.5238 59.5717 65.8118C61.1189 62.455 60.7196 59.5567 61.9171 55.0818Z" fill="black"/>
<path d="M61.9171 55.0818C61.7676 54.5225 59.7714 49.0308 52.3856 50.6578C48.0442 62.455 49.6411 67.3366 50.2896 69.4721C47.3452 73.2856 45.9979 74.0992 46.597 81.8285H50.4895C52.2859 78.9301 52.6852 77.8621 52.7849 74.0486C52.7849 73.896 52.2361 74.3536 51.8368 74.8622C52.1364 73.2859 52.9846 72.9808 53.6334 72.0147C53.9328 71.6078 54.1822 70.9976 54.1822 70.1841C57.6754 67.7942 58.9729 64.794 59.7214 61.6921C60.3204 59.5566 61.0189 56.0479 61.9171 55.0818Z" fill="#EFEFEF"/>
<path d="M49.5911 46.8951C49.5911 46.8951 50.9386 46.9458 52.1364 47.3527C53.2843 47.7594 53.2843 48.0136 53.7333 48.5223C54.1824 49.0311 55.2803 49.7935 55.0808 50.5562C54.9809 50.9631 54.7315 51.0647 54.3821 51.4207C54.2324 51.5732 53.1343 52.7935 52.8849 52.946C52.7352 53.0477 52.5355 53.2004 52.3858 53.302C52.2364 53.4036 51.7873 53.709 51.6374 53.8106C51.1383 54.065 50.7889 54.2175 50.2401 54.1666C50.2401 54.1666 48.9926 54.1156 48.1939 53.2514C48.1939 53.2514 48.0942 52.8444 48.2938 52.6412C48.2938 52.6412 47.2457 51.7258 46.9463 51.1156C46.6467 50.5058 46.6467 49.6412 46.8466 49.1836C46.9463 48.7255 48.8924 47.4543 49.5911 46.8951Z" fill="black"/>
<path d="M50.839 96.3716L50.6893 97.6431C50.6893 97.6431 50.2402 98.2023 46.8967 98.1516C43.5032 98.1007 42.605 97.0329 42.3056 96.4735L42.1062 95.1514C42.1062 95.1514 42.755 94.1852 42.9047 94.1852C44.0025 94.2868 47.7454 95.8124 50.3404 96.2191C50.5893 96.2191 50.6391 96.3207 50.839 96.3716Z" fill="black"/>
<path d="M58.0748 93.7783C58.0748 94.3375 58.0248 94.3375 58.0248 94.897C58.6236 95.3546 60.121 95.609 62.9652 95.5578C67.1072 95.4562 70.9498 96.8292 75.6405 96.0154L75.6905 95.1002L75.2414 95.0495L58.6236 93.6765L58.0748 93.7783Z" fill="black"/>
<path d="M61.7177 95.558C62.117 95.558 62.5161 95.558 62.9652 95.558C65.6602 95.4564 68.2053 96.0666 70.9498 96.2191C72.397 96.1682 74.1936 95.8122 74.0439 94.7444L59.8714 93.5239C59.0229 94.4901 59.6714 95.3037 61.7177 95.558Z" fill="black"/>
<path d="M45.4493 74.1505C45.8983 74.4555 48.9425 76.2862 53.8829 76.0318C53.7829 76.9979 53.8329 78.8795 51.6372 82.1845C50.5394 83.8117 49.591 86.6594 49.3915 90.2698C49.4415 91.0834 49.8906 91.7951 49.2918 92.8631C49.4913 93.5239 50.2897 94.8461 50.6891 95.6596C51.0882 96.4735 51.2878 97.3887 48.6428 97.4396C45.9481 97.4903 41.6064 97.1852 42.2054 95.0498C42.5051 93.9311 43.3533 92.7615 43.4532 92.3037C43.5529 91.8461 43.553 90.4733 44.4011 89.5578C45.1499 87.0154 44.9002 84.5746 44.7508 82.2864C44.5011 79.8963 44.4511 76.0827 45.4493 74.1505Z" fill="black"/>
<path d="M50.0903 32.7081C53.6334 27.8772 50.6391 24.0129 44.9504 25.1823C42.6547 25.6399 40.3593 27.2673 40.2094 30.2164C39.4609 30.318 37.7643 30.4196 36.9159 33.5724C36.2674 36.0131 35.918 36.4707 34.7699 37.691C34.0214 38.5555 34.8199 40.3353 35.3687 41.6067C37.2153 45.9797 42.9042 46.3864 46.7467 49.6917C48.0443 49.3357 49.3915 47.8613 49.7909 46.8952C46.5471 42.9795 47.2456 41.4542 45.948 39.4203C47.3455 38.9115 50.5393 36.9286 50.0903 32.7081Z" fill="black"/>
<path d="M49.3915 32.403C49.5909 32.0977 49.9402 31.4369 50.0902 31.1825C50.1402 31.1316 50.689 32.0977 50.7389 32.047C52.0862 29.8095 52.4356 26.5551 50.8884 26.25C50.539 26.1991 49.8905 26.0468 49.3415 25.8431C48.3436 25.4871 47.4454 25.4871 45.8483 25.7924C43.6526 26.1991 41.4569 27.8263 41.4569 30.1655C41.4569 30.318 43.0036 30.7756 43.4529 32.6572C42.7042 31.5892 41.4067 30.4196 39.8597 31.4366C38.2128 32.5044 39.0613 34.9452 36.8656 37.4876C36.1169 38.3521 36.2168 39.3691 37.015 41.403C38.3125 44.6067 44.4508 46.3355 47.7943 49.3864C48.5928 49.0304 49.1415 48.2168 49.5409 47.6067C47.2952 45.2168 46.3968 42.9793 45.7483 41.3521C44.9498 39.4707 44.0514 38.403 42.3048 36.9788C43.2032 37.3348 43.902 37.6908 44.3008 37.9958C44.7499 38.3009 45.3987 38.3518 45.9977 38.1484C48.1439 37.3862 49.2917 34.335 49.3915 32.403Z" fill="#EFEFEF"/>
<path d="M71.0994 33.2166C70.9497 35.1489 69.5525 34.1827 68.804 33.8267C67.3068 33.1657 65.8097 32.7081 64.063 32.7081C62.3164 32.7081 60.0708 32.8606 58.1247 33.3691C55.43 34.1318 54.6313 34.0811 53.4337 33.4707C52.2362 32.8097 50.1404 31.1825 50.1404 31.1825C50.1404 31.1825 50.0905 31.691 50.5895 32.3521C51.238 33.1657 52.6855 34.1827 54.6315 34.8435C55.5797 35.1489 56.3284 34.9451 57.1768 34.7419C61.6182 33.6233 66.309 33.4198 70.2513 35.8606C70.4509 35.9622 71.1497 35.6571 71.4491 35.1995C71.8479 34.5387 71.0994 33.2166 71.0994 33.2166Z" fill="black"/>
<path d="M48.3936 52.5901C48.7927 52.8445 49.2917 52.997 49.8405 53.4546C49.8405 53.4546 49.3914 53.4546 49.192 53.2514C48.9424 53.0989 48.4433 52.6413 48.3936 52.5901Z" fill="#001423"/>
<path d="M62.8155 12.2666C62.6658 11.809 61.5677 10.9952 59.0229 10.9952C56.2781 10.9952 55.4797 11.8597 55.43 12.3173C55.43 12.4698 55.2303 14.0973 55.1803 14.7581C55.1803 14.7581 55.1803 15.5717 55.23 16.7919C55.28 17.6055 55.4797 18.0631 55.5794 19.1311C55.6791 20.2495 55.9788 20.9615 56.5276 21.877C56.7772 22.0293 56.9766 22.182 57.2263 22.233C58.2244 22.4362 59.971 22.4871 60.9192 22.233C61.468 22.0804 62.1667 21.1143 62.3164 20.2498C62.5158 19.182 62.7155 18.4191 62.7655 17.7583C62.8652 17.0975 62.9152 15.6226 62.9649 15.2157C63.1149 14.0973 62.8652 12.3682 62.8155 12.2666Z" fill="#EFEFEF"/>
<path d="M57.5757 75.1166C57.5757 75.1166 60.2208 76.2862 66.7581 75.2691C66.7581 75.2691 64.9118 84.7272 65.7602 89.456C65.7602 89.456 66.6084 90.6765 72.8963 93.0154C72.8963 93.0154 75.6908 93.7274 75.5911 95.1514C75.5911 95.1514 75.6908 95.4564 72.2975 95.3546C68.9043 95.2527 65.7102 94.6426 63.4646 94.6426C61.2189 94.6426 58.8235 94.7442 58.4244 94.0834C57.9753 93.4732 58.5241 91.8967 59.1729 90.9813C59.8719 90.0154 59.672 89.3032 59.6222 87.5746C59.472 83.0491 56.0785 78.371 57.5757 75.1166Z" fill="black"/>
<path d="M57.0267 75.9811C56.6773 76.4896 57.0764 78.4216 57.5755 80.3032C58.0745 82.1845 59.1726 83.3034 59.422 86.405C59.6714 89.4559 59.7214 89.8629 58.873 91.6423C58.0246 93.4218 57.7751 95.0492 60.7193 95.1002C63.6635 95.1511 65.2606 95.0492 68.2548 95.5071C71.2492 95.9647 72.297 96.1172 73.9439 95.8631C75.5908 95.6089 75.9399 95.0492 75.2414 94.541C74.5427 94.0324 71.6483 93.4732 70.4007 92.4559C69.2029 91.5407 65.8097 90.0151 65.7599 89.6085C65.6102 88.2354 65.5603 83.2522 65.8097 81.6251C66.0593 79.9976 66.4085 77.6587 66.5084 77.0486C66.6084 76.4384 67.1072 75.828 66.2588 76.0315C65.4106 76.2347 62.2167 76.6926 59.8214 76.54C57.426 76.3877 57.1766 75.8283 57.0267 75.9811Z" fill="#88CE02"/>
<path opacity="0.3" d="M58.7235 91.6935C59.5717 92.1002 60.8195 92.4055 61.7677 92.4055C61.7677 92.4055 61.418 94.0836 61.9671 95.1005C62.5159 96.1175 57.9748 95.5074 57.9748 95.5074L57.7754 91.897L58.7235 91.6935Z" fill="black"/>
<path opacity="0.3" d="M71.9479 96.0666C72.7463 95.8122 73.2954 94.897 72.6466 94.0327C71.9479 93.1682 71.3491 93.0157 72.2473 92.965C73.1457 92.9141 76.4392 94.9479 76.4392 94.9479L74.7423 96.5242L71.9479 96.0666Z" fill="black"/>
<path opacity="0.3" d="M56.8769 77.964C58.0248 78.371 59.7714 78.4726 61.2686 78.4216C62.7655 78.371 65.0112 78.1672 66.4586 77.659C67.9056 77.1504 67.3068 78.2182 67.3068 78.2182L66.5084 78.9811C66.5084 78.9811 64.6121 79.7438 61.5182 79.6931C57.8753 79.6422 56.7772 79.2355 56.7772 79.2355L56.8769 77.964Z" fill="black"/>
<path opacity="0.3" d="M56.9767 80.5067C58.1248 80.9136 59.8711 81.0152 61.3683 80.9643C62.8653 80.9136 64.8615 80.9136 66.3087 80.3541C66.9075 80.1509 66.5584 81.0152 66.5584 81.0152L66.3087 81.4728C66.3087 81.4728 64.3625 82.1848 61.3183 82.1336C57.6754 82.0829 57.0267 81.7776 57.0267 81.7776L56.9767 80.5067Z" fill="black"/>
<path d="M53.6831 44.8613C53.6831 45.2173 57.5757 47.2003 59.7214 47.6072C61.8673 48.0139 66.3587 47.6072 67.0572 47.4546L66.9572 48.1666C66.9572 48.1666 61.6177 48.9802 57.5257 47.8616C53.4335 46.7429 53.8828 46.4885 53.8828 46.4885L53.6831 44.8613Z" fill="black"/>
<path d="M45.3492 88.2357C45.948 88.541 48.094 89.1002 49.4912 88.7951C49.6906 88.7442 49.4912 85.2864 50.0403 83.7101C50.8387 81.5235 52.1362 79.7438 52.7348 75.8795C50.6388 75.676 48.2437 75.1166 46.9959 74.7097C45.3992 79.6931 45.9483 83.9643 45.3492 88.2357Z" fill="#EFEFEF"/>
<path d="M48.6929 91.4394C49.0423 91.541 49.2917 91.9477 49.3917 91.6938C49.5911 91.2359 49.0423 90.3716 48.9923 89.7615C48.9923 89.7106 48.9923 89.7615 48.9923 89.7106C48.5433 89.3039 45.4991 89.253 45.6988 89.4562C45.3494 90.1173 44.8006 90.0157 44.6012 91.3378C44.5015 91.9986 45.2999 91.4394 46.0482 91.3885C44.7009 92.3037 43.154 93.4735 42.9043 94.4903C42.6049 95.914 43.104 96.3209 44.6012 97.0839C45.8987 97.3889 47.4457 97.4399 48.6432 97.3889C49.9907 97.1345 50.2404 96.4737 49.841 95.5583C49.2417 94.1852 48.8426 92.4055 48.6929 91.4394Z" fill="#EFEFEF"/>
<path d="M49.2418 25.3857C50.8886 26.3519 53.1843 26.0977 54.0325 26.0468C54.2322 26.0468 56.2284 25.6908 56.3281 25.7415C56.5276 25.7924 56.5276 25.9449 56.5276 25.9449C56.5276 25.9449 55.7791 26.3516 54.0825 26.4532C52.4856 26.5548 50.5893 26.4532 49.5414 25.9449C48.2936 25.3857 49.2418 25.3857 49.2418 25.3857Z" fill="black"/>
<path d="M66.209 26.3519C66.5084 26.5551 68.4547 27.318 69.3031 28.2332C70.0516 29.047 69.6525 28.9961 69.5026 28.7927C69.3031 28.5383 67.756 27.4705 67.1572 27.2164C66.5584 26.9623 65.8097 26.5044 65.8097 26.4028C65.8097 26.3012 66.209 26.3519 66.209 26.3519Z" fill="black"/>
<path d="M48.9922 47.4544C50.4394 47.3528 51.9366 47.7088 52.8847 48.7256C53.3838 49.2341 54.1823 49.7933 54.0825 50.3019C54.0825 50.4544 53.7829 50.8613 53.5337 51.1664C53.384 51.3696 52.935 51.8272 52.785 51.98C52.5856 52.1325 51.8868 52.692 51.7372 52.7936C51.5875 52.8954 51.3878 53.1498 51.2381 53.2005C50.7393 53.4549 50.1902 53.2514 49.6912 52.9973C49.1923 52.7429 49.7911 52.692 49.2421 52.2853C47.8948 51.3192 47.1461 50.6578 47.6951 48.7765C47.7449 48.4205 48.2937 48.0136 48.9922 47.4544Z" fill="#EFEFEF"/>
<path opacity="0.4" d="M36.2672 35.8099C31.7758 37.6406 20.3478 43.4376 17.1042 45.2173C19.799 46.9461 21.0465 51.1157 21.4459 55.3362C21.4956 55.7431 21.5456 56.0991 21.5956 56.5058C21.6453 56.8618 21.6953 57.1159 21.745 57.2687C21.745 57.3196 21.745 57.4212 21.795 57.4719C24.7394 49.2853 35.2688 40.6408 35.6681 39.9797C35.8676 39.6747 35.4185 38.3525 36.1172 37.0816C37.0156 35.4539 38.7625 34.7419 36.2672 35.8099Z" fill="black"/>
<path opacity="0.4" d="M46.9465 74.2014C49.2419 69.5233 49.2918 65.0484 49.2419 59.8108C49.2419 57.6242 50.7888 54.5223 49.9906 55.3868C46.9962 58.7935 39.461 65.2009 34.0215 65.5567C41.6567 65.3025 44.6508 69.2179 46.9465 74.2014Z" fill="black"/>
<path d="M12.7126 49.5391C15.5571 47.4543 30.2787 39.4712 33.8218 38.3523C37.3648 37.1827 36.2669 35.8096 36.2669 35.8096C36.2669 35.8096 21.8948 42.1149 13.3114 47.5559" fill="black"/>
<path opacity="0.4" d="M54.6313 34.8438C53.4835 34.3862 52.5853 35.7592 52.8847 37.0814C53.1843 38.4035 55.8791 39.8779 55.7292 44.7088C55.6294 48.6751 54.781 50.3021 54.781 50.3021L52.8847 47.8615C52.8847 47.8615 52.5853 42.3696 51.9366 41.556C51.288 40.7424 49.2418 39.2678 48.4434 38.5051C47.6449 37.7422 49.3415 36.7254 49.2418 35.3014C49.1421 33.9286 50.0902 31.1827 50.0902 31.1827L54.6313 34.8438Z" fill="black"/>
<path opacity="0.4" d="M61.568 56.5055C61.4683 60.3191 62.3168 65.9636 62.6659 68.6587C63.0153 71.3536 63.4643 71.5571 62.6659 72.7776C61.8674 73.9472 60.8196 75.8795 60.8196 75.8795L57.3761 75.5742C57.3761 75.5742 60.1208 72.0147 60.2703 71.3537C60.42 70.6928 58.873 65.6587 58.873 65.6587L61.568 56.5055Z" fill="black"/>
<path opacity="0.4" d="M54.931 20.9111C55.6298 22.4871 56.478 23.1991 57.8252 23.6569C58.6237 23.962 61.7675 24.3689 63.0153 22.9449C63.5641 22.2839 63.2147 20.5042 63.2147 20.5042L60.3703 22.8431L56.5277 22.1313L56.0786 20.9618L54.931 20.9111Z" fill="black"/>
<path d="M55.2302 24.4196C56.5277 25.2841 59.7715 26.0977 60.6697 26.2502C61.5678 26.4534 63.015 25.2841 63.7138 24.979C64.4625 24.623 65.76 24.4196 67.257 25.7926C67.4067 25.9451 66.9076 26.6062 66.9076 26.6062C66.8576 26.5553 66.5582 26.5553 66.1589 26.3518C65.7598 26.1486 65.4104 25.9958 64.8116 26.0467C62.3163 26.3518 61.9172 27.2163 59.7215 26.7076C57.5258 26.1988 56.9768 25.7924 54.8311 25.894" fill="#88CE02"/>
<path d="M55.2302 24.4196C56.5277 25.2841 59.7715 26.0977 60.6697 26.2502C61.5678 26.4534 63.015 25.2841 63.7138 24.979C64.4625 24.623 65.76 24.4196 67.257 25.7926C67.4067 25.9451 66.9076 26.6062 66.9076 26.6062C66.8576 26.5553 66.5582 26.5553 66.1589 26.3518C65.7598 26.1486 65.4104 25.9958 64.8116 26.0467C62.3163 26.3518 61.9172 27.2163 59.7215 26.7076C57.5258 26.1988 56.9768 25.7924 54.8311 25.894" stroke="black" stroke-width="1.586" stroke-linejoin="round"/>
<path d="M54.7811 24.5721C56.428 25.2841 59.6218 26.0467 60.52 26.2502C61.4182 26.4537 62.8654 25.5382 63.5641 25.0806C64.8119 24.267 66.4086 24.9281 67.1573 25.7926C67.6561 26.3518 67.856 26.7078 67.856 26.8603C67.856 27.0635 67.2572 26.8603 67.2572 26.8603C66.9079 26.7078 66.5085 26.6571 66.2094 26.4534C65.81 26.2502 65.4107 25.9451 64.8121 25.9958C62.3168 26.3011 61.8178 27.1654 59.672 26.6569C57.5263 26.1483 56.9773 25.6907 54.6819 25.843" fill="#88CE02"/>
<path d="M47.0462 72.0654C46.9465 71.9638 47.1459 71.8622 47.0462 71.8622C46.3977 71.8622 45.4993 71.3537 45 70.6417C42.8543 67.4892 39.7102 65.4044 34.0213 65.5569C25.4877 65.7601 22.0942 62.2009 21.4457 55.3871C21.0963 51.6751 20.0982 48.0648 18.0522 46.0306L16.8544 46.7936C19.1498 48.8274 19.8985 52.1327 20.3976 56.6583C21.196 63.4721 26.5855 66.6249 32.8734 66.7265C39.4108 66.8281 41.7562 68.2011 44.2013 71.5574C44.9997 72.6251 45.8981 72.9811 46.5966 73.1336L47.0462 72.0654Z" fill="black"/>
<path opacity="0.4" d="M70.2013 39.3693C70.351 40.132 70.7501 41.6066 71.5486 42.3184C71.8982 42.6744 71.9479 42.776 71.6485 42.776C71.3489 42.776 69.1532 42.6744 69.1532 42.6744L68.5544 41.6066L70.2013 39.3693Z" fill="black"/>
</svg>
