<svg width="256" height="256" viewBox="0 0 256 256" fill="none" xmlns="http://www.w3.org/2000/svg">
<g id="GSAP-Dark" clip-path="url(#clip0_47_46)">
<path id="Vector" d="M196 0H60C26.8629 0 0 26.8629 0 60V196C0 229.137 26.8629 256 60 256H196C229.137 256 256 229.137 256 196V60C256 26.8629 229.137 0 196 0Z" fill="#242938"/>
<g id="greensock 1" clip-path="url(#clip1_47_46)">
<path id="Vector_2" d="M62.7369 114.089C56.299 117.107 39.2621 130.696 35.9807 134.722C32.573 138.747 31.5632 132.457 35.0965 122.015C37.8726 113.585 44.9413 102.136 56.8043 92.3238C63.7445 86.6623 79.0159 78.4845 88.3548 73.7038C90.2481 72.6964 114.732 62.3808 136.565 57.2223C138.459 56.7186 134.294 60.3675 133.662 62.3808C130.381 71.9423 64.8807 112.956 64.8807 112.956L62.7369 114.089ZM154.991 229.456C156.127 236.25 155.117 236.753 148.051 237.634C140.983 238.516 135.808 235.873 133.916 234.112C132.022 232.349 131.644 228.45 133.537 224.927C134.674 222.663 135.809 221.908 136.441 219.14C137.071 216.499 137.576 215.869 138.081 214.863C138.585 213.982 138.712 213.1 138.838 206.936C138.964 200.772 138.838 189.197 139.469 184.291C140.101 179.259 161.934 186.555 161.934 186.555C161.934 186.555 156.759 199.387 155.371 202.533C153.983 205.679 154.109 211.717 154.109 212.975C154.109 214.233 153.604 216.749 153.225 216.875C152.846 217.001 154.488 220.272 153.73 222.159C153.225 223.921 154.866 228.45 154.991 229.456ZM163.321 37.0927C162.563 32.3119 163.321 22.8749 164.331 21.3667C167.486 17.0882 184.144 16.5853 187.678 21.6179C189.193 23.8823 189.067 29.166 188.815 32.563C188.563 35.9601 187.678 43.2571 187.552 45.6482C187.427 47.4097 169.126 50.1764 165.088 45.3964C163.952 44.1386 163.321 37.0927 163.321 37.0927ZM200.425 217.252C208.124 222.789 214.055 223.795 217.967 225.807C221.879 227.822 220.87 231.722 214.308 232.853C209.007 233.86 200.678 231.847 195.125 231.847C189.572 231.847 177.204 232.476 173.922 230.212C170.136 227.57 171.776 222.663 171.776 222.663C172.787 219.896 175.309 213.73 174.552 208.698C173.795 203.666 172.785 200.898 170.893 196.243C168.999 191.588 167.612 180.139 169.379 179.51C171.146 178.88 170.641 179.51 172.912 180.013C175.184 180.516 177.708 181.271 182.63 181.271C187.552 181.271 192.979 180.516 194.872 180.139C196.765 179.762 198.28 179.383 197.648 183.284C197.017 187.184 195.125 194.481 194.998 200.143C194.872 205.805 194.872 212.347 195.251 213.479C195.629 214.611 198.406 215.869 200.425 217.253" fill="black"/>
<g id="Group">
<path id="Vector_3" d="M173.418 49.6733C159.536 61.6259 132.653 64.8956 92.7729 80.2452C82.5506 84.1452 55.2906 95.8452 48.7278 108.05C70.8132 95.343 79.0166 112.83 80.7836 130.821C82.4235 147.679 90.8796 156.487 112.587 155.982C134.925 155.48 141.74 168.438 147.924 183.661C159.913 125.41 179.097 114.088 191.464 104.15C217.715 82.8867 185.407 45.3956 173.418 49.6733Z" fill="#88CE02"/>
<path id="Vector_4" d="M173.417 49.6733C140.099 61.2474 107.16 64.1407 68.4153 87.9185C59.2028 93.58 39.7672 106.413 35.9806 130.946C50.1151 115.345 82.8017 95.7193 122.809 83.2644C143.002 76.9733 157.768 72.8222 175.689 65.9015C174.427 57.8496 174.427 54.7044 173.417 49.6718" fill="#88CE02"/>
</g>
<path id="Vector_5" d="M215.948 118.617C215.948 118.617 213.55 126.795 208.755 129.438C208.755 129.438 205.221 130.696 198.154 126.796C196.134 125.664 194.62 121.764 194.746 120.504C194.872 117.485 196.765 116.101 196.765 116.101C196.765 116.101 198.785 112.704 201.182 112.83C203.581 112.956 207.619 113.333 208.882 112.201C210.016 110.943 216.201 114.465 215.948 118.617ZM164.457 39.4829C164.457 39.4829 163.952 45.8992 163.069 49.9252C162.943 50.6807 159.157 51.057 156.38 52.1896C161.68 67.2867 193.61 67.1607 197.776 59.7378C195.756 58.3548 191.718 56.2155 189.825 55.4607C187.931 54.7052 188.057 54.8311 187.931 51.3089C187.805 47.7867 187.552 41.2444 187.299 39.4829C187.047 37.7215 167.486 37.7207 164.457 39.4829Z" fill="black"/>
<path id="Vector_6" d="M165.719 39.483C165.719 39.483 165.719 43.1311 165.34 46.6533C165.215 48.2896 165.088 49.2956 164.836 50.5533C164.71 51.3089 169.127 54.3274 170.389 60.9956C176.447 74.457 190.456 67.7896 196.261 61.3733C194.242 59.9889 190.96 58.1022 187.175 56.5926C185.281 55.837 186.164 54.2022 186.038 50.68C185.912 47.157 185.407 41.9985 185.155 40.1111C184.903 38.2237 168.748 37.7207 165.719 39.483Z" fill="#EFEFEF"/>
<path id="Vector_7" d="M164.457 39.483C164.457 39.483 164.331 41.7474 163.952 44.3896C165.592 46.0244 167.738 48.2896 169.38 49.6733C170.515 50.6807 173.291 50.5548 175.816 50.5548C178.088 50.5548 180.107 50.8059 180.99 50.303C183.01 49.2955 185.912 46.78 187.553 44.8926C187.427 42.6281 187.301 40.4896 187.175 39.483C187.047 37.7207 167.486 37.7207 164.457 39.483Z" fill="black"/>
<path id="Vector_8" d="M175.942 49.0444C174.427 49.0444 172.66 48.9185 171.272 48.6667C170.64 48.5407 170.01 48.1637 169.505 47.9119C168.621 47.2822 167.738 46.5281 166.729 45.7726C164.709 44.263 164.583 43.3822 164.583 43.0059C165.467 35.0793 164.331 28.4119 164.331 28.4119C164.331 28.4119 163.446 25.0141 168.243 24.1333C173.039 23.2526 175.941 23.1274 175.941 23.1274C175.941 23.1274 178.97 23.1274 183.639 24.1333C188.436 25.0148 187.552 28.4119 187.552 28.4119C187.552 28.4119 186.416 35.0793 187.299 43.0059C187.299 43.3822 187.174 44.263 185.154 45.7726C183.387 47.0311 181.999 48.4148 180.611 48.6667C179.222 48.9185 177.455 49.0444 175.942 49.0444Z" fill="black"/>
<path id="Vector_9" d="M175.942 19.8563C167.612 19.8563 165.971 22.1207 163.573 24.637C163.069 25.2659 163.447 29.04 164.331 37.0926H165.467C165.467 37.0926 164.709 34.8274 164.835 32.1852C164.961 29.5437 165.467 29.6696 165.088 29.04C164.582 28.2844 163.573 27.0267 165.846 25.7689C168.116 24.5111 171.65 26.7756 175.942 26.9015C180.232 26.7756 183.892 24.5111 186.164 25.7689C188.436 27.0267 187.426 28.2852 186.922 29.04C186.417 29.7956 187.048 29.5437 187.174 32.1852C187.3 34.8267 186.542 37.0926 186.542 37.0926H187.678C188.436 29.0407 188.94 25.5178 188.562 24.8881C186.416 22.1207 184.271 19.9815 175.942 19.8563ZM215.948 118.995C215.948 118.995 213.55 126.669 208.882 129.311C207.871 128.807 207.997 128.053 207.113 126.921C206.861 126.544 205.978 126.291 205.6 125.914C205.221 125.536 205.347 124.907 204.715 124.404C204.211 123.901 203.833 124.279 203.327 123.901C202.823 123.399 202.696 122.769 202.318 122.393C202.066 122.141 201.056 122.015 200.804 121.763C200.172 121.133 194.62 120.001 194.873 118.743C195.376 116.856 196.387 115.472 196.387 115.472C196.387 115.472 198.785 111.95 201.182 112.075C203.58 112.201 205.851 112.704 207.114 111.572C208.503 110.313 216.328 114.969 215.948 118.994" fill="black"/>
<path id="Vector_10" d="M199.542 63.3867C199.542 63.3867 207.493 61.4993 212.92 66.6578C218.347 71.9422 217.967 78.4837 216.327 82.5096C217.715 84.1452 220.239 88.6741 218.347 94.0845C226.677 101.129 223.016 111.95 215.57 119.121C215.57 119.121 213.803 112.579 206.736 112.201C206.988 109.685 200.173 107.672 203.328 101.13C198.532 99.997 198.659 96.7259 197.901 92.7C197.27 88.6741 199.542 63.3867 199.542 63.3867Z" fill="black"/>
<path id="Vector_11" d="M196.639 66.9096C196.639 66.9096 205.851 62.2548 211.279 67.5393C216.705 72.823 215.19 78.6096 213.55 82.6356C214.938 84.2704 218.22 88.9267 216.2 94.4615C215.821 95.72 213.045 95.72 211.025 98.9911C216.073 96.0963 219.229 96.8518 220.365 100.5C222.132 106.161 218.219 112.955 214.812 116.73C214.812 116.604 214.686 116.478 214.686 116.352C214.18 118.24 213.55 121.887 209.764 125.913C207.87 127.927 206.356 127.676 204.211 127.172C201.687 126.542 200.803 125.41 197.27 123.524C195.25 122.391 196.386 121.007 196.386 119.875C196.386 119.623 196.638 119.245 197.017 118.743C197.27 118.113 198.027 117.107 199.162 115.975C199.162 115.975 200.803 113.71 203.202 113.836C205.6 113.961 208.123 113.459 208.755 112.83C208.755 108.427 203.707 108.3 205.473 100.752C205.6 100.374 206.231 99.7444 208.249 99.4933C205.221 98.8637 203.833 98.7378 201.687 96.7259C200.172 95.3422 199.037 93.5807 198.658 91.3163C197.901 87.4163 196.639 66.9096 196.639 66.9096Z" fill="#EFEFEF"/>
<path id="Vector_12" d="M170.01 58.9837C169.252 57.9763 165.34 52.9444 157.894 50.9319C155.748 50.3022 154.36 52.0637 152.216 53.3222C151.584 52.9444 148.807 51.6867 147.293 52.5667C145.779 53.4467 144.769 54.3281 143.254 54.957C142.496 54.5793 140.478 54.5793 138.838 55.2089C137.197 55.7119 134.673 56.8437 132.275 60.1148C130.761 65.5252 159.03 61.4985 159.03 61.4985L170.01 58.9837Z" fill="black"/>
<path id="Vector_13" d="M170.262 58.9837C166.223 57.5993 166.855 52.9445 157.894 52.1896C156.127 52.0637 154.991 53.4474 153.729 54.3282C154.361 54.9578 154.991 55.9637 155.37 56.9696C154.234 55.7126 152.215 54.0763 150.195 53.6985C148.302 53.3222 147.04 54.7059 145.021 55.7126C145.399 56.0889 145.778 56.7185 146.282 57.4741C144.515 56.3415 143.254 55.9645 140.856 56.8445C139.215 57.3474 136.06 58.7319 133.662 62.1289C132.148 67.5385 159.155 61.4993 159.155 61.4993L170.262 58.9837Z" fill="#88CE02"/>
<path id="Vector_14" d="M193.989 60.9963C193.989 60.9963 193.989 59.6126 193.863 58.3548C193.863 58.103 192.853 57.4733 192.853 57.2222L192.6 56.9704C192.6 56.9704 194.62 55.8385 196.134 56.4674C197.774 56.9711 198.658 59.1096 198.658 59.1096C201.561 58.1037 201.813 59.2356 203.202 60.7452C206.231 60.1156 206.609 61.2482 208.503 64.0163C208.503 64.0163 206.231 63.6385 201.814 64.3933C197.522 65.0215 193.989 60.8704 193.989 60.9963Z" fill="black"/>
<path id="Vector_15" d="M193.484 60.3674C193.484 60.3674 194.241 59.7378 193.988 59.6118C195.376 58.8563 197.27 57.977 198.153 60.3674C201.056 59.36 201.435 60.7452 202.823 62.2548C206.356 60.6193 206.608 62.6311 206.861 63.5126C205.725 63.5126 204.085 63.6385 201.813 63.8896C197.522 64.5193 193.358 60.2407 193.484 60.3674Z" fill="#88CE02"/>
<path id="Vector_16" d="M150.574 57.2222C150.574 57.2222 157.768 59.7378 163.826 59.36C169.884 58.8578 180.233 58.3541 185.785 61.6252C185.785 61.6252 191.464 59.6119 196.765 60.9956C202.066 62.3793 211.784 71.4378 208.882 80.9993C208.629 81.6289 206.988 82.6348 205.095 83.2645C205.095 83.2645 206.106 87.5422 204.338 91.0645C202.571 94.4615 198.659 101.004 198.532 110.062C198.406 111.572 198.154 114.717 197.901 116.226C188.057 115.85 172.913 112.2 158.021 112.453C158.147 110.817 158.273 109.81 158.4 108.175H158.778C158.02 104.023 157.768 101.884 157.011 98.7393C152.215 95.72 147.166 92.197 142.876 85.5289C138.711 78.8607 150.574 57.2222 150.574 57.2222ZM199.289 125.159C199.289 125.159 207.114 153.09 197.901 164.79C197.901 164.79 199.289 170.2 196.134 175.987C195.629 178.503 194.998 180.768 194.62 183.284C192.979 193.726 190.203 198.129 189.445 214.861L181.873 214.736C181.873 214.736 180.989 202.659 178.339 196.242C176.825 192.594 170.893 187.687 171.146 182.781C171.399 179.007 172.155 175.861 178.592 170.828C179.097 163.532 171.777 156.612 172.913 129.437L199.289 125.159Z" fill="black"/>
<path id="Vector_17" d="M197.018 124.027C199.038 136.859 203.707 155.856 195.251 165.167C195.629 166.928 195.882 169.444 195.377 172.337C195.125 173.847 194.619 175.482 193.989 177.244C192.727 180.263 192.221 184.666 191.843 187.308C190.203 197.75 190.203 198.255 189.445 214.987L181.873 214.861C181.873 214.861 180.989 202.784 178.339 196.367C176.825 192.719 173.669 189.574 173.417 184.667C173.165 180.893 175.815 173.345 182.126 173.596C181.747 158.373 174.679 161.393 172.787 129.688L197.018 124.027ZM150.574 57.2222C150.574 57.2222 153.351 58.103 156.38 58.3541C159.409 58.6059 162.691 58.3541 165.592 58.2282C171.65 57.7252 180.232 57.0963 185.911 60.3674C185.911 60.3674 189.066 59.36 192.475 59.6119C193.989 59.7378 195.504 60.9956 197.271 61.4993C202.823 62.883 208.124 72.0667 205.725 80.3711C205.472 81.0007 203.706 80.3711 201.687 81.0007C202.065 82.7615 202.318 86.7874 200.299 91.0652C198.153 95.343 195.376 100.879 195.881 111.447C182.63 110.817 176.698 109.937 163.573 109.308C162.437 104.653 161.679 99.997 161.553 97.6074C163.321 96.7259 164.329 95.9726 165.719 94.4622C161.933 95.0919 160.418 94.84 158.145 93.5807C155.874 92.323 151.835 88.297 149.816 85.6556C149.564 85.4037 148.176 89.5548 145.021 89.6815C143.884 88.0459 148.68 83.3904 147.797 81.6296C144.642 75.2126 150.574 57.2222 150.574 57.2222Z" fill="#EFEFEF"/>
<path id="Vector_18" d="M198.026 113.585C198.026 113.585 198.279 118.114 198.279 119.246C198.279 120.504 199.289 124.278 199.415 126.04C198.027 128.43 191.97 133.84 180.989 135.853C170.135 138.118 155.748 121.133 155.748 121.133C156.127 119.498 157.389 114.717 158.272 112.201C158.399 111.949 158.651 111.32 158.651 111.069C159.788 109.433 198.026 113.585 198.026 113.585Z" fill="black"/>
<path id="Vector_19" d="M195.251 113.963C195.251 117.107 195.755 119.373 196.135 121.385C196.765 125.034 197.774 127.424 197.774 129.815C197.774 137.111 188.183 135.853 180.105 136.105C169.252 138.37 160.039 121.386 160.039 121.386C160.796 118.492 161.301 115.221 162.436 112.453C162.563 110.944 162.815 109.056 162.942 108.176C178.338 108.176 189.192 109.057 195.503 109.684C195.755 111.069 195.503 113.459 195.251 113.962" fill="#EFEFEF"/>
<path id="Vector_20" d="M183.135 130.192C183.135 130.192 176.446 115.346 156.379 119.75C151.584 133.211 145.147 148.687 149.313 165.419C145.147 171.081 140.351 174.227 140.351 184.668C140.351 195.11 140.856 196.872 140.856 196.872L155.622 197.627C155.622 197.627 160.418 191.463 162.31 184.795C162.815 182.907 163.321 179.51 162.942 175.61C163.446 174.856 165.592 173.095 165.845 169.698C165.845 169.698 173.038 165.924 177.203 156.739C181.116 148.434 180.106 141.263 183.135 130.191" fill="black"/>
<path id="Vector_21" d="M183.135 130.192C182.756 128.808 177.708 115.221 159.03 119.246C148.05 148.434 152.089 160.513 153.729 165.796C146.282 175.231 142.875 177.244 144.39 196.367H154.235C158.778 189.197 159.787 186.554 160.039 177.119C160.039 176.741 158.652 177.874 157.642 179.132C158.399 175.232 160.545 174.477 162.185 172.087C162.943 171.079 163.573 169.57 163.573 167.557C172.408 161.644 175.689 154.221 177.582 146.547C179.097 141.263 180.863 132.582 183.135 130.191" fill="#EFEFEF"/>
<path id="Vector_22" d="M151.962 109.936C151.962 109.936 155.37 110.062 158.399 111.069C161.303 112.075 161.303 112.704 162.438 113.962C163.574 115.221 166.35 117.107 165.846 118.995C165.593 120.001 164.962 120.253 164.079 121.133C163.7 121.511 160.923 124.53 160.293 124.907C159.914 125.159 159.409 125.537 159.03 125.789L157.138 127.047C155.875 127.676 154.992 128.053 153.604 127.927C153.604 127.927 150.449 127.801 148.429 125.663C148.429 125.663 148.176 124.656 148.682 124.153C148.682 124.153 146.031 121.888 145.274 120.379C144.516 118.87 144.516 116.731 145.021 115.599C145.274 114.465 150.195 111.32 151.962 109.936ZM155.118 232.35L154.739 235.496C154.739 235.496 153.604 236.879 145.148 236.753C136.566 236.627 134.294 233.986 133.537 232.602L133.033 229.33C133.033 229.33 134.673 226.94 135.052 226.94C137.829 227.192 147.294 230.966 153.857 231.973C154.486 231.973 154.613 232.223 155.118 232.35ZM173.417 225.933C173.417 227.317 173.291 227.317 173.291 228.701C174.806 229.833 178.592 230.463 185.785 230.336C196.26 230.084 205.978 233.482 217.841 231.468L217.967 229.204L216.832 229.079L174.806 225.681L173.417 225.933Z" fill="black"/>
<path id="Vector_23" d="M182.63 230.337H185.785C192.601 230.085 199.038 231.595 205.978 231.973C209.638 231.847 214.181 230.965 213.803 228.324L177.961 225.304C175.815 227.694 177.456 229.707 182.63 230.337ZM141.487 177.37C142.623 178.126 150.322 182.655 162.816 182.025C162.564 184.416 162.69 189.071 157.137 197.248C154.36 201.274 151.962 208.32 151.458 217.253C151.584 219.266 152.719 221.027 151.205 223.669C151.71 225.304 153.729 228.576 154.739 230.588C155.748 232.601 156.253 234.866 149.564 234.992C142.749 235.118 131.769 234.362 133.284 229.079C134.042 226.311 136.187 223.418 136.44 222.285C136.692 221.153 136.692 217.756 138.837 215.491C140.73 209.201 140.099 203.162 139.721 197.501C139.089 191.587 138.963 182.152 141.487 177.371M153.225 74.8355C162.185 62.8829 154.613 53.3222 140.226 56.2148C134.42 57.3474 128.615 61.3741 128.236 68.6704C126.343 68.9222 122.053 69.1733 119.907 76.9741C118.267 83.0126 117.383 84.1444 114.48 87.1637C112.587 89.3029 114.606 93.7059 115.994 96.8526C120.664 107.672 135.051 108.678 144.769 116.856C148.05 115.975 151.458 112.327 152.467 109.937C144.263 100.248 146.03 96.4748 142.749 91.4422C146.283 90.183 154.36 85.2785 153.225 74.8355Z" fill="black"/>
<path id="Vector_24" d="M151.458 74.0808C151.962 73.3252 152.846 71.6904 153.225 71.0608C153.351 70.9348 154.739 73.3252 154.865 73.2C158.272 67.6637 159.156 59.6119 155.244 58.8571C154.359 58.7311 152.719 58.3541 151.331 57.8496C148.807 56.9696 146.536 56.9696 142.496 57.7245C136.944 58.7311 131.391 62.7571 131.391 68.5445C131.391 68.9222 135.303 70.0541 136.439 74.7096C134.546 72.0667 131.264 69.1734 127.351 71.6896C123.187 74.3311 125.332 80.3704 119.779 86.66C117.886 88.7993 118.139 91.3156 120.158 96.3482C123.439 104.274 138.962 108.552 147.418 116.1C149.437 115.219 150.825 113.207 151.835 111.697C146.156 105.784 143.884 100.248 142.244 96.2222C140.225 91.5674 137.953 88.9259 133.535 85.4015C135.807 86.283 137.575 87.163 138.583 87.9178C139.719 88.6733 141.36 88.7993 142.875 88.2956C148.303 86.4096 151.205 78.8608 151.457 74.0808" fill="#EFEFEF"/>
<path id="Vector_25" d="M206.357 76.0933C205.978 80.8741 202.445 78.4837 200.552 77.6029C196.765 75.9674 192.979 74.8355 188.562 74.8355C184.144 74.8355 178.465 75.2133 173.544 76.4711C166.729 78.3578 164.709 78.2326 161.68 76.7222C158.652 75.0867 153.352 71.0607 153.352 71.0607C153.352 71.0607 153.226 72.3192 154.487 73.9548C156.127 75.9674 159.788 78.4837 164.71 80.1185C167.107 80.8741 169.001 80.3704 171.147 79.8674C182.379 77.1 194.241 76.5963 204.212 82.6348C204.717 82.8867 206.484 82.1311 207.241 80.9992C208.249 79.3644 206.357 76.0933 206.357 76.0933Z" fill="black"/>
<path id="Vector_26" d="M148.934 124.027C149.943 124.656 151.205 125.034 152.593 126.166C152.593 126.166 151.458 126.166 150.953 125.663C150.322 125.285 149.06 124.153 148.934 124.027Z" fill="#001423"/>
<path id="Vector_27" d="M185.407 24.2593C185.028 23.1274 182.251 21.1141 175.815 21.1141C168.874 21.1141 166.854 23.2526 166.729 24.3852C166.729 24.763 166.224 28.7889 166.098 30.4237C166.098 30.4237 166.098 32.437 166.224 35.4563C166.35 37.4689 166.855 38.6015 167.107 41.2437C167.359 44.0104 168.117 45.7726 169.505 48.037C170.136 48.4141 170.641 48.7926 171.272 48.9185C173.796 49.4207 178.213 49.5467 180.611 48.9185C181.999 48.5407 183.766 46.1504 184.144 44.0111C184.65 41.3696 185.154 39.4822 185.281 37.8467C185.533 36.2119 185.659 32.563 185.785 31.5563C186.164 28.7889 185.532 24.5111 185.406 24.26" fill="#EFEFEF"/>
<path id="Vector_28" d="M172.155 179.761C172.155 179.761 178.845 182.655 195.377 180.139C195.377 180.139 190.708 203.539 192.854 215.239C192.854 215.239 194.999 218.259 210.901 224.046C210.901 224.046 217.968 225.807 217.716 229.33C217.716 229.33 217.969 230.086 209.386 229.833C200.805 229.581 192.727 228.072 187.048 228.072C181.369 228.072 175.311 228.324 174.302 226.688C173.166 225.179 174.554 221.278 176.194 219.013C177.963 216.624 177.457 214.861 177.331 210.584C176.951 199.387 168.369 187.813 172.155 179.761Z" fill="black"/>
<path id="Vector_29" d="M170.767 181.9C169.883 183.159 170.893 187.939 172.155 192.594C173.417 197.248 176.194 200.016 176.824 207.69C177.456 215.239 177.582 216.246 175.436 220.649C173.29 225.052 172.66 229.079 180.105 229.204C187.551 229.33 191.591 229.079 199.162 230.211C206.735 231.343 209.385 231.72 213.55 231.092C217.715 230.462 218.598 229.078 216.832 227.821C215.065 226.562 207.744 225.179 204.59 222.661C201.56 220.397 192.979 216.623 192.853 215.617C192.474 212.219 192.348 199.89 192.979 195.864C193.61 191.838 194.493 186.051 194.746 184.541C194.998 183.032 196.26 181.521 194.114 182.025C191.97 182.527 183.892 183.661 177.834 183.283C171.777 182.906 171.147 181.522 170.767 181.9Z" fill="#88CE02"/>
<path id="Vector_30" opacity="0.3" d="M175.058 220.776C177.203 221.781 180.359 222.537 182.756 222.537C182.756 222.537 181.872 226.689 183.262 229.204C184.649 231.721 173.165 230.212 173.165 230.212L172.66 221.279L175.058 220.776ZM208.503 231.595C210.522 230.965 211.91 228.701 210.27 226.563C208.503 224.424 206.988 224.047 209.259 223.921C211.531 223.795 219.861 228.827 219.861 228.827L215.569 232.727L208.503 231.595ZM170.388 186.806C173.291 187.813 177.708 188.064 181.495 187.939C185.281 187.813 190.96 187.309 194.62 186.051C198.28 184.793 196.765 187.435 196.765 187.435L194.746 189.322C194.746 189.322 189.951 191.21 182.126 191.084C172.913 190.959 170.136 189.952 170.136 189.952L170.388 186.806ZM170.641 193.097C173.544 194.104 177.96 194.356 181.746 194.23C185.532 194.104 190.581 194.104 194.241 192.72C195.755 192.216 194.873 194.356 194.873 194.356L194.241 195.487C194.241 195.487 189.319 197.249 181.62 197.122C172.408 196.997 170.767 196.241 170.767 196.241L170.641 193.097Z" fill="black"/>
<path id="Vector_31" d="M162.311 104.904C162.311 105.786 172.155 110.691 177.582 111.698C183.009 112.704 194.367 111.698 196.134 111.321L195.881 113.082C195.881 113.082 182.377 115.096 172.029 112.327C161.68 109.559 162.816 108.93 162.816 108.93L162.311 104.904Z" fill="black"/>
<path id="Vector_32" d="M141.235 212.22C142.749 212.976 148.176 214.359 151.71 213.604C152.214 213.478 151.71 204.922 153.098 201.023C155.117 195.613 158.399 191.21 159.912 181.648C154.612 181.144 148.555 179.761 145.399 178.754C141.361 191.084 142.75 201.652 141.235 212.22ZM149.691 220.146C150.575 220.398 151.205 221.404 151.459 220.776C151.962 219.642 150.574 217.504 150.448 215.995V215.869C149.313 214.863 141.614 214.737 142.119 215.239C141.235 216.875 139.847 216.624 139.343 219.895C139.091 221.53 141.111 220.147 143.002 220.021C139.596 222.284 135.683 225.179 135.052 227.695C134.294 231.217 135.557 232.224 139.343 234.112C142.625 234.867 146.536 234.993 149.565 234.867C152.973 234.237 153.604 232.602 152.595 230.337C151.079 226.94 150.07 222.537 149.691 220.146Z" fill="#EFEFEF"/>
<path id="Vector_33" d="M151.08 56.7185C155.244 59.1089 161.05 58.48 163.194 58.3541C163.7 58.3541 168.748 57.4733 169 57.5985C169.505 57.7244 169.505 58.1022 169.505 58.1022C169.505 58.1022 167.612 59.1081 163.321 59.36C159.282 59.6111 154.486 59.36 151.837 58.1022C148.681 56.7185 151.08 56.7185 151.08 56.7185ZM193.989 59.1089C194.746 59.6118 199.668 61.4992 201.814 63.7637C203.707 65.777 202.698 65.6511 202.318 65.1481C201.814 64.5185 197.901 61.8763 196.387 61.2481C194.873 60.6185 192.979 59.4867 192.979 59.2348C192.979 58.9829 193.989 59.1089 193.989 59.1089Z" fill="black"/>
<path id="Vector_34" d="M150.448 111.32C154.108 111.068 157.893 111.95 160.292 114.465C161.554 115.724 163.573 117.107 163.321 118.365C163.321 118.743 162.563 119.75 161.933 120.504C161.555 121.007 160.419 122.139 160.039 122.517C159.536 122.895 157.768 124.279 157.39 124.53C157.011 124.782 156.505 125.412 156.127 125.537C154.866 126.167 153.477 125.663 152.216 125.034C150.954 124.405 152.468 124.279 151.08 123.273C147.673 120.882 145.779 119.246 147.167 114.591C147.294 113.71 148.681 112.704 150.448 111.32Z" fill="#EFEFEF"/>
<path id="Vector_35" opacity="0.4" d="M118.266 82.5104C106.907 87.0393 78.0068 101.382 69.8033 105.786C76.618 110.063 79.773 120.379 80.7836 130.821C80.9092 131.829 81.0355 132.709 81.1618 133.715C81.2881 134.596 81.4142 135.225 81.54 135.603C81.54 135.729 81.54 135.981 81.6663 136.105C89.1126 115.85 115.741 94.4622 116.751 92.8267C117.256 92.0719 116.119 88.8008 117.887 85.6563C120.159 81.6296 124.577 79.8674 118.266 82.5104ZM145.274 177.497C151.079 165.923 151.205 154.851 151.079 141.893C151.079 136.482 154.991 128.808 152.972 130.947C145.4 139.376 126.343 155.228 112.587 156.109C131.896 155.479 139.468 165.167 145.274 177.497Z" fill="black"/>
<path id="Vector_36" d="M58.6968 116.479C65.8904 111.321 103.121 91.5689 112.082 88.8008C121.042 85.9067 118.265 82.5096 118.265 82.5096C118.265 82.5096 81.9182 98.1096 60.2111 111.572" fill="black"/>
<path id="Vector_37" opacity="0.4" d="M164.709 80.12C161.806 78.9874 159.535 82.3845 160.292 85.6556C161.049 88.9267 167.864 92.5748 167.485 104.527C167.233 114.341 165.088 118.366 165.088 118.366L160.292 112.328C160.292 112.328 159.534 98.74 157.894 96.7267C156.253 94.7141 151.079 91.0652 149.059 89.1785C147.04 87.2911 151.331 84.7748 151.079 81.2526C150.826 77.8556 153.225 71.0615 153.225 71.0615L164.709 80.12ZM182.251 133.715C181.999 143.15 184.146 157.115 185.028 163.784C185.912 170.451 187.047 170.955 185.028 173.975C183.009 176.868 180.358 181.649 180.358 181.649L171.65 180.893C171.65 180.893 178.591 172.087 178.969 170.451C179.348 168.816 175.436 156.361 175.436 156.361L182.251 133.715ZM165.467 45.6482C167.234 49.5474 169.379 51.3089 172.786 52.4415C174.806 53.197 182.756 54.203 185.911 50.68C187.299 49.0445 186.417 44.6407 186.417 44.6407L179.222 50.4282L169.505 48.6667L168.369 45.7733L165.467 45.6482Z" fill="black"/>
<g id="Vector_38">
<path d="M166.223 54.3289C169.505 56.4674 177.708 58.4807 179.98 58.8578C182.251 59.3607 185.911 56.4674 187.678 55.7126C189.572 54.8319 192.853 54.3289 196.639 57.7259C197.018 58.1037 195.755 59.7385 195.755 59.7385C195.628 59.6126 194.872 59.6126 193.861 59.1089C192.852 58.6067 191.969 58.2281 190.454 58.3548C184.144 59.1089 183.135 61.2481 177.582 59.9896C172.029 58.7311 170.641 57.7252 165.214 57.9763" fill="#88CE02"/>
<path d="M166.223 54.3289C169.505 56.4674 177.708 58.4807 179.98 58.8578C182.251 59.3607 185.911 56.4674 187.678 55.7126C189.572 54.8319 192.853 54.3289 196.639 57.7259C197.018 58.1037 195.755 59.7385 195.755 59.7385C195.628 59.6126 194.872 59.6126 193.861 59.1089C192.852 58.6067 191.969 58.2281 190.454 58.3548C184.144 59.1089 183.135 61.2481 177.582 59.9896C172.029 58.7311 170.641 57.7252 165.214 57.9763" stroke="black" stroke-width="0.0642424" stroke-linejoin="round"/>
</g>
<path id="Vector_39" d="M165.088 54.7059C169.253 56.4674 177.33 58.3548 179.601 58.8578C181.873 59.3607 185.532 57.0963 187.299 55.9644C190.455 53.9511 194.493 55.5867 196.387 57.7259C197.648 59.1089 198.154 59.9904 198.154 60.3674C198.154 60.8704 196.64 60.3674 196.64 60.3674C195.755 59.9896 194.746 59.8644 193.989 59.36C192.979 58.8578 191.97 58.103 190.456 58.2282C184.145 58.9837 182.883 61.1222 177.457 59.8637C172.03 58.6052 170.641 57.4733 164.837 57.8504" fill="#88CE02"/>
<path id="Vector_40" d="M145.526 172.213C145.273 171.961 145.779 171.709 145.526 171.709C143.886 171.709 141.614 170.451 140.351 168.69C134.925 160.89 126.973 155.732 112.586 156.109C91.0051 156.613 82.4227 147.806 80.7828 130.947C79.8986 121.764 77.3751 112.83 72.2004 107.798L69.171 109.685C74.9765 114.718 76.8698 122.896 78.1323 134.093C80.1512 150.951 93.7812 158.752 109.683 159.003C126.216 159.255 132.148 162.652 138.332 170.956C140.35 173.597 142.623 174.478 144.389 174.856L145.526 172.213Z" fill="black"/>
<path id="Vector_41" opacity="0.4" d="M204.085 91.317C204.464 93.2037 205.473 96.8526 207.492 98.6133C208.376 99.4941 208.503 99.7452 207.745 99.7452C206.987 99.7452 201.435 99.4941 201.435 99.4941L199.92 96.8526L204.085 91.317Z" fill="black"/>
</g>
</g>
<defs>
<clipPath id="clip0_47_46">
<rect width="256" height="256" fill="white"/>
</clipPath>
<clipPath id="clip1_47_46">
<rect width="192" height="220" fill="white" transform="translate(32 18)"/>
</clipPath>
</defs>
</svg>
