<svg width="158" height="189" viewBox="0 0 158 189" fill="none" xmlns="http://www.w3.org/2000/svg">
<path d="M157.725 37.0491L143.381 173.359L78.9036 188.522L14.6037 173.381L0.27475 37.0491H157.725Z" fill="#E44D26"/>
<path d="M79 176.932L131.101 164.68L143.359 48.1962H79V176.932Z" fill="#F16529"/>
<path d="M51.1156 81.6376H79V64.9169H29.5738L30.0456 69.4028L34.8902 115.48H79V98.7597H52.917L51.1156 81.6376Z" fill="#EBEBEB"/>
<path d="M55.5578 123.841H35.7709L38.5325 150.094L78.9093 159.602L79 159.581V142.185L78.9136 142.204L56.9612 137.176L55.5578 123.841Z" fill="#EBEBEB"/>
<path d="M14.924 0H24.941V8.39514H34.1041V0H44.1215V25.4226H34.1045V16.9096H24.9414V25.4226H14.9245L14.924 0Z" fill="white"/>
<path d="M57.2941 8.43049H48.4756V0H76.1343V8.43049H67.3119V25.4226H57.2945L57.2941 8.43049Z" fill="white"/>
<path d="M80.524 0H90.9689L97.394 8.93273L103.812 0H114.261V25.4226H104.286V12.8217L97.394 21.8609H97.2216L90.3252 12.8217V25.4226H80.524V0Z" fill="white"/>
<path d="M119.247 0H129.267V17.0193H143.353V25.4226H119.247V0Z" fill="white"/>
<path d="M78.9318 115.48H103.204L100.916 137.165L78.9318 142.199V159.594L119.341 150.094L119.637 147.269L124.269 103.25L124.75 98.7596H78.9318V115.48Z" fill="white"/>
<path d="M78.9318 81.5968V81.6376H126.544L126.939 77.8793L127.837 69.4028L128.309 64.9169H78.9318V81.5968Z" fill="white"/>
</svg>

