<svg width="156" height="189" viewBox="0 0 156 189" fill="none" xmlns="http://www.w3.org/2000/svg">
<g clip-path="url(#clip0_19_16)">
<path d="M0 0H156V189H0" fill="#F7DF1E"/>
<path d="M98.7188 136.582C102.172 143.719 106.742 147.287 112.43 147.287C119.539 147.287 123.094 143.965 123.094 137.32C123.094 133.26 118.523 129.568 111.211 125.877C97.6016 120.463 90.8984 111.234 91.1016 98.1914C91.1016 84.9023 99.3281 74.5664 112.43 74.5664C122.18 74.5664 129.086 79.3652 133.148 88.9629L121.875 97.8223C119.438 92.4082 116.289 89.8242 112.43 90.0703C107.961 90.3164 105.625 92.9004 105.422 97.8223C105.422 102.99 108.164 105.205 117.305 110.004C130.406 116.279 137.719 123.293 137.719 138.428C137.109 154.424 129.086 162.668 113.648 163.16C100.852 163.16 91.8125 157.131 86.5312 145.072L98.7188 136.582ZM46.9219 138.059C49.3594 142.857 50.8828 147.287 56.9766 147.287C61.8516 147.287 64.2891 143.596 64.2891 136.213V74.9355H78.9141V135.475C78.7109 152.947 71.3984 161.807 56.9766 162.053C46.2109 161.807 38.8984 156.393 35.0391 145.811L46.9219 138.059Z" fill="black"/>
</g>
<defs>
<clipPath id="clip0_19_16">
<rect width="156" height="189" fill="white"/>
</clipPath>
</defs>
</svg>

