<svg width="144" height="189" viewBox="0 0 144 189" fill="none" xmlns="http://www.w3.org/2000/svg">
<path d="M65.364 2.52194C69.314 -0.153586 74.3503 -0.165399 78.2015 2.52194L137.175 42.2887C140.863 44.7693 143.332 49.6893 143.298 54.7745V134.509C143.322 139.807 140.612 144.833 136.721 147.266L78.0633 186.85C76.057 188.176 73.7905 188.836 71.4991 188.76C69.2077 188.684 66.9751 187.876 65.0332 186.419L47.431 174.252C46.2312 173.396 44.8833 172.716 44.034 171.328C44.7845 170.124 46.1176 169.97 47.2039 169.438C49.6529 168.505 51.8945 167.076 54.146 165.564C54.7138 165.091 55.41 165.269 55.9532 165.694L70.9632 176.077C72.0346 176.815 73.1208 175.841 74.0392 175.221L131.635 136.34C132.346 135.926 132.741 135.029 132.682 134.095V55.1289C132.761 54.0658 132.252 53.0972 131.448 52.666L72.9382 13.2536C72.601 12.9746 72.2009 12.8247 71.791 12.8236C71.381 12.8226 70.9804 12.9705 70.6422 13.2477L12.2168 52.7428C11.4268 53.1739 10.8836 54.1308 10.9824 55.1939V134.16C10.9133 135.094 11.328 135.974 12.044 136.375L27.6563 146.918C30.5892 148.808 34.1886 149.871 37.4178 148.483C38.8309 147.846 40.0474 146.708 40.9043 145.22C41.7612 143.733 42.2175 141.968 42.2121 140.161L42.2269 61.6671C42.1578 60.5036 43.0762 59.5409 44.0192 59.659H51.5242C52.5117 59.6295 53.2869 60.8816 53.1536 62.051L53.1388 141.041C53.1437 148.058 50.7342 155.689 45.3079 159.132C38.6225 163.266 30.3571 162.398 23.7508 158.423L6.96327 147.32C3.01327 144.957 0.361836 139.854 0.386523 134.562V54.8277C0.402947 52.2362 0.998527 49.6971 2.11152 47.4737C3.22452 45.2502 4.81442 43.4233 6.7164 42.1824L65.364 2.52194ZM82.3688 57.7926C90.8958 57.202 100.025 57.4028 107.698 62.429C113.638 66.2799 116.931 74.3597 117.04 82.2622C116.872 83.3254 115.944 83.916 115.095 83.8392C112.626 83.8333 110.147 83.8805 107.669 83.8215C106.617 83.8687 106.01 82.7111 105.876 81.6007C105.165 77.8207 103.442 74.0821 100.47 72.257C95.9074 69.5224 90.6144 69.6583 85.6374 69.7174C82.0034 69.9536 78.0978 70.3257 75.0218 72.8772C72.6518 74.8144 71.9408 78.7834 72.7851 81.8665C73.5751 84.1286 75.7624 84.8551 77.5448 85.5284C87.8247 88.7414 98.7119 88.4815 108.799 92.6572C112.971 94.3819 117.055 97.7366 118.487 102.964C120.353 109.968 119.538 118.344 115.376 123.966C111.999 128.597 107.081 131.054 102.168 132.483C95.6358 134.225 88.8616 134.267 82.2305 133.487C75.9945 132.637 69.5066 130.676 64.6925 125.596C60.5747 121.32 58.57 114.658 58.7675 108.232C58.8169 107.145 59.7205 106.389 60.5944 106.478H68.0006C68.998 106.395 69.7288 107.423 69.7782 108.545C70.2373 112.089 71.368 115.928 73.9948 117.995C79.0606 121.905 85.4152 121.633 91.2118 121.746C96.016 121.492 101.408 121.415 105.333 117.611C107.407 115.444 108.014 111.823 107.456 108.705C106.849 106.07 104.494 104.848 102.519 103.98C92.3721 100.14 81.3615 101.534 71.3137 97.1873C67.2353 95.4627 63.2903 92.2024 61.7251 87.188C59.5378 80.1005 60.5401 71.3179 65.1468 65.8842C69.5905 60.48 76.108 58.3951 82.2799 57.6509L82.3688 57.7926Z" fill="#8CC84B"/>
</svg>
