<svg width="140" height="167" viewBox="0 0 140 167" fill="none" xmlns="http://www.w3.org/2000/svg">
<path fill-rule="evenodd" clip-rule="evenodd" d="M70 0.8125C83.6716 0.8125 97.0362 5.66204 108.404 14.7479C119.771 23.8337 128.631 36.7477 133.863 51.8569C139.095 66.966 140.464 83.5917 137.797 99.6315C135.13 115.671 128.546 130.405 118.879 141.969C109.211 153.533 96.8946 161.408 83.4856 164.599C70.0767 167.789 56.178 166.152 43.547 159.893C30.9161 153.635 20.1202 143.037 12.5247 129.439C4.92911 115.841 0.875 99.854 0.875 83.5C0.875 61.5699 8.15779 40.538 21.1212 25.0311C34.0847 9.52419 51.6669 0.8125 70 0.8125Z" fill="#CC6699"/>
<path d="M113.361 36.2027C110.231 21.5198 89.8735 16.7121 70.6073 24.8745C58.5416 29.7245 47.394 37.3733 37.8026 47.3833C27.1919 59.2548 25.4983 69.5908 26.1945 73.9082C28.6633 89.1464 46.1075 99.1043 53.2817 106.493V106.534C51.1684 107.781 35.6844 117.166 32.0504 126.734C28.2288 136.845 32.6577 144.098 35.5955 145.073C40.0063 146.343 44.6388 145.929 48.8432 143.89C53.0476 141.851 56.6129 138.289 59.0388 133.703C61.0437 129.988 62.298 125.765 62.7025 121.369C63.107 116.973 62.6506 112.525 61.3693 108.377C64.8249 107.327 68.417 107.08 71.9503 107.651C84.0768 109.346 86.4567 118.4 86.0025 122.192C85.7888 123.542 85.3347 124.82 84.671 125.941C84.0073 127.063 83.1496 128 82.1562 128.689C81.3069 129.321 81.0452 129.533 81.1193 130.006C81.223 130.685 81.613 130.661 82.3388 130.514C84.1612 129.827 85.7669 128.496 86.9444 126.697C88.1219 124.897 88.8161 122.713 88.9353 120.432C89.2267 111.572 82.1117 101.614 69.5112 101.868C65.8515 101.743 62.1997 102.342 58.703 103.64C58.5302 103.404 58.3525 103.168 58.1698 102.932C50.3784 92.9913 35.9807 85.957 36.588 72.5911C36.8102 67.7303 38.2223 54.9374 64.238 39.4157C85.568 26.6996 102.642 30.202 105.594 37.9569C109.811 49.037 96.47 69.6203 74.3203 72.5911C71.8722 73.1856 69.3436 73.1131 66.9221 72.379C64.5006 71.6449 62.2483 70.268 60.3324 68.3505C59.1672 66.8148 58.9943 66.7499 58.5598 67.0334C57.8538 67.4999 58.3031 68.8584 58.5598 69.6616C59.408 71.4901 60.5528 73.0975 61.9272 74.3896C63.3016 75.6817 64.8779 76.6325 66.5635 77.1862C75.2722 79.4498 84.3556 78.3752 92.5249 74.115C105.96 67.9193 116.437 50.6435 113.361 36.2027ZM56.2639 111.041C57.2446 115.085 57.1947 119.387 56.1207 123.397C56.0055 123.814 55.8788 124.228 55.7405 124.637C55.6023 125.047 55.4525 125.44 55.2912 125.818C54.4603 127.852 53.3839 129.729 52.0967 131.388C48.0825 136.627 42.4685 138.611 40.064 136.94C37.4668 135.138 38.7654 127.75 43.4215 121.861C46.9991 117.629 51.1238 114.115 55.6368 111.454L56.2639 111.041Z" fill="white"/>
</svg>
