<svg width="158" height="189" viewBox="0 0 158 189" fill="none" xmlns="http://www.w3.org/2000/svg">
<path d="M148.125 25.1591C139.724 13.0681 126.999 4.62082 112.547 1.54173C98.0946 -1.53736 83.0053 0.983934 70.3593 8.59089L25.9218 36.2045C19.9625 39.94 14.8532 44.8714 10.9209 50.683C6.98866 56.4947 4.32006 63.0585 3.08591 69.9545C1.02461 81.7044 2.98015 93.8021 8.6406 104.318C4.67356 110.04 1.94168 116.517 0.617159 123.341C-0.604702 130.365 -0.415711 137.56 1.17323 144.511C2.76217 151.462 5.71961 158.032 9.87497 163.841C27.7734 189 62.3359 196.364 87.6406 180.409L132.078 152.182C138.037 148.446 143.147 143.515 147.079 137.703C151.011 131.892 153.68 125.328 154.914 118.432C156.835 106.881 154.883 95.0219 149.359 84.6818C153.326 78.9598 156.058 72.4828 157.383 65.6591C158.605 58.635 158.416 51.4399 156.827 44.4888C155.238 37.5376 152.28 30.9681 148.125 25.1591Z" fill="#FF3E00"/>
<path d="M66.0391 166.295C51.8437 169.977 36.4141 164.455 28.3906 152.182C25.8716 148.662 24.0831 144.679 23.1294 140.465C22.1757 136.25 22.0759 131.889 22.8359 127.636C22.9663 126.398 23.1724 125.168 23.4531 123.955L24.6875 121.5L27.1562 122.727C32.3807 126.551 38.2257 129.457 44.4375 131.318L45.6719 131.932V133.773C45.5816 135.967 46.2335 138.127 47.5234 139.909C48.7182 141.661 50.4207 143.01 52.405 143.778C54.3893 144.545 56.5614 144.694 58.6328 144.205C59.7238 143.972 60.7672 143.557 61.7187 142.977L105.539 115.364C106.652 114.699 107.611 113.809 108.355 112.752C109.1 111.695 109.612 110.494 109.859 109.227C110.058 107.939 109.996 106.625 109.678 105.36C109.36 104.096 108.792 102.907 108.008 101.864C106.813 100.112 105.11 98.7623 103.126 97.9951C101.142 97.2279 98.9698 97.079 96.8984 97.5682C96.0218 97.8604 95.1907 98.2735 94.4297 98.7955L77.1484 109.227C74.5027 111.084 71.5895 112.533 68.5078 113.523C54.3125 117.205 38.8828 111.068 30.8594 99.4091C28.3404 95.8896 26.5518 91.9064 25.5981 87.692C24.6444 83.4777 24.5447 79.1167 25.3047 74.8637C26.0235 70.7338 27.6027 66.799 29.941 63.3117C32.2793 59.8245 35.325 56.8617 38.8828 54.6137L83.3203 26.3864C86.0031 24.7441 88.9146 23.5035 91.9609 22.7046C106.156 19.0227 121.586 24.5455 129.609 36.2046C132.128 39.7241 133.917 43.7073 134.871 47.9216C135.824 52.136 135.924 56.4969 135.164 60.75C135.059 62.1943 134.852 63.6296 134.547 65.0455L133.312 67.5L130.844 65.6591C125.619 61.8349 119.774 58.9292 113.562 57.0682H112.328V55.2273C112.566 52.8276 111.906 50.4249 110.477 48.4773C109.282 46.7252 107.579 45.3759 105.595 44.6087C103.611 43.8415 101.439 43.6926 99.3672 44.1818C98.2762 44.4146 97.2328 44.8296 96.2812 45.4091L52.4609 73.6364C51.3484 74.301 50.3889 75.1907 49.6446 76.2479C48.9003 77.305 48.3879 78.506 48.1406 79.7727C47.9423 81.0609 48.0039 82.3754 48.3218 83.6397C48.6396 84.9039 49.2075 86.0926 49.9922 87.1364C51.1869 88.8885 52.8895 90.2377 54.8738 91.005C56.8581 91.7722 59.0301 91.9211 61.1016 91.4318C61.9782 91.1397 62.8092 90.7265 63.5703 90.2046L80.8516 79.7727C83.4973 77.9157 86.4105 76.4675 89.4922 75.4773C103.687 71.7955 119.117 77.3182 127.141 89.5909C129.66 93.1105 131.448 97.0937 132.402 101.308C133.356 105.522 133.455 109.883 132.695 114.136C131.977 118.266 130.397 122.201 128.059 125.688C125.721 129.176 122.675 132.138 119.117 134.386L74.6797 162C72.034 163.857 69.1207 165.305 66.0391 166.295Z" fill="white"/>
</svg>
