<svg width="394" height="110" viewBox="0 0 394 110" fill="none" xmlns="http://www.w3.org/2000/svg">
<g clip-path="url(#clip0_19_101)">
<path d="M122.251 46.3533H115.161V77.3187C115.161 85.5754 117.566 85.4417 122.251 84.9291V97.4423C112.762 100.027 108.985 94.0883 108.985 77.3187V46.3533H103.724V32.9265H108.985V15.5997L115.161 11.4769V32.9265H122.251V46.3533ZM149.285 32.9265H155.461V97.4423H149.285V88.1493C147.112 94.9909 143.734 99.1248 139.274 99.1248C131.5 99.1248 125.039 84.2828 125.039 65.1844C125.039 45.9633 131.5 31.2551 139.274 31.2551C143.734 31.2551 147.112 35.3779 149.285 42.0857V32.9265ZM140.248 85.8317C145.396 85.8317 149.285 77.185 149.285 65.1844C149.285 53.1838 145.396 44.5371 140.248 44.5371C135.1 44.5371 131.215 53.1838 131.215 65.1844C131.215 77.185 135.1 85.8317 140.248 85.8317ZM165.752 23.2547C163.579 23.2547 161.804 19.1208 161.804 14.3517C161.809 13.1817 161.912 12.0229 162.109 10.9421C162.308 9.86137 162.598 8.88 162.964 8.05406C163.331 7.22811 163.765 6.57378 164.243 6.12846C164.72 5.68275 165.236 5.44876 165.752 5.44876C166.269 5.44876 166.78 5.68275 167.262 6.12846C167.739 6.57416 168.171 7.23158 168.54 8.05613C168.904 8.89183 169.194 9.87238 169.396 10.9421C169.593 12.0229 169.696 13.1817 169.696 14.3517C169.696 19.1208 167.926 23.2547 165.752 23.2547ZM162.664 97.4423V32.9265H168.84V97.4423H162.664ZM175.99 97.4423V3.25366H182.165V97.4423H175.99ZM222.249 32.9265H228.769L219.79 97.4423H213.728L207.783 53.9638L201.779 97.4423H195.717L186.738 32.9265H193.258L198.805 77.4413L204.808 32.9265H210.699L216.643 77.4413L222.249 32.9265ZM236.43 23.2547C234.256 23.2547 232.486 19.1208 232.486 14.3517C232.486 13.1817 232.589 12.0229 232.786 10.9421C232.988 9.87238 233.278 8.89183 233.642 8.05613C234.01 7.23158 234.443 6.57416 234.92 6.12846C235.402 5.68275 235.913 5.44876 236.43 5.44876C237.474 5.44932 238.477 6.38667 239.217 8.05613C239.586 8.89183 239.876 9.87238 240.073 10.9421C240.275 12.0229 240.378 13.1817 240.378 14.3517C240.378 19.1208 238.603 23.2547 236.43 23.2547ZM233.342 97.4423V32.9265H239.517V97.4423H233.342ZM272.688 57.8302V97.4423H266.512V59.2565C266.512 49.4398 263.994 44.2808 260.105 44.2808C256.044 44.2808 252.843 49.7073 252.843 62.8667V97.4423H246.667V32.9265H252.843V41.1832C254.731 34.4753 257.819 31.2551 261.708 31.2551C268.11 31.2551 272.688 41.0606 272.688 57.8302ZM301.964 7.12015H308.139V97.4423H301.964V88.1493C299.79 94.9909 296.417 99.1248 291.957 99.1248C284.179 99.1248 277.718 84.2828 277.718 65.1844C277.718 45.9633 284.179 31.2551 291.957 31.2551C296.417 31.2551 299.79 35.3779 301.964 42.0857V7.12015ZM292.931 85.8317C298.074 85.8317 301.964 77.185 301.964 65.1844C301.964 53.1838 298.074 44.5371 292.931 44.5371C287.783 44.5371 283.894 53.1838 283.894 65.1844C283.894 77.185 287.783 85.8317 292.931 85.8317ZM313.745 65.1844C313.745 45.9633 320.206 31.2551 328.84 31.2551C334.445 31.2551 339.303 37.8292 341.59 47.9022L336.274 54.8663C335.016 48.8047 332.213 44.9271 328.781 44.9271C323.751 44.9271 319.92 53.5738 319.92 65.1844C319.92 76.795 323.751 85.4417 328.781 85.4417C332.213 85.4417 335.016 81.4415 336.388 75.5136L341.708 82.344C339.303 92.5395 334.445 99.1248 328.84 99.1248C320.206 99.1248 313.745 84.2828 313.745 65.1844ZM367.266 79.2464C367.266 92.1495 362.29 99.1248 356.115 99.1248C350.396 99.1248 346.281 93.3084 344.452 84.0266L349.767 77.0513C350.686 82.8677 352.973 86.3442 356.115 86.3442C358.863 86.3442 360.978 84.2828 360.978 79.1238C360.978 67.6358 345.597 74.0873 345.597 50.9887C345.597 38.8655 350.229 31.2551 356.061 31.2551C360.746 31.2551 364.636 36.1578 366.637 44.6708L361.435 51.2561C360.407 46.2196 358.406 43.902 356.061 43.902C353.828 43.902 351.886 46.0859 351.886 50.7324C351.886 62.4767 367.266 55.3789 367.266 79.2464ZM393.632 79.2464C393.632 92.1495 388.656 99.1248 382.48 99.1248C376.761 99.1248 372.641 93.3084 370.812 84.0266L376.132 77.0513C377.046 82.8677 379.333 86.3442 382.48 86.3442C385.223 86.3442 387.338 84.2828 387.338 79.1238C387.338 67.6358 371.957 74.0873 371.957 50.9887C371.957 38.8655 376.589 31.2551 382.421 31.2551C387.112 31.2551 391.001 36.1578 393.002 44.6708L387.795 51.2561C386.767 46.2196 384.766 43.902 382.421 43.902C380.193 43.902 378.246 46.0859 378.246 50.7324C378.246 62.4767 393.632 55.3789 393.632 79.2464Z" fill="white"/>
<path d="M40.9977 0C30.1655 0 23.3899 12.2235 20.6806 36.6704C24.747 24.4469 29.487 19.8562 34.9055 22.9092C37.9934 24.6586 40.2012 29.7174 42.6498 35.3221C46.6326 44.4368 51.2448 55 61.3148 55C72.147 55 78.9178 42.7765 81.627 18.3296C77.5656 30.5531 72.8256 35.1327 67.407 32.0796C64.3191 30.3414 62.1065 25.2715 59.6627 19.6779C55.6799 10.5521 51.0678 0 40.9977 0ZM20.6806 55C9.84842 55 3.07768 67.2235 0.368408 91.6704C4.42986 79.4469 9.16987 74.8673 14.5884 77.9204C17.6812 79.6586 19.889 84.7285 22.3327 90.3221C26.3155 99.4479 30.9277 110 40.9977 110C51.8348 110 58.6056 97.7765 61.3148 73.3296C57.2485 85.5531 52.5085 90.1438 47.0948 87.0908C44.002 85.3414 41.7943 80.2826 39.3456 74.6779C35.3628 65.5632 30.7507 55 20.6806 55Z" fill="#06B6D4"/>
</g>
<defs>
<clipPath id="clip0_19_101">
<rect width="394" height="110" fill="white"/>
</clipPath>
</defs>
</svg>
