<svg id="Graphic_Elements" data-name="Graphic Elements" xmlns="http://www.w3.org/2000/svg" viewBox="0 0 1200 1200"><path d="M787.19,855.37a15.44,15.44,0,0,1,13.9-8.6h192A130,130,0,0,0,1123,716.94V204.69A130,130,0,0,0,993.12,74.86H206.88A130,130,0,0,0,77.05,204.69V723.83c0,71.58,58.24,129.82,129.83,129.82H649.52A15.54,15.54,0,0,1,665,869.18V1101Z" style="fill:#cacde1"/><path d="M993.12,60H206.88C127.1,60,62.2,124.91,62.2,204.69V723.83c0,79.78,64.9,144.68,144.68,144.68H649.52a.67.67,0,0,1,.67.67v263.39a7.43,7.43,0,0,0,14.08,3.31L800.49,862a.66.66,0,0,1,.6-.38h192c79.78,0,144.68-64.9,144.68-144.68V204.69C1137.8,124.91,1072.9,60,993.12,60ZM649.52,853.65H206.88c-71.59,0-129.83-58.24-129.83-129.82V204.69A130,130,0,0,1,206.88,74.86H993.12A130,130,0,0,1,1123,204.69V716.94A130,130,0,0,1,993.12,846.77h-192a15.44,15.44,0,0,0-13.9,8.6L665,1101V869.18A15.54,15.54,0,0,0,649.52,853.65Z" style="fill:#333"/><rect x="284.83" y="300.51" width="630.33" height="403.81" style="fill:#b5e8e8"/><path d="M922.59,285.65H277.41a7.44,7.44,0,0,0-7.43,7.43V711.75a7.44,7.44,0,0,0,7.43,7.43H922.59a7.44,7.44,0,0,0,7.43-7.43V293.08A7.44,7.44,0,0,0,922.59,285.65Zm-7.42,14.86V704.32H284.83V300.51Z" style="fill:#333"/><rect x="284.83" y="213.52" width="630.33" height="72.14" style="fill:#eee"/><path d="M922.59,198.66H277.41a7.43,7.43,0,0,0-7.43,7.43v87a7.43,7.43,0,0,0,7.43,7.43H922.59a7.43,7.43,0,0,0,7.43-7.43v-87A7.43,7.43,0,0,0,922.59,198.66Zm-7.42,14.86v72.13H284.83V213.52Z" style="fill:#333"/><path d="M532.5,575.11a12.48,12.48,0,0,0-3.68-17.23l-98.47-63.81,98.29-61.31a12.46,12.46,0,0,0-13.18-21.14L400.56,483.3a12.46,12.46,0,0,0-.18,21l114.9,74.47a12.45,12.45,0,0,0,17.22-3.68Z" style="fill:#333"/><path d="M799.44,483.3l-114.9-71.68a12.46,12.46,0,0,0-13.18,21.14l98.29,61.31-98.47,63.82a12.45,12.45,0,0,0,13.55,20.9l114.89-74.47a12.46,12.46,0,0,0-.18-21Z" style="fill:#333"/><path d="M667.82,341.59a12.46,12.46,0,0,0-23,.48L531,634.24a12.45,12.45,0,1,0,23.2,9L668,351.12A12.44,12.44,0,0,0,667.82,341.59Z" style="fill:#333"/><circle cx="334.64" cy="249.59" r="13.51" transform="translate(66.93 569.91) rotate(-86.83)" style="fill:#9d2d32"/><path d="M334.64,221.22A28.37,28.37,0,1,0,363,249.59,28.4,28.4,0,0,0,334.64,221.22Zm13.51,28.37a13.51,13.51,0,1,1-13.51-13.51A13.52,13.52,0,0,1,348.15,249.59Z" style="fill:#333"/><path d="M399.19,236.08a13.51,13.51,0,1,0,13.51,13.51A13.52,13.52,0,0,0,399.19,236.08Z" style="fill:#f3cd30"/><path d="M399.19,221.22a28.37,28.37,0,1,0,28.37,28.37A28.4,28.4,0,0,0,399.19,221.22Zm13.51,28.37a13.51,13.51,0,1,1-13.51-13.51A13.52,13.52,0,0,1,412.7,249.59Z" style="fill:#333"/><circle cx="463.75" cy="249.59" r="13.51" transform="translate(188.9 698.82) rotate(-86.83)" style="fill:#67b27d"/><path d="M463.75,221.22a28.37,28.37,0,1,0,28.36,28.37A28.41,28.41,0,0,0,463.75,221.22Zm13.51,28.37a13.51,13.51,0,1,1-13.51-13.51A13.52,13.52,0,0,1,477.26,249.59Z" style="fill:#333"/></svg>